<mxfile host="app.diagrams.net" modified="2023-01-15T16:04:31.836Z" agent="5.0 (Macintosh; Intel Mac OS X 10_15_7) AppleWebKit/605.1.15 (KHTML, like Gecko) Version/16.1 Safari/605.1.15" version="20.8.5" etag="FA2UJVEGyU0gp3SI42cq" type="github">
  <diagram id="t6dVg-hsNK4vug_YyEc8" name="Page-1">
    <mxGraphModel dx="1923" dy="1038" grid="1" gridSize="10" guides="1" tooltips="1" connect="1" arrows="1" fold="1" page="1" pageScale="1" pageWidth="827" pageHeight="1169" math="0" shadow="0">
      <root>
        <mxCell id="0" />
        <mxCell id="1" parent="0" />
        <mxCell id="b8CE8_dELRV-wutxg66u-1" value="" style="verticalLabelPosition=bottom;verticalAlign=top;html=1;shadow=0;dashed=0;strokeWidth=1;shape=mxgraph.android.phone2;strokeColor=#c0c0c0;" vertex="1" parent="1">
          <mxGeometry x="70" y="120" width="200" height="390" as="geometry" />
        </mxCell>
        <mxCell id="b8CE8_dELRV-wutxg66u-2" value="To Activity 2" style="rounded=1;html=1;shadow=0;dashed=0;whiteSpace=wrap;fontSize=10;fillColor=#E6E6E6;align=center;strokeColor=#E6E6E6;fontColor=#333333;" vertex="1" parent="1">
          <mxGeometry x="117.25" y="420" width="105.5" height="16.88" as="geometry" />
        </mxCell>
        <mxCell id="b8CE8_dELRV-wutxg66u-3" value="Naam" style="strokeWidth=1;html=1;shadow=0;dashed=0;shape=mxgraph.android.spinner2;align=center;fillColor=#999999;strokeColor=#999999;verticalAlign=bottom" vertex="1" parent="1">
          <mxGeometry x="120" y="230" width="110" height="10" as="geometry" />
        </mxCell>
        <mxCell id="b8CE8_dELRV-wutxg66u-5" value="MobApp1 Herexamen" style="text;html=1;align=center;verticalAlign=middle;resizable=0;points=[];autosize=1;strokeColor=none;fillColor=none;fontSize=14;" vertex="1" parent="1">
          <mxGeometry x="90" y="160" width="160" height="30" as="geometry" />
        </mxCell>
        <mxCell id="b8CE8_dELRV-wutxg66u-6" value="Voornaam" style="strokeWidth=1;html=1;shadow=0;dashed=0;shape=mxgraph.android.spinner2;align=center;fillColor=#999999;strokeColor=#999999;verticalAlign=bottom" vertex="1" parent="1">
          <mxGeometry x="120" y="250" width="110" height="20" as="geometry" />
        </mxCell>
        <mxCell id="b8CE8_dELRV-wutxg66u-7" value="Vak" style="strokeWidth=1;html=1;shadow=0;dashed=0;shape=mxgraph.android.spinner2;align=center;fillColor=#999999;strokeColor=#999999;verticalAlign=bottom" vertex="1" parent="1">
          <mxGeometry x="120" y="280" width="110" height="20" as="geometry" />
        </mxCell>
        <mxCell id="b8CE8_dELRV-wutxg66u-8" value="Score" style="strokeWidth=1;html=1;shadow=0;dashed=0;shape=mxgraph.android.spinner2;align=center;fillColor=#999999;strokeColor=#999999;verticalAlign=bottom" vertex="1" parent="1">
          <mxGeometry x="120" y="310" width="110" height="20" as="geometry" />
        </mxCell>
        <mxCell id="b8CE8_dELRV-wutxg66u-23" value="" style="verticalLabelPosition=bottom;verticalAlign=top;html=1;shadow=0;dashed=0;strokeWidth=1;shape=mxgraph.android.phone2;strokeColor=#c0c0c0;" vertex="1" parent="1">
          <mxGeometry x="340" y="120" width="200" height="390" as="geometry" />
        </mxCell>
        <mxCell id="b8CE8_dELRV-wutxg66u-24" value="To Activity 3" style="rounded=1;html=1;shadow=0;dashed=0;whiteSpace=wrap;fontSize=10;fillColor=#E6E6E6;align=center;strokeColor=#E6E6E6;fontColor=#333333;" vertex="1" parent="1">
          <mxGeometry x="387.25" y="420" width="105.5" height="16.88" as="geometry" />
        </mxCell>
        <mxCell id="b8CE8_dELRV-wutxg66u-26" value="Activity 2" style="text;html=1;align=center;verticalAlign=middle;resizable=0;points=[];autosize=1;strokeColor=none;fillColor=none;fontSize=14;" vertex="1" parent="1">
          <mxGeometry x="400" y="160" width="80" height="30" as="geometry" />
        </mxCell>
        <mxCell id="b8CE8_dELRV-wutxg66u-30" value="Overzicht vak $Vak" style="text;html=1;align=center;verticalAlign=middle;resizable=0;points=[];autosize=1;strokeColor=none;fillColor=none;fontSize=14;" vertex="1" parent="1">
          <mxGeometry x="370" y="220" width="140" height="30" as="geometry" />
        </mxCell>
        <mxCell id="b8CE8_dELRV-wutxg66u-31" value="Evaluatie: $verdict" style="text;html=1;align=center;verticalAlign=middle;resizable=0;points=[];autosize=1;strokeColor=none;fillColor=none;fontSize=14;" vertex="1" parent="1">
          <mxGeometry x="370" y="360" width="140" height="30" as="geometry" />
        </mxCell>
        <mxCell id="b8CE8_dELRV-wutxg66u-32" value="Score: &amp;nbsp; &amp;nbsp; &amp;nbsp; &amp;nbsp;$score" style="text;html=1;align=center;verticalAlign=middle;resizable=0;points=[];autosize=1;strokeColor=none;fillColor=none;fontSize=14;" vertex="1" parent="1">
          <mxGeometry x="370" y="340" width="140" height="30" as="geometry" />
        </mxCell>
        <mxCell id="b8CE8_dELRV-wutxg66u-33" value="Student: &amp;nbsp; &amp;nbsp; &amp;nbsp; &amp;nbsp; &amp;nbsp; &amp;nbsp;$naam&amp;nbsp;" style="text;html=1;align=center;verticalAlign=middle;resizable=0;points=[];autosize=1;strokeColor=none;fillColor=none;fontSize=12;" vertex="1" parent="1">
          <mxGeometry x="370" y="250" width="150" height="30" as="geometry" />
        </mxCell>
        <mxCell id="b8CE8_dELRV-wutxg66u-34" value="$voornaam&amp;nbsp;" style="text;html=1;align=center;verticalAlign=middle;resizable=0;points=[];autosize=1;strokeColor=none;fillColor=none;fontSize=12;" vertex="1" parent="1">
          <mxGeometry x="430" y="280" width="90" height="30" as="geometry" />
        </mxCell>
        <mxCell id="b8CE8_dELRV-wutxg66u-35" value="" style="verticalLabelPosition=bottom;verticalAlign=top;html=1;shadow=0;dashed=0;strokeWidth=1;shape=mxgraph.android.phone2;strokeColor=#c0c0c0;" vertex="1" parent="1">
          <mxGeometry x="610" y="125" width="200" height="390" as="geometry" />
        </mxCell>
        <mxCell id="b8CE8_dELRV-wutxg66u-36" value="Home" style="rounded=1;html=1;shadow=0;dashed=0;whiteSpace=wrap;fontSize=10;fillColor=#E6E6E6;align=center;strokeColor=#E6E6E6;fontColor=#333333;" vertex="1" parent="1">
          <mxGeometry x="657.25" y="425" width="105.5" height="16.88" as="geometry" />
        </mxCell>
        <mxCell id="b8CE8_dELRV-wutxg66u-37" value="Fragment 1" style="text;html=1;align=center;verticalAlign=middle;resizable=0;points=[];autosize=1;strokeColor=none;fillColor=none;fontSize=14;" vertex="1" parent="1">
          <mxGeometry x="660" y="165" width="100" height="30" as="geometry" />
        </mxCell>
        <mxCell id="b8CE8_dELRV-wutxg66u-43" value="Activity 2" style="text;html=1;align=center;verticalAlign=middle;resizable=0;points=[];autosize=1;strokeColor=none;fillColor=none;fontSize=14;" vertex="1" parent="1">
          <mxGeometry x="400" y="80" width="80" height="30" as="geometry" />
        </mxCell>
        <mxCell id="b8CE8_dELRV-wutxg66u-44" value="Activity 3" style="text;html=1;align=center;verticalAlign=middle;resizable=0;points=[];autosize=1;strokeColor=none;fillColor=none;fontSize=14;" vertex="1" parent="1">
          <mxGeometry x="670" y="80" width="80" height="30" as="geometry" />
        </mxCell>
        <mxCell id="b8CE8_dELRV-wutxg66u-45" value="Activity 1" style="text;html=1;align=center;verticalAlign=middle;resizable=0;points=[];autosize=1;strokeColor=none;fillColor=none;fontSize=14;" vertex="1" parent="1">
          <mxGeometry x="130" y="80" width="80" height="30" as="geometry" />
        </mxCell>
        <mxCell id="b8CE8_dELRV-wutxg66u-50" value="" style="verticalLabelPosition=bottom;verticalAlign=top;html=1;shadow=0;dashed=0;strokeWidth=1;shape=mxgraph.android.phone2;strokeColor=#c0c0c0;" vertex="1" parent="1">
          <mxGeometry x="610" y="560" width="200" height="390" as="geometry" />
        </mxCell>
        <mxCell id="b8CE8_dELRV-wutxg66u-51" value="Home" style="rounded=1;html=1;shadow=0;dashed=0;whiteSpace=wrap;fontSize=10;fillColor=#E6E6E6;align=center;strokeColor=#E6E6E6;fontColor=#333333;" vertex="1" parent="1">
          <mxGeometry x="657.25" y="860" width="105.5" height="16.88" as="geometry" />
        </mxCell>
        <mxCell id="b8CE8_dELRV-wutxg66u-52" value="Fragment 2" style="text;html=1;align=center;verticalAlign=middle;resizable=0;points=[];autosize=1;strokeColor=none;fillColor=none;fontSize=14;" vertex="1" parent="1">
          <mxGeometry x="660" y="600" width="100" height="30" as="geometry" />
        </mxCell>
        <mxCell id="b8CE8_dELRV-wutxg66u-53" value="Activity 3" style="text;html=1;align=center;verticalAlign=middle;resizable=0;points=[];autosize=1;strokeColor=none;fillColor=none;fontSize=14;" vertex="1" parent="1">
          <mxGeometry x="670" y="515" width="80" height="30" as="geometry" />
        </mxCell>
        <mxCell id="b8CE8_dELRV-wutxg66u-54" value="" style="shape=image;verticalLabelPosition=bottom;labelBackgroundColor=default;verticalAlign=top;aspect=fixed;imageAspect=0;image=data:image/jpeg,/9j/4AAQSkZJRgABAQABLAEsAAD/4QD2RXhpZgAATU0AKgAAAAgABgEOAAIAAABRAAAAVgEaAAUAAAABAAAAqAEbAAUAAAABAAAAsAEoAAMAAAABAAIAAAE7AAIAAAAMAAAAuIdpAAQAAAABAAAAxAAAAABQYXNzZWQgLSBTdGFtcCwgSW1wcmludCwgU2VhbCBUZW1wbGF0ZS4gR3J1bmdlIEVmZmVjdC4gVmVjdG9yIFN0b2NrIElsbHVzdHJhdGlvbgAAAAABLAAAAAEAAAEsAAAAAVBldGVyUGVuY2lsAAADoAEAAwAAAAEAAQAAoAIABAAAAAEAAAGQoAMABAAAAAEAAAFNAAAAAP/hCrBodHRwOi8vbnMuYWRvYmUuY29tL3hhcC8xLjAvADw/eHBhY2tldCBiZWdpbj0i77u/IiBpZD0iVzVNME1wQ2VoaUh6cmVTek5UY3prYzlkIj8+IDx4OnhtcG1ldGEgeG1sbnM6eD0iYWRvYmU6bnM6bWV0YS8iIHg6eG1wdGs9IlhNUCBDb3JlIDYuMC4wIj4gPHJkZjpSREYgeG1sbnM6cmRmPSJodHRwOi8vd3d3LnczLm9yZy8xOTk5LzAyLzIyLXJkZi1zeW50YXgtbnMjIj4gPHJkZjpEZXNjcmlwdGlvbiByZGY6YWJvdXQ9IiIgeG1sbnM6ZGM9Imh0dHA6Ly9wdXJsLm9yZy9kYy9lbGVtZW50cy8xLjEvIiB4bWxuczpwaG90b3Nob3A9Imh0dHA6Ly9ucy5hZG9iZS5jb20vcGhvdG9zaG9wLzEuMC8iIHBob3Rvc2hvcDpDcmVkaXQ9IkdldHR5IEltYWdlcyI+IDxkYzpkZXNjcmlwdGlvbj4gPHJkZjpBbHQ+IDxyZGY6bGkgeG1sOmxhbmc9IngtZGVmYXVsdCI+UGFzc2VkIC0gU3RhbXAsIEltcHJpbnQsIFNlYWwgVGVtcGxhdGUuIEdydW5nZSBFZmZlY3QuIFZlY3RvciBTdG9jayBJbGx1c3RyYXRpb248L3JkZjpsaT4gPC9yZGY6QWx0PiA8L2RjOmRlc2NyaXB0aW9uPiA8ZGM6Y3JlYXRvcj4gPHJkZjpTZXE+IDxyZGY6bGk+UGV0ZXJQZW5jaWw8L3JkZjpsaT4gPC9yZGY6U2VxPiA8L2RjOmNyZWF0b3I+IDwvcmRmOkRlc2NyaXB0aW9uPiA8L3JkZjpSREY+IDwveDp4bXBtZXRhPiAgICAgICAgICAgICAgICAgICAgICAgICAgICAgICAgICAgICAgICAgICAgICAgICAgICAgICAgICAgICAgICAgICAgICAgICAgICAgICAgICAgICAgICAgICAgICAgICAgICAgICAgICAgICAgICAgICAgICAgICAgICAgICAgICAgICAgICAgICAgICAgICAgICAgICAgICAgICAgICAgICAgICAgICAgICAgICAgICAgICAgICAgICAgICAgICAgICAgICAgICAgICAgICAgICAgICAgICAgICAgICAgICAgICAgICAgICAgICAgICAgICAgICAgICAgICAgICAgICAgICAgICAgICAgICAgICAgICAgICAgICAgICAgICAgICAgICAgICAgICAgICAgICAgICAgICAgICAgICAgICAgICAgICAgICAgICAgICAgICAgICAgICAgICAgICAgICAgICAgICAgICAgICAgICAgICAgICAgICAgICAgICAgICAgICAgICAgICAgICAgICAgICAgICAgICAgICAgICAgICAgICAgICAgICAgICAgICAgICAgICAgICAgICAgICAgICAgICAgICAgICAgICAgICAgICAgICAgICAgICAgICAgICAgICAgICAgICAgICAgICAgICAgICAgICAgICAgICAgICAgICAgICAgICAgICAgICAgICAgICAgICAgICAgICAgICAgICAgICAgICAgICAgICAgICAgICAgICAgICAgICAgICAgICAgICAgICAgICAgICAgICAgICAgICAgICAgICAgICAgICAgICAgICAgICAgICAgICAgICAgICAgICAgICAgICAgICAgICAgICAgICAgICAgICAgICAgICAgICAgICAgICAgICAgICAgICAgICAgICAgICAgICAgICAgICAgICAgICAgICAgICAgICAgICAgICAgICAgICAgICAgICAgICAgICAgICAgICAgICAgICAgICAgICAgICAgICAgICAgICAgICAgICAgICAgICAgICAgICAgICAgICAgICAgICAgICAgICAgICAgICAgICAgICAgICAgICAgICAgICAgICAgICAgICAgICAgICAgICAgICAgICAgICAgICAgICAgICAgICAgICAgICAgICAgICAgICAgICAgICAgICAgICAgICAgICAgICAgICAgICAgICAgICAgICAgICAgICAgICAgICAgICAgICAgICAgICAgICAgICAgICAgICAgICAgICAgICAgICAgICAgICAgICAgICAgICAgICAgICAgICAgICAgICAgICAgICAgICAgICAgICAgICAgICAgICAgICAgICAgICAgICAgICAgICAgICAgICAgICAgICAgICAgICAgICAgICAgICAgICAgICAgICAgICAgICAgICAgICAgICAgICAgICAgICAgICAgICAgICAgICAgICAgICAgICAgICAgICAgICAgICAgICAgICAgICAgICAgICAgICAgICAgICAgICAgICAgICAgICAgICAgICAgICAgICAgICAgICAgICAgICAgICAgICAgICAgICAgICAgICAgICAgICAgICAgICAgICAgICAgICAgICAgICAgICAgICAgICAgICAgICAgICAgICAgICAgICAgICAgICAgICAgICAgICAgICAgICAgICAgICAgICAgICAgICAgICAgICAgICAgICAgICAgICAgICAgICAgICAgICAgICAgICAgICAgICAgICAgICAgICAgICAgICAgICAgICAgICAgICAgICAgICAgICAgICAgICAgICAgICAgICAgICAgICAgICAgICAgICAgICAgICAgICAgICAgICAgICAgICAgICAgICAgICAgICAgICAgICAgICAgICAgICAgICAgICAgICAgICAgICAgICAgICAgICAgICAgICAgICAgICAgICAgICAgICAgICAgICAgICAgICAgICAgICAgICAgICAgICAgICAgICAgICAgICAgICAgICAgICAgICAgICAgICAgICAgICAgICAgICAgICAgICAgICAgICAgICAgICAgICAgICAgICAgICAgICAgICAgICAgICAgICAgICAgICAgICAgICAgICAgICAgICAgICAgICAgICAgICAgICAgICAgICAgICAgICAgICAgICAgICAgICAgICAgICAgICAgICAgICAgICAgICAgICAgICAgICAgICAgICAgICAgICAgICAgICAgICAgICAgICAgICAgICAgICAgICAgICAgICAgICAgICAgICAgICAgICAgICAgICAgICAgICAgICAgICAgICAgICAgICAgICAgICAgICAgICAgICAgICAgICAgICAgICAgICAgICAgICAgICAgICAgICAgICAgICAgICAgICAgICAgICAgICAgICAgICAgICAgICAgICAgICAgICAgICAgICAgICAgICAgICAgICAgICAgICAgICAgICAgICAgICAgICAgICAgICAgICAgICAgICAgICAgICAgICAgICAgICAgICAgICAgICAgICAgICAgICAgICAgICAgICAgICAgICAgICAgICAgICAgICAgICAgICAgICAgICAgICAgICAgICAgICAgICAgICAgICAgICAgICAgICAgIDw/eHBhY2tldCBlbmQ9InciPz4A/+0AvlBob3Rvc2hvcCAzLjAAOEJJTQQEAAAAAACFHAFaAAMbJUccAgAAAgACHAJuAAxHZXR0eSBJbWFnZXMcAngAUFBhc3NlZCAtIFN0YW1wLCBJbXByaW50LCBTZWFsIFRlbXBsYXRlLiBHcnVuZ2UgRWZmZWN0LiBWZWN0b3IgU3RvY2sgSWxsdXN0cmF0aW9uHAJQAAtQZXRlclBlbmNpbAA4QklNBCUAAAAAABDFcXj29oO9MKJa3BsJRzeH/8IAEQgBTQGQAwEiAAIRAQMRAf/EAB8AAAEFAQEBAQEBAAAAAAAAAAMCBAEFAAYHCAkKC//EAMMQAAEDAwIEAwQGBAcGBAgGcwECAAMRBBIhBTETIhAGQVEyFGFxIweBIJFCFaFSM7EkYjAWwXLRQ5I0ggjhU0AlYxc18JNzolBEsoPxJlQ2ZJR0wmDShKMYcOInRTdls1V1pJXDhfLTRnaA40dWZrQJChkaKCkqODk6SElKV1hZWmdoaWp3eHl6hoeIiYqQlpeYmZqgpaanqKmqsLW2t7i5usDExcbHyMnK0NTV1tfY2drg5OXm5+jp6vP09fb3+Pn6/8QAHwEAAwEBAQEBAQEBAQAAAAAAAQIAAwQFBgcICQoL/8QAwxEAAgIBAwMDAgMFAgUCBASHAQACEQMQEiEEIDFBEwUwIjJRFEAGMyNhQhVxUjSBUCSRoUOxFgdiNVPw0SVgwUThcvEXgmM2cCZFVJInotIICQoYGRooKSo3ODk6RkdISUpVVldYWVpkZWZnaGlqc3R1dnd4eXqAg4SFhoeIiYqQk5SVlpeYmZqgo6SlpqeoqaqwsrO0tba3uLm6wMLDxMXGx8jJytDT1NXW19jZ2uDi4+Tl5ufo6ery8/T19vf4+fr/2wBDAAICAgICAgMCAgMFAwMDBQYFBQUFBggGBgYGBggKCAgICAgICgoKCgoKCgoMDAwMDAwODg4ODg8PDw8PDw8PDw//2wBDAQICAgQEBAcEBAcQCwkLEBAQEBAQEBAQEBAQEBAQEBAQEBAQEBAQEBAQEBAQEBAQEBAQEBAQEBAQEBAQEBAQEBD/2gAMAwEAAhEDEQAAAfv7bVttW21bbVttW21bbVttW21bbVttW21bbVttW21bbVttW21bbVttW21bbVttW21bbVttW21bbVttW21bbVttW21baKncn1dTE+FV3HefmD9LMPqlLT5EF7R6/wDl99ZkfR+ikVrzfM/0oQTbA7bVttW21bbVttW21bbVttW21bbVttW21bbVttW21bck/q+4vsvkcj559T8q2ifY3yVWzHbYi2qdqxB6vfPE6/C32n8WdvH9C94b5hm32BPyB9f1tsDttW21bbVttW21bbVttW21bbVttW21bbVomK+HfIOp5bXPoKppjbO/cBeCWv0/TA+c9Yy0ehihTT3k75NeR1X01dQ+S97x4iQ12xrb9KPzA+20b2jedQjejaJrbattq22rbattq22rbattq22rbat4h7f8PsO8rvnLMq0a1YVfuXovmit6P5r657sD82ezdnxi3Yq867YF/tqhPAMYXfjH0FdG+JfUPoPwUjy3xD3D0hr5H1nWMudNXlfprMTjpttW21bbVttW21bbVttW21bbVsni67b417f5+deR2sXV99Qz5gjtvrm2YrW8xINP8Z/cnziw+T/sb5/+kGHtFJd7NvgrzL608r0T3z2byP1xG22B5v5I+22hHhPy36p6g98fHcNmT7F9J+MPUEP1STw+m9Xw/oiu+QOG+k+T+t+u+FPtvHo7XbfE/oe21bbVttW21bbVT/m1+nnwY48x2zpvrPy6zVmH2hRdQhafDn0h8WsPffqD4F/Q0GaW38hU+ut/DbEj0WeWiPZ3nidfD32fIfWwV6IpWpfN+/zfVfAaDzr6T5L6P5X5530nyfqXn1dvo/k9tu7g22rffXwn+gH53+pK2353+qbbVttW21bbVtuKrtPknkfInXKT68y+vVvCfYaPYbZTvnz6D1cHaPvEiA+z9GuMToFOBx2/N3EfPvnX0Py30lx3zC0+l+S98824yfo/k1jfetb8/i++qDeJ9F8o7sOP+l+R223w22rbaur+5Pin7V/Lv2JW2+I/RNtq22rbattq3zD9PNCPzI3Wcnqm+r/lP6pU8/8AW3lfqiNtsDojnXz8X+iPCOQ975r6n5n445/6L5T6k828k30nyltU7u/W8XhN9Qc94vv+Denebfe3L1+Nej+deDeH9F3P1Z+e32mR530vJ+FdfD9t/DP398ncPpeU7b9N/I9tq22rfU/yw58j2/0Gnie2/FP6D22x6Ntq22rbashHyKRV+I9/6hovj3sHYI9PxPdl/IXC/RfKfW/m/gu+l+T7LkEdB7vzfP7r+Q1x3cA+zPl/sPBOA9e6rxfoPkb7t+IfukH577Ch46vMvqf5a9b9rwPQOQ+gPn/5P7bz70Lx+5+x+B+kPi39CfijxvoPq7x33n5k8r2fI9t+s/iu21bbVttXUfa3wr9H/A/pXtuifzX9c22rao887fO9Zj5e84+j+U+rPMfn1P0vyXrPndVvpPk9tu7ztZ/R3qfxP6F8o8x9e3nm+r8D/bHx59k9vn2Pw99c8T53q8J9SfB/1l0cvk/MfYT3zPY/Pf3Hvfl7674b7I6T40rPC+k+1fkf7R+H+bq+4PiP7CeeN7/ytXfQXhX1/wAL9XsfjPnOP0Po75xHvsvgtl9X28HI73O2+e+o+f8Auvri0+a+s+e/SO93zf1oDTvI9zbaO21eJfLv6G/KX6J+VePbb9E/Lttq22rbavoj0z5r+yvyj9p+APv7yj0zPT5X+k/jz7L7fO+Svsbiu48j3fiak+tOa+u+G+d/R/ohXl+zdfLnoPy90c36As/iw2HR9G/JkR9l8H13Os3/AHecw3pvpXlex80X32H1Xzf1vyv6N7Pyvzf1nD+YF+f/ABPpHNBtN9U/TH55foJm7rbKdtq22rbaswf4r8O8j9xfFf7F+Dsdt9L8nttW21H+9/gH67+G/RaP54+iPl/s8+Pvr4G+ueTu8i4yqq/o/k/un5P4ePN9b06t4NXqeRk9h6OmnhDn649A+a+s+PvQ/otXzn1fnVb13nPz/wBT7Oedy9m21bwT3v4sI9B+Tvp75idd7t4V+g0eos9s222rbattq22rbak/Fn2l8HfcfnNHtv1D8f22rbat6z5NuPu928J2z02f+gunl++mPSfm/q/jz0f6I8q+b+stfRXVp839ZGncHqbaqq15DzazIo/f21BHqt4X7mKdorifBaDv3X565PZl3vngnq8furIXk+21bbVttW21bbU1/P37o+E/0j8m22/QPzLaeox25be3XPz/ANR8/dv2qvm/rLD0jwX6B+b+s7Rzt43v7bA5i+1eKsfd2RHi8e7avCH/ALSOmj/mulBT+dv398nsvjX2v8u/cRrTw3sfnMHsvnz07w113o/nHrtfVHeTsm22jttW21bbVttW21eefJf3cT6j435R9I9qnHbm+iVvB+m8z+Cfsz4zn22YfT3FeL/TCt7P6D8cekKfoDJUp3kvrXjZHiPqPx76W4+95prnNvJPlP6f+MtF+hfq74f+xFN9slTR8zwXnDCv7AfzUwjb0Qr530XuHcA+7ylWb7bVttW21bbVttW21bbVttW21U3D+o6vC/mr9Cfjxl8A22i+0ej/AChbqfVfoDzQyn6Y5v5N66PpHQ0XYC6/VGBsecFxpHUdt8q8ob6B8A7puZ/5v5fUsNtiu+4Ph/7yU+obbN9tq22rbattq22rbattq22rbattq22rfL/1BWkfmldfou8YfmhXfVnymy6zrMb3zsvlHA/Vld8yPRe9bxfV79YfLzM31hxPguFZ1mzDbavpD0D0zpsn+d/ab/VtsDttW21bbVttW21bbVttW21bbVttW21bbVttXL/nN+oPmzD4n9i+uSw/MIf0n82ONur+kK+RNZ1hG3SfX4Pw5vTPMiOz+wa72DN/k7kft+K07Kdtq22rbattq22rbattq22rbattq22rbattq22rbattq22pj80/UkEMLDYHzz4y/RALDkO12Uo8q9Y1RO1bbVttW21bbVttW21bbVttW21bbVttW21bbVttW21bbVttW21bbVttW21bbVttW21bbVttW21bbVttW21bbVttW21bbV//2gAIAQEAAQUC/wCR6tPEe1Xl92Jo1+MtsTuv++m23va7uft4z8Q/o+3ClJV4d8blDVcQJg8TeMJL8vwX4l94S73cbLbop/rBQb1KgtP++Pf9yG17VkrLbPGG77c0+PttXZXd1Ne3Hb3+8Np2QtUa5fH24Gyubq5vJX4H3b37bf8AfBfb5tm2z2+57fdOoL+sDc+bd/zvh7dDtG6Xfj7Z4Hd/WFuMj8M+JNzu9+/1b45n52/8HBu252rnnlupu9vY3l2bfwXv87j+rzcyx9XUjP1dSOT6vNyDuPBm/wADuLG8tD92wuDaXqSFJ/1Zvdx71vHeGCa4XtvgK/uByfBXh93H1gojf9IvF+4n9F+Obt/0R8Vrf9EfFaH+i/HFo/6ReL9uNv8AWAmQcjwV4ge5eA9wtxNBNbr77P4q2gbX/Szw+x4s8Pk/6n3nxpFtF8r6x2v6xbstSipTGp2XwTd3on8QeHvDcarrxV4pXt/1eRh2fh/Z7FgAfdICneeHdmvnuH1eJaL3xT4XXBvvh3xPHvfgq8sHqPuQfv8A/U/jpOPiDvZ2VzuE9ptOzeEra83rfPFNzs3gaytAiNEaX4gvl7btGweILfebNN1brX28UX8m27LsPiW03Wzg3GxuZHJFHMjevAtpdCx33e/DFxebNs/iu2u7O5sJ+1v/AIx/qf6wkY7x223bbrdbqWXa/BFht207r4uvNv2yz2uDtfXXudt4h8V3e8ISpSX4G2dNrYPcLma0tt+8R7lu3bwVtMdjtffctqst1gv9r3fwheok2rxvYbjt11tdy4l8uW18f7TK7XfdovGFJV3mu7a3F14v2m3e1bh+k7P+cJAd74h2ewd79Ydul7xvN1vU7tLWa9uFrsfBG0bDsV54kvIYYreL362F538f7dapsNv8J7vuVr4Oi3Oxtu31hWcPuNh4K3a+s/Cdpum22v3J4IrmLfNkvPDN4k2Pjfabq2ms50RySGz8Kb5eO28AJjdrd+HPDybrxy7rxNvF01ySSl+Ho+Xs385f23vllIlSJO/h/b7fw1tO32d74w3mCCK2imnht0eI95M/iD/ZhX6xZ+8m2d9YW24xJSEJXPDG1b1tSGjetqkc0VjuKfv3FvFdQ7d4QvNq3beIvC01yfFGz2AuvF+7Tue8urk/dsY+VZ/zvi+x9x33t4N2T9J7h4n3KbxBu+z7XBtFi/EfhYb07u1lsrrw9cwWe8sqCRf+L7SGQWvjHd3H4HsVFHg7w8gL8HeHluTwPZJZt/GO0Pb/ABfZXEgUFB1dxuFlai68ZbZC7rxruEjud13G7/mbZHNuRoP53x/c7fcysJUs3yx4T8L+AdmxR3X4R9/8RXPhrZLoXV7Z7LYpj3jxevbto2/ao/vbvYbTfRR75sOyW9144mU7rxBu121KUo/zexx83d/5zdt+27Z0bz4x3Lc+/grbff8AePEU8niDxLa28dpb/c3C+t9ttdt2658TXSUhI7qkQgXXiLaLV3XjiMO68VbxcuWeac94Laa4ntfBW4SuHwTtyBN4L2tad32W62iX7/huWGDef5zx7shP3PDQTsvhXwBYm4vvuzZeLd8SlKEkhIuN52y1F142sY3deMd0ndxf3l0e8ca5V2vhDdZ3a+CbNDttl2qze/GOx8RIUlaPEHiPc9tv/D3iQbo9zsItxs5olwS/f8K7775F/NzQx3EW97XJtG4NKStXjJQ27w/4Ns/dNh71d7fbfFEnxHsW0QXXjW/ldzuu4Xf3dp8P3u7OLwPZBO4+CjHGkyW09tMLi38S79f7XcXO8bldutX4buvetn8c2ulncrs7pChIjxhai33f78MskEux7vFu1p/NEhI8ab1ZbncPYIPed68dpuL3drSEW9rNcwQJuvFm027uvHE6ndb/ALrdtSlKPfbPD+4bmE+BVY7r4bvtrTZ25u7uCGK1hu/Gy0XB8W7d7jf3ir+78I3XvGz+J9ln3ZNr4HD8S7TFtV14GuunxLa+9bM9hWZNo8dgc7+Y2nc5dqu7W5ivIP5ha0RI8TeKptzVZ+F96vXbeAFpFtb+E/D8t141hBuvFO73LknmmPe12rcL17jsl9tcb2HbxuW5LVDZW6fG9iZ9237bbW1sLlFvuYooXvgmKaWbwTuKHe7bebevwPdY3Ei+XHdeOA9y3i83U+F7r3XeJEhaE7HfzXtjbCys/GV4m53P+Yhsru5Phax3iw/mKgPdrrZpIf6R7Ht4uvGG6TOe+vLk94LO6uTH4V3qQXu2Xu3Kfh0U2XcrCLcrO5t5LSfwbKmPeL22Te2s/grcUG48ObzCFJUhWx+LPdYovEO0TOG7tbh39jBuFrtK17Xvx4Xm1XY3K28H7rO942hewzW8ybiC4vrG0G7eMYghSlLV9yOGWU2vhjd7p2vgZLtPDe0WrRHHGPuz31pbC68Y7XC7nxteyO53jcrpk1+94Y2za7nbpp7TborTf9svpryzhvre+tVWV3sgps3hzdPfrXxltGaIJpLebavFNheRpurZbrk/FGyxXdnbWlxeSbnsd5tSdsN0L7y3uRKt42+598sZJoIHdeKtotn4g8Qx7wj9Mbj7upalnsElRtdi3S7dv4KmoLTwhtire2tYkfzPizZDdxfzPga608R2vvWzwSrhmSckeMkJRvO0Cm17buKtq3giO5h3rbV7Xf21rcXkl1b3W33HhTcL79Jz48jwtvMO3zKRb3UUFhY2j37xJBYwkkmLfNygtJbieY97fbL+7dr4L3GV2/g3bYHs257BdXviHxhuVtuFzum43hfgnxFmP5kir8VbH7jN/MeGLr3XeFpC0WXg+wtpLm5gtIt5v/0luG2im3x+GdpRIjCMeJtp/Sdj4RvrJVtf7PY7m7HabDbX4p36KC3dtu24WYn3rdLkce8NrcXBtfCW7XDtPA9ul2uxbXaNKQntvdz7ntP1dwUVfz+9XvbZdo3Hc7qFMiYv5m5t4rqHeNpm2m6+/HIqKS1nTc2/iffNx2u4ur+8vVOy0s928Sbt73Z7rd219+lttEG9S2Y3KDxbvEKbvxJu92CST2jhlmNv4Y3m4dr4GU7XwxtFs953YbVJGFiP7nj++5G2bb/rL4I7bB4Mur42lnb2UP8AN7xtcW62dzby2s/3/CF17xtHji1zsuy/FG02kN9Om5vHXuAVG22Hdbt2vgedTtfCW0W7itreAdt33W22ez8M7ZcTT/d8RzK3/wAT+PrtEED4Pw5uY3Xaf5wvxLJzN7+/4W3m32te8+K7a/tPu2217heO18FbjK7XwXtsTtttsbT72771ZbPBtu132/3lKfd8Q7onadr8B7flLve4nddz7eAt092v/wCcL3OTm7j/ADUNrc3JtfCO73DtfBFqh2uxbVaPcI773W28WXFjJbXtreI+5dXtpZIufFdzfybX4WxnmlRbxW297VdhHi1F74h7+J9wl8Q7z4luYfD2w9uL2TwzvdzOmtP5uZWES1ZK+8iOSQ2vhrd7p23gh2vhfaLVxxRxD7k9tBdIufBVln7h4zsn7/42jfv/AI2kf6P8Z3rt/BVjnb20FrGyARvtpHt+72F5Jt95sHii23rt4y8QjbrbwntcW0WO77lLu1+/DWxI36723w3tO1/z28Scra+/E22y7ndu28E3SmbHwhtTl8a7TZjZfHMl1uHie03TZdy2DfbffLX78NxDcjupSUJ23dLXdUu+N0LVXgPeJH4b2gX2+Wtna2UfiDfoNktPDuz3HiLcPGHiAX83bwRccjf/AOe8UycvY7fb726Nr4N3Sd2vgmwjdttO32j4PxhNyPD/AH8NeILfcbbcts3LwjuGw+IbPe4fueKtx3PaINw8c7he2f1fXKDtnbxfDefo668S7zeWvgPeLKzjqD3Tt1qi/wB+8Q2myQ7Zte4+Lb/xP4hgsbfvtFx7pun89LFHMlKEpH3PrAmw2buCQfD/AIogvIN58NX2xT7B41t7wAgjt413OGz2l7DsW8biuxiuYbZ+M91XZ2EttcQDw34UXvke3bfDttsyQBv/AI2gtHsvhm93ybxB4pgtoK17bT4Y3PeIYPq6uC7fwBtMTAoP9R3lhZ7giXwd4flcngDZlPxFtKNl3LtsPjC52wXvhraPEMVvu/iHwpLtfjDaNxAIIutn269m3/wnabhZ+F7Fe37L2KEE7ttNtu9n4e2tWz7YSAN18X7RtouN28Q+KpbLw3tHh2LfvF9zuf3PAqcfD/8Aqn6w4sd072d/d7fNY+NbG/iu/BW2bijl+L/DZs/rEmS7bxvsM7i37ZpmL+yLN/Yhy79s0LufHGxQO8+sOZT5XjDxIbXwXte2ov8AxrY2EV5fXd/L9zwanHw5/qn6x49EpUpxbXuUzurS5spO1re3dkux8f7jC/094O3Z/wBF/Cd85Pq7Cmfq73Bj6u9wLj+rtCX/AEZ8I2L/AKQeENpd94+3Kd3N5dXq+/hTwtY7ptqvAGyFr+rrbi9rsU7ZYf6puLS1u2i2t4nR/WHt+UP3kXNxGxuu5pZ3XclNdxcSff4vZ7Mbftn+r95sRuW2EFJsdq3HcVQ/V9fqtloXGv8Amdh2pe87leeENivBffV5cIe1+Ft0i3r/AHwo8KbKm8RGiNL8d7Fy5HtWy3+8TK8AWX6OvLO4sLh7VtV1u92vwXs67DevCu5bQX4O2X9F7d/vnuLeK6gsfq//AI7bWtvaRPf/AA9bb5bjYdz/AEpseyW2yWjIChc+Dtonvv8AfbgjL/kfP//aAAgBAxEBPwH/AEJegP7IdL7LQ3+xU1pWlaj6pb+lX1j2lH0DKuXrP3m6HB+PIP8ANz/tHrf9xGxDjBjv/C/up+8nVdf1UhloRA9P8PedBoUd/WfMdL0/8bIA9Z/uIXSQ4xRMv9g9Z/uIHWZOMQEf9i9X8p1Of+NkJ1/3DbF/Gn/g/wB895P0Oo6zFhF5ZAf4XrP366DFxE7v8D1n+4jZpcYMYH+Hl6z94utz/wATKf8Aaf7R6H4jquq/gwJR+4PyG26H+u9T02TDM48oojs/3DmI/TZD67v98fQGuXLGAuZp6z98egw/27/wcvWf7iOfGDF/rvWfvh1+b/Zlf4OHBgz9Vk2wuUnN+5PyEIb9n+x5f3P+B6brZTGe7j6PVfMfF/G5DixYLkP948l/cj5YZeqzxqt33V/tX5H94Oq6H5SUZzuF+P6F/wBxD+OjLDDq4+Rx/m7PgPmp9DnGSPj1D0vVQzYxlxmwe4vWfvH0WDjJlH+1es/3EbDHjBjJ/wAPD1n789fl/Cdv+Blk6jqZ8kyP+u9T02TDLZljRf3V/deHVxl1HUGoBz/DfCZsE5YJ7dvrZ/3y/wC4cY4bMsh+Kx/rM+o+fwSmTHdf+Dj/AAP7o9ZkxfKbc/mVg/4fL890XxWLN+p638Uv98PxvyODH8vHL0/ECf8Aa8P+4g/GTnmxZccbJ4f3sl7XxAx5PxfaP8/+8Dt/cP5DqIT9gwJxn/YHXq/lumwfxsgD1n+4g9HDjEDL/YPW/wC4g9XPjEBH/YvV/LdTn/jZCdPjP3F9zDHqM2UCJFsv3F6PNhMuky2f8xD/ALh7iMeryxl5A/3y/vZ8fDrukj1+DyP9p/vx/cf5jp/Yl0Wc1/h9bcv7h9Bk/hyI/wA7n6XrPh+s24Td+P6/5mH79dVjzDD1OHn/AGL+/kY4jg6uP4gf9+vzvwmL5HHjlKdAc3/QvzPxvxPTdPIYMl5PTm/9pw5/9xGG0e1j5/q/L/N9R1s92Y/5nB0mXKaxxJ/wPR/uP1+X8Udv+F6L/cOcQ5z5L/wcPR/u10OD8GMf5+UCtf36/dz/AH3cI/3+/wB5/wC8+390Jjq/iz08vS4/6/8AwF/c/wCFz9BjyS6k1df7B/dHNDL8j1WWHg/7zf3Y+H6jpITx5yNpPAep/dGA+S/TylthLkf7yeh/crqOn62OXHk+wH/P/gf3u/eIY+txHpzzC7/z+j/wMDpSBOWH7/8AN/tX5757L1+TfPgDwGXU58tQMif6PR/un1+fxjr/AA8PR/7hwfPUZP8AWej/AHN6DD/Y3H+rjxRgKgK0HbOIkKL+9n7vHos26H4JeP8AeXZ/uHXW7eongP8AaF/6z++2fqI9ZLFOZ2+QH9wetw4DmnmkB4/3y9b8v1E85ye4TR4fnf3tydbjGMwAr/XZfOdZKPtnKa/wvR/u91vUc48R/wBp/tXov9w6zy5zzA/wcvR/uH0OPmdy/wAL03QYcIrFADUpR3/7iPl/1Pjh+Z/3x/v3s+O+QydLmjnxeQ/KfLZusye5nPL0nxfUZ/4MCXov9w/6zJzlqP8AsXov9w96WH8aRl/sHo/hulwfwsYH0R3/AO4k5f5mGH+HTB02TIaxxt6L9yevy+Y7R/V6P/cOcY5z5L/wPR/ux0OD8GIf5+f9qgAcDvKNCj6Hzv7p/r+oGWc6AFPRfuX0GH+xu/w/7xThwQxjbAUE/QJR219Q6X3Xpeg+ttTpbelt/sZDWlaVpTX7LX+hv//aAAgBAhEBPwH/AEGExQEx0I/YhoB2UkO1I+uNb15bb0l9WLt1tvWm22/rRGlpOkWWgKdAddr0vwHV5vwYz/tHpf3GyH+NOv8AA/vJ8D0/R9PE4/xE98dCksWQ147Ol+M6jN/CgS9L+5fUy/iER/2L0v7l9ND+ITJ6b43Bh/hwA1/fzJ/Ch/h/3x3iOh0vS9MHTZMhrHG3pf3Q6zJ+Ibf8L0v7jYh/Gnf+Dh6X4LpMP4MYes+U6fp/4sqT++fRXXP+s9P1EMsBPGbHZ+/JP6iA9K/3z3A6FOmPHKRqIem/djrcv9ih/V6b9xf93sn+s9L+6/RYv7F/4XNmw9Pj3SqIcf729FKW3c/vR8zn6UQ9mqL0/wAX8j18BkyZftP+8eA/vZ8YcXT4Td7ft/3k9D8L0/WfHCUI1OvP9Q/uR1xjll00vB5/z9nzPxMOrw7D59HqMEsUzjmOR2gP9HpvhOrzfgxn/aPS/uNlPOadf4OXpf3Q6PH+Ibv8KIYOnj6RH+s4Oohljvxmw/vH+8MumkMOEfcXD8r8tizRGWN36U/v1Oe7EPRhg+GyxgBLb/rv7y9NjyfH3i8Roj/aPw/VfJZMXsdJ4H++Xr+hzT+MOPPzMD/aP7lfIQhjyY8hoDl/doe58mZw8fce398uiwTj7wkBMf7HXpvjs+b+FAl6X9yuqn/EIi9J+5XTR/iEy/2D0vxnT4f4cANOv/fDZlOHFjuQ4Y/vf1WLKB1OOh/rF/ffIJdNjI8E/wC+H92utl0fUy6LN4P+1/36/vf8Xm94dViDj/fHrIfjAP8AmcPUdL8p0t5RVf7Bn+6HTZMRy9Pl4f3OMsgy9MfwkPw/y2TockwI2Tw/Fdf8l1GeJywrH68U4f3FO4+5k4/o/GfEYekjtxBzdTjxi8kqeq/e7o8f4Tu/wPVfvzlP8GFf4XqvnurzfjyH/adn7ofO/wC+pl/zf7y/3l2/vNA9N8iM8f6F/eb5XF1k4DALp/ebDLH0PT45+R/vJ/eD5PB1M4zwg2Hp/wB55noPejHdKPB/3m9Z+9mHP0hxzx/eR/m/wv7tfB+50mQZxxP/AHx6v+2V1AOyOX7f8/8AtH4b4bH0ePbDyfJY4MOK50A9V+8vR4vM7/wcvVfv0PGHH/rvVfvR1uX+3X+BnMyNyN6S7YyINh/dv5z9Xi2z/GPP+8+z9+elvDDN+R/2r+6WHAeljkjEbvV/fTpcuYYo4o35/wB8PS/F4Y4dmwcjl+I/dqHSTMxMm2Pw/SRlvGMf6z1XznSYfx5A9V+/OIcYoX/sHqf3x6yfETt/wOfrMuXnJInWKGR7/wBxcd55y/p2df0UOoxHDk8F+O+MxdLDZhHD1PyODD/FmA9V++vSw/hgyeq/fXqZ/wAICP8AsXqflOozfxJk612Voe/9w8f2ZZ/4NM3UQxi8hp6r97ejx+Jbv8D1X78ZT/BhX+F6r57rMv4sn++Em/Ottt6RZICPo/D/ALyfo8BxwhZJeq/errcv9qv8DkyymbmbY6kaBI0iy0rUn6dsTpWm3spDWkvqgu9GlNPLTWu5v64LuQ3oToS7v2O9BL/Q3//aAAgBAQAGPwL/AJHqTb4pfpYzQV4K+XepaduBqg6GX8oV/vqXbQ3CTLGSkp4HTv8Ao+1V/GJhr/JSwpJoRq02e8HTgmX/AJKfvKlgRAVyrpRqsduOFvwKvNf+h2G03yvpE/u1H8w9O3NvJRGn4uKO2h/i2QzUrjT4BhaTUH/fJPdfnpRH9o8HnXXjVhCl+8Rfsr/uuSXBSLhI0jPmfm5Lq4OUkhqe/uBmV7vWuFdO4kQcVJ1BaIIYwmelFSH+oMzXUhlWfM9vc5T9La6fNHl/vhTb3s4iWsVFfR/xe5RJ8lB6OLa4z0w9Sv7R/wBD+eiuj+7PSv8AslkW4XcH4Cg/WyLOBEI+PUXFHfzlaJgpNOAr5f6ukR5QoSn+v+t6P6C6kR/lFruJ1ZyL1JP3MbaFcn9kVesHLH8pQD+luIkfiX1Xqf8ABfTep/wX9FcRL/EOogEn9kgvG5hXH/aH3oLkf3pYUwocD/q28n8lSKp8vuCKBBkUfICr5m4LFsj04qf0pFxMn16z+HB8vbLMBI/a0/UHS1SoA/6XG6yKmHzXi6rk/wCUrqlf/KV1jM1B6LydLpKj/uyN8vc7MKHnjr+ov6Ei3mPp0H8ODMm3rF0j04KZinQULHkRT7lsm8ukomSgBQ+I0f8AjiWEi8TU/P8A1RJYqtlSKjprWnF9Fj/vf+g6Js0j/KZUeJ17UDFzuJ92g40/Mf7jNrs8QmmHEj+tTKYQrknyT0o/Fhe5T5H9lH91/wAXtUV9T1H9boPu0LPPtU5HzT0n9TK9snp/JX/dYROFcr0X1I+wsW27RCGbyr/Upm5sP4zBx/lB6/cj/tD+H/VC1ftIQfuJtrRBWtTF9uqhLc+Xnr/JD9zsUqREfyp9P5RYl3L+MS/s/kH91hEaQlI8h2uLuM0WkdPzL5pIRMjRafi+UiRKl+gPee5gVjL0hJ+JL5kyxFNHosE/rfJt50yL40Sa9jHKkLSfI6szbZ9BJ+z+U/3H7luKVLiH5Ven8kv3/aFCK48/LX+UGq2ukFC0+veL+0n+H/VES/2oh/Ce6bS1TVR/AD1L5UI515KPtP8AoM3t6sphrqr+pLFvZx4D18z8+67gRKmx/KjUs2fK5MNa0/No+k0q/wBJSay3PD4J7KnggNwpP5U8X7tcp5MaTXD4/Hsm70VLd9RPw8h9zkXiMh5HzHyYvLRZVCToryPwU8F/Q3sY+0f6DVaXSaKT+B+XZEn7JB/B0uELhPyqP1P6C6Qo+ldX0mvfKeRKB8S6IUZj/JabsIwCyaD5fztS/wCMXKa+g1LxsLcyfFWjE91SqRQU9OyLW3TlJIaB4IpJezfrP9wNW57komGvUf2/gPg0wwpCEI0AD9wK/psc6fD7iNwjjCZuYElQ8wav3uBACfLI0q5Nt3KEo5ZrGfKh8u8N4lAEnMxKvOhBYuxjFl7KV8SGvbtxjoIzWNVaih8vuqhnSFoXoQWncttUeTXpP7PwLoaR3sX6j/cLXbXCcZIzQh4xpKj8HVNuUJ9V9L5m5XgQPRP90spguFSq/tFbpZwfap0M3LHonR5SKKj8e1on+RX8df52e1/0xBDUhftJND9xe+bkKTLToPMA8B8y13N0aRJPUfQeSQ0wQJwQgUAD5k6whI8y1X9hJpFiEKHwaI4rRJkOnHiXGbynOI6qcK9hBdJyQFBVPkwlIoA/pFhPzLoq6jH+U6Ju4z/lNAkxlShQUPmP5hdvOnNCxQhm9troIhSdPUp9CxdbmpKpUinHj+Dw2uzHzpj/AKLpGRCPg63EqpPmfvQR/soSP1fz09B0TfSD7eP6+/vMw/i9tqfiryDRtNj1RRqxHxV5los4fL2j6ntzop1IlHkTVH4OS0n9uI4l2s9ymsYV5+VfP7O1VGgfuu2oN7P6I4fi8ridO3xH8qfaeV9cS3Kvip/4tX5kv/FafIl5WNzNbK+CnlDMncYh5H2n7rfpNlcei+H4uqdR3rcTJR8yyIMpj8NA6WyExD8S/wCMXClD50/mYo/2lAfif5+3EEgXcRVCgPTsEJFSdGi1i0up9P8AKPtH7GreJx1L6Y/l5n7l1f3v+K5ApH7en8D+ktUg+qdGF3MlERigrxL5kpNltvkPzLfLs4gj4+Z+375G5JT/AGuBH2sWlrKqYJ4a5frdLSAJ+Kn9JOQPROjqo1Px/nLRH+xAfw/na3UnX5IHtFmKE+7weieJ+Z7plWKx2vWfn5NG3wHpQrlD/kIuO2iFERJCR9n3V3lyrFCGN63gUtk/uYfL5sJSKAfcqo0dFzgkeSdXS0gKvirR0EnKH8l5TLKz8TX7ibaJNZFcA63K0xD8S/plrkP4P6IrjV86vGbqQfZUOB/mLeSc0Tr+JH86N5txw6Zf6j9y53Zei5aqH2aJ/W7jdJdeXoD/AClcfve7g/622J19FqYQgUA4OpNH9NcIH21dLaNUp/AP6HGEfDUutxMpfzP3ExxiqlaAOsgEI/lOt1MqT4DR1igSKeZ1/haLy3UCKpXp6jiwtPBWrNrClIRQEEjjV+7XICJx+Cmu1k/Nw+Ba4ZBRSDQ/zAsbpX00fsn9ofzi4JRkhYoQ5LRfs8Un1T2CBxLstqj0yoPsQP7rgP5pqyH7fuqjuZwgKFDrq/d9siJT8NNXS3QmIfiX9POpX2/dzR0RftF/SzKUWZLCTMj8qmFeyuJX6w4508JEg/i029ukALTUKf006j+p1LgUdVIGB/yXbXg+KD/CHFco4xqBaVp4KFWZE8J0hX28P5hM0RxUg1DEg0kTosfH+bqdAGiC0TlyK/Sevw7WcJ4GRP6tXb2lugr5aPIeai4oBwjSE/gHlNIlHzLomTmn+S6WkIT8VP6ScgeidHVRqfuZxJxj/aU+q51+T5p+ki/aHk4bYf31QT+LTDEMUIDKLaEGNJ8/Ni7/AL4f7351a7pSQkr8g0JPGElDgNtTNBPH0LreT/Ylxot68taK6+ruLI/BY/gLnSOKOsf5Pa0WeOA/U7Q+eKv6v5lNxHw4KHqGi4gNUL/mTJIcUp4lq2/aq8ngVDiv/Qf0duUj1Vo89wukxj0DTOiTmzo4Hiz7nb1V+0p05vLH8l1lWVn4/c/i8KlA+fk0SXSdF+naK3V7HtK+QZWeiKIfgA8DEoR/tOqyJuaNEjzq4LqmKEyA09BV1HAtUltNy8jWhf0ciF/qeF1GUfHyc9mfzjIfY1SHXEVZFpB9qmk3RHRwoHDXhL0H7WpCuChRyWkMR6FEV8nDaj+9pAYiQaiBNPtP8zSCJS/kGY7pNLdetCdQf5ir5G4TDDzSDx/B4bZZg/GlHSKkI+DrPMpfzP3KQRKX8g68nH5l43UZTXz8u1p/YclrJ+bgfQtdvMKLQaF4q/OggOS1XwkFGeSpMg/B5LgKgPTV4rGJDTa7hVSE+yoPpuUj5v6GVK/kWu2nFQr9RcaZNMJOWr7dO1xbQRKXis0oPJ1lAhHxdupK869VfiHHOngtIP4smaVKPtaott6lH854MrWak6/dpEgq+QdeVywfNTrdz/Yl9MGR9VaukaQkfD71biVKPmWRFWY/B0tokx/PV/TTqL1+9HdmEKk1Cq66h8yUphjGj93t5ar/AIWq3nFUqctqvjGaO0H+wg1QyH6W3JSfiPIsbpCNUaL+Xq0TxGi0GoYFwrkzedeDqiVJ+16Nd5Emk8Iy08wxFbIK1FxquBULHl5H0cPudeZkOHa6ki/0wuC5H98SCyuVSUfN05nMP8loiRDgEGoJ4tFqmdSY0CgAdVmvz70SKv6KA09To8764TEPgwm5nEq/nVj3dCUj4fzXv9uPpY/aHqP5q5syeFFj+Au4TTVAzH+S0Sx6KQasKPmyR+dCSXaD/Yaf4GZvyZlK/lV09tEg/EFrtz7HFB/ksRWyCtR9Gq3mqhaXHbZqXEuuQOtHJn7OJq1W1zpHKfa9C6LAkQr7Q8oIUxn1aoLVedwfT8rqeJabOCXCNPpxdZpCv5n7n0EClfY63Ckwj8S87hSpafYGbHa4NUJKiqno7iwssUIiONfN1ubha/t7DaLxXUP3RP8AB/N++24+gl4/yT/Mw+knQftZQrgoUYlmUZiDWh4MyzqCEpct3+U6J+QdsP8AYSP4GqVcfMUo16mIk0FOAZVGPpodU/3H7piIrhHH+Ux71HUjz82fdY8SfPza7C2VlLJoqnkO1LedSR6PGW4UQ6nvSGNS/kHVaRCP5TrdTFfwGj+igFfU6uidO13cfsxqp83e3quCQlP9Zdxc/wCmLUr8T3T7iMcDXPyS0JlVmsAVPqf5pcEwyQsULMK/YPsK9R/MJkTxSauOdHCRIV+LTBb0SlaahXm8rqUr7QD/AGGn+BzW6JeWlCinp+DjvFSKWUnWp4jzaZ1zpSlYqNWq52qTpVrppRTxKwv5h4rmxSfJOjqe+MSCs/AVdRBgP5Ro63k/2JYPJzPqrVwbdtkKV3dwdE+g9S0iTVVNfn91Fmk9Vwr/AHlLluTpJcAkf5eg7pudxHJg40/MpiC1QI0J9P5wwL0VxSfQtdvMKLQaH+YTGeMBKf6w4bsf3pVD8ld0IC+apKQKJc1wkUEiir8fu0SKv6K3VT1Vo63c4R8E6uqkGU/ynjDGED4Duq7uDw9lPmotfiHdB/Gbj2B+yn7ybCDVKFCIf8hF2mzQ8E9RHwGie1Q4bk/vB0r/ALQ/nro+hp+A/mJ03ZpGsAinqHJZwwnGTzV97+LwKV9mjrcLTCPxLrOVTH8A/wCLwJR9n3ubcq6j7KBxLTvO+DGJP7mH+796W5r10xR/aLn3y59mOoST6/mLnvPyqNE/2Rw7r2+Q9Fzw/tj+euZPWRX8P83SCNS/kHVaRCP5RdbuZUnwGj+hgTX1OpZG1qRHN5ZDR+6eI7cwL4cweyXzLWVMqfgfu8y6lTGPiWbPw5bmdf8App9kP9Jb1J73dHXX2UtUy/ZQKl1guoz9tHb7ZZ/4vVQUr9o0PD4fcj2yy6o41YJ+KvMuHY7Q/SSih/s/mP296BxXUSPdwhQUFr04fBjLj/OLX+yCWVev38Y0lR+D0hwHqvRj32419Euoh5h9VauiEhI+H3TFcRiRJ8iHzdumXZr/AJJ0f8XvEXKR+3xdFWMUnyLomxiR8z/ov+MXqLZJ/Y4vnbjNJeL/AJR0Yit4xGkeQ7UPm7m1gVVCVaU8q+X2OK9i1XEair5WBjnHEcR+PY2Fqr+MzDX+SlyeINy6SU9NfJP90uS9l/NwHoPIdlwLl5YjGRpxLrBCCv8AaVqf566k9I1fcoH9Dbqp6nQPK8mTEPhq63dwJljyrX9QeG1WdfiekPkbilMcUuiSPyn4tO620y1xKVVJJrifRiVHTKn20en+h/MKVAsLCTiaeo+4VKNAHLJaGqIl4V9e0nuQBmp014Va5pZUFZqfmWmxvkHGMKK0/L/RYitYkxpHoHmeqZfsIat13LqgBqSfzn0+T/Rtmf4tCdafmUP6h3iT5TJUj+v+r+fuP5VE/rf8XhUv7HWbGEfHUutwtUp/AP6CBKfjTXtdEGhVRP4n7n6C3rqyGKFK8/gWm9slEw16Vf8AIKn0dE6faR92K/saGMHGRJHrwL92jQIFK9pSfRy2xV1pkJp50I7+/WEio5bXU4ninzfudxcFUZ4+pc1jdS8tUiwpNeHB1HdW5ITSZacCfV9fXOr2Uf3Wb6+URBXqV/yCl/oLZekJGK1J8vgPuWlx+xIn+H+fxlSFD4uiRT7qIv8ATJR+r7lQ/wBEb9RSVaBavP4F/pLZ1KVCNen2kf6DTbbnSGb9r8qv7jqOHdVqqipLrpA+Hr2Fzt55KUn95WjRHdzc+UcVUp29xtgVTXWmmtE+bCpo1ICuFRRm6kl5UKVY6cS02sBUUp/aNe1To1Wu10lm81/lT/df6S3hRTCder2lf6D/AEPsVEIT0laf4A6nt7xbBIirSqj6P+M3QT/ZDCppJJSPjT+B0Hl/qQR3kQlSOFX/AItj8iQ+hUiPtZso1FacQoE/HuLa8BuLb9aWdw2KZMch4jyr8R5P3a8QVRfsr4f5KmEqX7vL+yv+66hi4u4EyrAoMtXSxjTDPHqmgoD8C4LeVOMmpUPiT3qQKtVpcDjwPmktFks1UCokj4l1OjKEr94lH5Uf3X7tZoKYv2UcPtUxuG+TJkkHAeVfgPNm2sxyLb9avn9yM/tLWf1/6qgl/bi/gP3BPZymNQ9H7n4ggFD+alU/g/ethuQK+Vck/wB0Pp5nKHp1oeN/bBXxQafqLouRUJ/lJ/uP6O8iP+VR6XEZ/wAoPW4jH+UH9JeRj/Kq+iRUx/kp/uvGwtgn4r1P4B9eYiPr0IfvW/XINPKuKf7pfufh+AUGmRFE/YGZ7uUyLPr920+OR/3o/wCqrKf+2n+B9Iq/orWRX+SXybuMxLpWivTvzLSVUSv5JYRfRpuE+vsqf8ftuUs+ZT/WHWyvcK+QkB/UXW3vq/NP+i+m6j/Avruo/wAC63F9+Cf7rreXmdPWQf1P/W+25ix5pT/WWUWUabZP4qfMupVSq/lH7hvL9JOS6IoaaB9KpU/5T6LmVP4OGxQrMRClf9VJFzEmXHhkKv6OJKfkO1vuSRqg8tXyPD7/AESqT8i9LqT/AAi6G6k/wi/pJFK+Z+/QO2tP9LQK/Pz/AN8FxZnitOnzHBlKtCHjZwKk+Pl+LXJPMlMtOlA11+JZjkGKk6EfzUdoPY4rPokP9xyleqNGVbfcBf8AJXofxdrHe25TEF5FXFNE68f98Ul6uHmLkVl1agV+DwjSEgeQ7fpi2T0r0lp6+vbl2aNPNR9kMxIkJu+PMPCvpT0a7W6RhIjsm0thx4nySGizwotH99HtVZkx50H7af6x2E0opPc9R+A8h/voXbzjJEgoQ5DfyfxZCugDiofFiC2QI0J4AdqK6J0+wv8Au/B/onlfTfqp6/JiCHVZ1WrzUe1DqHHfITyylWSkj2VfZ/vu5mIy4V/5H3//xAAzEAEAAwACAgICAgMBAQAAAgsBEQAhMUFRYXGBkaGxwfDREOHxIDBAUGBwgJCgsMDQ4P/aAAgBAQABPyH/APboVXgxTmfcf9AKQFltZM+gfHuiJJ/+qVHBB0UMTz9f9k+Fmcv38vVZIqCcj5ux+eyf47qqTDB8k1tfG883x/L/AIknns4O/s6/4y93Nfg5bBSBcr3ej7sUJiJ2P/6kmbH8F/hzexb9k+blle1D1zq1wGSdUDIsvck/r4Ov+oiA94/16/6ktADETsoidzKY78nze9PDP48f85ex75Tn9cf/AKhi1BgxqOfqwWl5jQEqbw4P8afX8v8A850NofPN+ObFIf8A7EL4EAz/AKC8f1hGE4Pj/wDTocZB+slQusJYqKOiL8NeGntl/wDwT0vtqDQbv9RzSZ+E/wBBYvO9L/d7q+V/uhz8h/oaOgT/AOZzWa08p/8AiV6H8E7dUxE+H/8ATYg/ghg/R/8Agx52KX6oTnrwv4PzV0cvHL+GKT0UWD/H3X/GcGo1DBH/ADAle6HzL+73Onj/ANXll0fxlaFAjr+wCzznk4f5+6ZuHzl/LX1edITp/HD+byMNUv3/APgRxn5k/tRNh/8Af/VRgSDOT9U//R5CoMQgkqv9lAWVeW/1eR9V8v8AwIBK1AXcGfw8Pm5IcTk/v+qMB6DPfb80pfkcz8/9UcgHr/ZKgwQHj/8ACBCJ4aSvFL9kK2RXJ/Wf9VeU8bX8P5qB3icb/njRGvSDP4OT2VEQQn/6Yd/mWEf1/wDgeq3B17fBWqXS8PD+yzJFjx8qQjBtDi6KEB9H/Iz3i9wFD7UTEeR6b3ciAuf9hgT4YH9XOjoZvhPTV4sSAg+v+cgExg/TVFOefNQBLxPKeX+BWvUsNeHQ+6xN4T+R/wB/zXh/+kf4lz/t2Au/aTxThPtDy+Dec8TxHjpUB57Hld/9VgjMEtQoMy6nysuL3QxNy2GXz4/zy/8AOA1UUvzX0+ejMJNN6s3QgnX+Sf8A8CAP3H5VwAAeDx1GRhefyeXfKa/R0+j/AMkAnM+U2J9hVIQaeE/BpkgPTP8A2EleAskM9DPy2W0wjLCif/zQJICisE9/6iyvsXH8c0PzCzASn/i+iAKUAH78/qyMrNeUUABCAgAuDhxec0z8f/ghIxSEXL7LJSXMn3J6ofOa6uYPp/n/ALieYCEhvniswmpB5Hq5TlgTkx4d+/8A8IRS5ASny7jy39dXxr9/32X8wim0roTYVa9D90ABOR/0VQsIf6HBS2b4WP0WUkvT/LmuVrtL/P8AzLIUf5vn/wDNJRiLeIUyihCJOZGH/wDBpQBvQNGTiJcf5j90Dg3CAV1yMWC4N30zv1K0gGzkejAO6zoFTxLo+P8Anpdcl4z6oRhwBwFJkb0Fblx6VKVfCwdsUidT+6EYZ/8AjCksrsbih+RV89FzGaGh7OUXipcQftUiueMv5aiaPmT8f/hicvTf6wf/AJ0Qih/xvb/vJNCbj/IWpLgZxx/CUzJTPa/L/wAwQ2OT+lJYHw6SU6xY+TB9jNESStiByvFayfHKX3XpEpMP5/i+aSsR/dhUff8A2qJEPf8A2qi9YsgfxT/CP4fp/mxVxhzT6/2pRpOEvFhfrxia8L0n7GovkJs+yTrD8F9//kd4/wAeUQHj/wDNWNbz0w7D0l8j/wAmJMAdrV4AyTmP9DChy/Sdf2eP/wAHBHyaoT9G/l3j+rEm+bMZAe26Q7HAP9/ikc5Dz+b/APGHtDhp8auMpYT/ACynPiqy/gslLvT/AFtVOblUv/5n+SLX/wCas4SdP0XRq7sqa68v/AgQerx/nfqzYjeOZ/x+LDKAeh/+GE0Z9r0HtrcHPmHl/m0OAIAwD/sxYBz5csz7fH9VV8cWH4LKBXox+2b7qc38v+guFTE2OFWxni7/AFX6shBWZ1h/ooAP8aPP/wCQMc0C8SA/miP/AOYTM4A8f4j/APgMKB7hi+6JvOd86/H8/wD4VglvJqczg9f51TQHgHAFeCB5qhUOgL8FIfOT/wDa5w9J+xqaR9JH4/8AwM0fA5VsGu+Wx8FcGHw/zQ5d7L80+gKmMYDPisLJA+HaTyJhR/6qqBpIwO49lHXhv8LZezl7P/xjDJSxS0eH+z/8wqaTuxurwfaOH/mgKwfLe+Ij0poGCP6R/Qf/AIIFQVTwTzxXk9TBg+StkuumiSzXWD9Xll//AAZCEw8f15oD4rAVrIZ7n4bG5AYcRbxRB+k0qnGEvMNQUx6GH6qkpK2fkl8mP4izF8K/8PdZqPmAOl3yIPhoCR/IT+P/AMhVoiHksAXwz5fD/wDlvHgSr4ouJw+7p6/4JSUn4cv4sVXWGf8AEXDcd+CpgB4CyKPCf7soF+RqTPPQ/VkWbtZ//AM+rA/Hm8B/HFSGF/8AUXAN/LIomggDwVZaiWyBpnK4+t/Xus+WXhskpafBp+m4GOVQRf7LKJPp/tofYyU4YbMrw/4z4sVJM+TT+p/51sr+H9XzK/CP/wCSaCfif8OLDBkj/wDkmJBKYAXEjYV+iKil36f7ojvr/a1KnYJnXWVblPR/G2REvox+7MtPJf8A8EQ8aQj8qcwdNTCdP/ODtP8AD/dj/k84oJrzHD8xZGTv0fLwVif4NDoqHoE/mwziQpCaEvqa2eOOz4bN3D+bL+mmYQ0Dli/vO/0VnQlGCJ5svUTfxf3F16QvhytW6sgA8zXwkmfKc3S8H8z/AF/+SQaPkj810skPoE99/wD45KgkwV43KehdNboDCAfvaO/Hcv5f/wAOlA1o+S/pEhpzprkvh/4Pul/N4AT8Bw2W4QUCkfdsf6r3w9p1NSOu7KwwLy+FeI5QkJY5ABqQOmlEh4w39DA04IMe+hKo0m+BToGDxTTmwcmT9WIRfOX8Fn+soxDmVkJM/Sb5W/ifxRTcXAPiuwfJeVf/AMMyn7Gwg80xQQp9P9tBED9iwiDoRYP/AMKKA/J+LhqeMH5bMGfOlVYx6GD9VFKl9/8A4jV9V3Hj4stwaiCfGX1UAkfSnLLHsfJeTN/I6fxfav8ADd7Jp5kaeDKzvp9LCipPZQfkY5nyNNgPo0AlTR1oSHFyP1fEVE/mlE5bZ5DZgcB9u/V2M81XswTyf+0+xN8xv7ofkRQWSDPoz+7o2OvCLHIBBGWSV+0/9mgXgJqZHXTD933wJr9uVdHQ3kfRURySJOPn/wDK2ODHr7+S7/8Aku/5Yz+KZsvuGv4mpsgCPJVwkB/N5Y/lWn9WZLpbbM8v+nNaKPpQUVmXzFx+L1lWH80QuUh/ikIBkIAFn81TP6hG0XiYO/ufDYx+70r740G/mlsLByPZqJp0WvlmR7GebIpex/7D1XAku+Fg2Dqhko2zQErwBgg5d7qNQtGVAT+66kHTj8F+a/ndXJ/nP/ygENVtZg7f6f8A8mfrE/8AF/cXV5C+Gx9DMB4yifKZf6qxELB4yL6z/g2drzVJKzxREqIDweqEiTeZO/tY5+NE+fmlIuOcH3Z0fIer7oFwqdvn7f8AnzSNJ+7MHOhj+KqlJX/oV6+Ru2T2t/FgX3hhRyeOmX7o8APBn/DlYfvBB+28e5L+f4Kqn+8H/swiBcYO582J8aOIDX/8oW8ANI2d+j/Yd/8A5DBwYfIzVekB9JohzeEymEs7n4XPx/w+o/hXE76Gwo5uYhRGTh+LF7WbUPrmrT5MHzo9d0SXO5moW8wKVLK9v/Sqp038KSTHsv05qIgeR/tvAj7aH3oMg9BWBBEzh7f/AISxzqfa/uL+X50/09/5zhXQYh/wdFDaEAP5/wDzMxn/ABvXm4p6P86//ImJLX4/9LBCX/MPcf8AVywAzweWouPh5JT/AMUgPX/Z4F4NsQgfo/uwQjwS/LYvz25PxxTYp0BQj/njMPoIWTdyff8Ax/r/APEknoHz/s/FwdIN0MX8/wDBUJCVHJGLxi/nn/8AOejf8Y//ACEUwYS//JrjQRNEQzMf/iQAd7x+TYpQ6/1WDE/L+go8QXYJ/NgMD/8ACin+wfovIHa8B0igAGB/+HB5wfPB+Ob0dfKu/SfzWr0Txh+n/ctymfX+0/8AzeF9l3/8sRevmbALven4KoIPh/7sKwnR+xrhg8pevVBD2Dn3f/KWWO5v1/8AhUBfq/V4VdRj3/8A28yFA0no7iyGjoCYD0XyUMJX4bESrwMi+z/8Cd8U8Jnwn8WIvLznyPl/0FASvRfYXYBOcm/BG/P/AOYLPH4QqP8ALX8//j9bTEv6seu/Z/Dm7wBdf9tggD21CeOhH/4ealUoq1zvzz+KY+Hg/wBh/mx5V5/9Cx5X5/8AReHzcH+kfzTDlN73wXghUMH/ABEUmEoSm9OGv6KMoGXB9Nj48mFX4/2/5wMEjluX5ert1CeXk/huFs/j/wDhAD+BITGU0E/8toAQf/m6xH8wj/8AACGi1o0uj9jQuwU0/PFF+UDrw48AP0bSvW4fBJ6bMcJyV39PVUkGHcvJ7f8A5DwBpo7Cx/0wx5VwCqYY8CAZPX/JDXCeAsl+Oafm2yq28+7P1RscxDXTASKsnJx3L5fRXHfB49PTumu1nDJ/o/7uug/EP/zx+ZG+xP6oYn+zH54sAvuv0Fg/HU/wbYOfPZ+VAEGVYUBJzjZXX/uYz4A+TydNZofJIoLXA35PZ5P/AMKZbwR/giv8eqZfAnij32p4LY+Sz/zc9bRL2+Oaj8AEeheUoauKNcEnqgBJHh/6fGNXSRn5yvJQM+X34FPwPolMbdcA7bz5f/wbrA9+MP6af/nQ7tmBJJYcB6yx/wDgLuvxQv8Ar/8AACaEoyJuuHX+2nHpF18kc04PAOPyeVBPK4T/AKfmk+uT9f5/5lIacAniNbHmMcp9f8jkJcFcazzxeQ3h5fE2So2EsAsdHN7GrI/3/wARPA5Wkp4fInry/VWMyao7e+KdQhwwHf8Aa1SUlef+azDmbyyxL5YV/bXNANgoj4hH/wCiOD2QZh9VSUKxP7Pif80BJ5T/AMR/3jDCHi9eT1dsgjz8OR0yfuaMpMv/AEk+uLQSSPDQ5KQYD1UshfwxvPmt63bkR/2VV5JtgiGj+AlAlx5Fw/UVEsDlb8orZPvjXiy7gf5roiNTP5Dp6h5A5exwev8A8H+LBD+v/wBK8TQfa/8A4PNg5j6Tspbg1Mr55H1UYfZ/M0MCvp/xsfgsRHOZikCgeaPzK9gnkL90OfjP990fnP8AfQZhvAX6skAPN/MKq+OJ/EXuc+sfGT+GmQ+n+ZpAnxRT+T7vbyxceg6//D8Mfm//AEoHpaj+R/dRhn6JsHv+P9Vx96NDLv8A6DKu0KWCv8EZ+rwy5Pb/AD1xJcf7Q3EY9b+yi9D2FcxHpLwqPUftf1THnyCfrdjwXEg/30xIZP8Ac5+q5cO0f/wN7mkOm/ub+tmX8l/sI/1VCJBkLKv9/wD6UIEOYEH1N/XSlAcFL+xki/M/n/8AFKcWCyvKXjL/AJeaVKn+Xd7R/K1V5/8AxAo0XApl5B8u/s//AKgHKV/Hb9qfctEekvwpwg/KyiHbS66lEUoUcicn/wCUY3P84fnguoMETz/HH6sIr4f0M/VCPL8IDzH/AOojUvQ2lOcKWwMBAf8AIbcgDjr9+/8AgaaXrfK/1TcWDoP2PzUhMhH+TyP/ADZnp/krZ+iZyXyvn4qIg8Hwfo/5xLqXn/EX/wDVBLVXeGoSVH09Lq4OyDB/xtGFhNHx5UoJjef5vp3fAVT/APB4/wCKDk5GwOa6P3em+KEYf/q31Q4NjxP/AO3v/9oADAMBAAIRAxEAABAAAAAAAAAAAAAAAAAAAAAAAAAAAAAAAAAAQRLtMcwUAAAAAAAAAAAAAAAAZuMgCFDNUakAAAAAAAAAAAABTvEf+0kAMsB4YAAAAAAAAAABWIEqnM4CtGHAFWgAAAAAAAAA4EF5OjVVA+kCORXs22AAAAAADgARVlJbm5GIwQkjMAAAAAAAAY5dYALFCQhgA4gQsAAB0AAAAAUkOkAS1YPQW8GgNoAACWgAAABmgapBcN+Cbkihf7oAAATIgA2ZLJYw1M33idRnjZQIII5IIAAMAABCyk/8EnBWGl/eXpHkAAAAIQAABUqiusaAPuVAAdOYAAAAAAoAABANQMdFABng4TEIQAAAAADIANjgUAAB10GI+MnEJMAAAAAAlPFkEvUAVqAA4BlIMEAAAAAAAAADLNAPvH86E65gBEAAAAAAAAAAAAVWNBF/u0IEVvEAAAAAAAAAAAAADQeogAA0hWAAAAAAAAAAAAAAAAADWAQKIAAAAAAAAAAAAAAAAAAAAAAAAAAAAAAAAAAD/8QAMxEBAQEAAwABAgUFAQEAAQEJAQARITEQQVFhIHHwkYGhsdHB4fEwQFBgcICQoLDA0OD/2gAIAQMRAT8Q/wD0Qi5aeD/+EsIcnwsTqdiHf/uvO2wr7rCx9JCx8Sf/AHrC3BYFlnu2WOSLI/8AoviCDPwA+I7HiWb5k11bo5Pjk/u/raqvuQH7Gv8Aa3GC4PnAcuvW/wDxDIla83zbfAHQ+i8/sc/0tpR+z93n+luAfsa/d4/pK79hVz9uvT38v/c/6/HwQR5n4M5X7g/vbC39nH7uH7bbX3Slftwf3l0wPwcP2xMPe4vxv3Xj+sjhX6dv7Z/Wcr2h/AUia5HzgM/3+JNky+qPMdR9VA/raY7/AEP93X9bU/yn/o/zb44vwf7u/wCsBJX5r+avx92SsOc4B/Z8/wAbOLwODmju7xvCfbu0nPFQ7/kf2Ljc8Wtx3MdfU+Pj7SesTrk4nj6JvH5cwgcgn6rr9n+/4OWp8fUP8nZ9/stlqej+v6/hWRmvEe6H0OX7G2wp+qx+xr/a3AT9nP7uv9rFJ/zX+5aw84THnqdivOONQ15+AP0ZGhXboPxp2H7d/FxUcG/kc/hd/ayM9Zmj6EGP8P8ANhhOcGOvkfdP6y3n6DlHAcB/G6wF8ICZgNcfTXfylNBchro6f3f2tFcj+Bi/3fh2wHvHPrb1j8/w/X0v+BU39u/6Wyh/LH7vP9LXG/lr93j+k+v2BXP26/p5jGjgdCbyuBMSHcdQnw4cf6+8PmYX7OP8RN6PP1fkP3e/xv2jGEqmsAATfr/cYRdL6BP6j/eJ6h6Gh3p+of8AIxZzQIacusHd+31i4z+eh/on9bq6Rw5A45cN455sOjmuTRN+hxvcItcmqw3OcDXN+5Ct4dDgPyP9vNse/Yv9rJQP1XP7GtjqX0GP3df7WS7vryfu7AMD3Dfyz9f05+v4Vv8AlfkNP26flAKG2b1y1Xr5/pd7tp9xXP8APc3tqDXN7+A544N5u9ML9fqfjT434z5bECR7dG9jrk4Xr7fEDR5zseGr+Dn6b9SVlQfdn5ds/iC/CA6Pr+a/LAmIAaXA4ALIXD8/5Of6T8w/Y7/V/wAWc/nHv9Ov6Q8o+gAf0/GUno8J9SxRvc+j8r8vj6n5P4N7cYPz/wCF/aY4eaHMT6dcOkbNzu5vPT6/xcoAqV4x0w6gVqETcPzjpg/TP7W/fpmv83PIPymP3xYgX6DX+j+8mAv3cfsZ/uy2fsB708k/Hn9ev7I/AyI583rkR3+GOEQYYBh3nH5vcnn3UHP36sJB+7r9jj+thqP7P6c/1hzc+uG/u8/1938D9Zu349foRfuh/rzR5/QF/tYKf1Hn9DX+llL+wYfu6/0LC0J88n939IzDD3LLPwayu0H4zx/MBz2q68Hf0bGXT6vf6cf0Q0f0AA/p52HfWF9NZ5v0lyCF/wDNIYeH1Q/S2M7PH732TP0+d/8A6pvgZ+C08P0TZBZ/99LMmRMjUkf/AIgnj4z/APRP/9oACAECEQE/EP8A9DGuX0LVsjTxTv8A/BxjrIQHX4AFsQmw/wDuOPFDu09Er9bfvbNfJAfDY/8A0AvNjxV6knVpZM81mwiw9xjvx/8AmEg746/KR68RsuPAzbt5jdcnVlhcLCcH1eH9cufH7Br+7h/e0QcGr8Y7wYd5+N/Hi1y0iWUG9WH18Z9GTxXhPrnH79XPmfu/Y4/rZyh+eH7HP9Yr+cA39+/eH8x/Z+IN6suZclh4Yvuz410f2F/tZaI+7n9jX+1kq/YMfu6/2sF0Hymv7uwYDw0PnPsHMLJx9en99/pDkTpPwPYcOP563/X4sHfPiT580WX6Btkp90s/p3/S63+Af7f8WSmv15f06/pMnD+Qfwf6ImWb8oh+/wDmfO55TcTOuc5H72RfnOXr+A/eYug09aZ/gwydBjvkOfs5z+ctnAj7Dv8Ac/t+B1xjlfR/w/P/AAsbSYn4dITpMDk+rw/rlxYH0Gv9H97EUX3f6MLch/AEcGnycnEO5Leec1w4+Vl3nrhyfOJ0n36+ZzdMr/Om/sZ+9pgGbuF+oqJ/JbvHhDphy5/J/pfmm3gzS9v89Sv8hu7qtOfrnEJFBpc74f7H7wg+L/A6H9z8G30CQ00fTO9Pj9vp6/n5Acfv1YCB+ev7HH9YUXP2f05/rC/zmc/v347eh5PyOcBq/aEsnZjg/Jrz/v7S/wC6D8tf5k4xMPofBPsM/pKXIAOcojo59P8AZLH84h/on9pRznnnFfUfo/8AEkAuFFxOPq8fzcqv8EXj+u/0u2NBz2PfHP14tIRuODEc75efpPTDTgNc+NX/AAyXlPa8r+voWag+6FsCr7P9uFsgfctf2MLisH0OH9Ml119DBPz/AKfpx9PwN8omP5jj/b+s85aNzvc4Dv4uj45PuDj+NjWixXDc6+V4+v0ugVD9Pv8AnH7fO9ZaSsHRh+h3fufP952Awz4e2D+Xj65agB/pvTf5kXN2Hb/gPiUBiquBy9q2+Cj4/wAHH9b++S/0f5tQ4fpw/r3/AFk6l9V3wG/hBPickGh/dHwPz+fo/mfgxg5yfyH+Q/eFOGiznR+v3Mf5lLvehvx2+n8xbNgcDnTkXuzbBEczPuc6n12wBv1xcDsPg5f2NtdT+rw/2/2iUQ+zn93f9TD+fVfRzfXIHH4/snn90/x+DVTg674R/wBSRgnXVeet5it/ME39u7QEPsYfu8/0tYE/d/Xj+k0/lm8ft1/T37p1kzzgZ9YLp+PH6hH7C/78wlH1UP72kMvoN/q4f1jEEfVK/sYf3jebH4OH9MlWrfwPyW5kHcy+Zh8z1L+NiRR1eOg6Ofj6loBn9Bn9e/6zxq+q7/ePHiZzfKeHmDPOkTfD5sG8suQ//MUm+PyJPra7J3psgfi3usD45j5PnX/65Oz9ktN8Ta+tn1WvrZ9VvEp7/wDvnLlsg78A7h3q5rf/AOGI68wl2FP/ANE//9oACAEBAAE/EP8A9uVAlp6SAgA7USSecySjP/A5CVVgA5VsfPENID5ljOBoJJHf/wBUKnFnaVGGQYRk5lRHh5/5BqITwUZdcfgS+KRdSyA0CaJ5vimknoAnJ1H7O7PvjYMJ5IiKHKrjGIB3+/tmXrev6uP1d4fI8n9j2WSmH3EE/jnHwFfBzh+wRkJnSsRBR8bTgEifJ/8AqQsEGXaDB5l+BZGAfMSbdczOzXMvkyJ1xfUyeqw3zJDg3A6zDHVbiy/l4HgMHR/2OjCkxkcflqJ2J/62ooZZIhwlHjZzbGWBGsknqu0pl7J6HA9EF3q+xnX/ANAP4PP/AFY//TtIytCU0CGrloqb4H4AM0wEPCMl2jPG4lt8w/8AUf8A5a2yB+Ego7XB9lRk4Bl0+dHuK+pZF+kwfxNBzVcxnBBMx8wtM/8A0xmMrQCA8mN+aQFmSJjlc6YoR8SJH1WoTQlfKxn4/wCm520Gt+G/IRHupA5MoPov6UXIeSWfopBF7TP5FYQ91C/hV9HOCU27QLOMfI/StaeMd+FIb9R/+HQMN6N/IkfVeyQR2En6/wD0xSlshvk/1n/4G9GLivoNUxIWV7SCffL1R0apGX7X5KhypGgwYnrqlnDQdCeN37siG6Cd+K/FZkGm6n6qfI0bj+xYPRwYz5r8XmrsomPc8e6POMCJOTB4oVNsoiX73oUNGkMB6J/D9Kl9YOKZwB/6kiebmsElGmDoPtXnfjdHCkRskBaknp//AEcspMTbYxe6A4e5/wCKjNVJaJ7w1kpWPKy/t/4uRAAaq4AHdjc0AO74EO9eqN8IEvhKC65JfVVdiM6XTpnuV8VNVgWFeR1fcfaxPCctTvgPxFEi4gAPx/8AgcqlL5AR+mwYp1V88h+ZoYrYOTzGkfE/aqkWJAzoF+gI8UZnR7TsgTfD8NIihXlOXij+wKoZ0I8idP8A+AyHn+FQ/wD0cTDVH4//AAYjDgHB2nAdrRQsBCgmdyj348l5Y3INRDgiHTD5st0GOh0nP2z1QxlB5joACxTJrECGFvOulIRof+VRPMP1cKw4p5MDOf8AYQcBqKmO+U+qTHBMZnyurw5UK3CgYVEwT/wo0QaL3INScR5U6c7X6+KdKCYExLmSOCfpYntEQRTG5PH91ZDAuTpOEek/6ZHzYP8A9HgUg+0lf1H/AFjaZfgfAD98FnJWZgORPyzg7ogIo7GUyc4+jvaYizKTfJT+Kf8AP05BCDwdtXf7lTsTYCHoOe6MXCJUHhjksKu3AKwHpf0R/wACh8rAdutDsJaZGpCMIwFSXos6Hh5q6gE7zwvo32+P/wADLgMJCPkj64bibB3ZwcJ/9GzmZ8GDycs5OvTUJsyPtp5Dj/hRRX4SBD7irpaBeQPMn9XobFfohoJihkBD8f8AFivuQD/ON0qglsvoP3YhEQSQpM1HP/zUYjSqwB7aRSlzWPna8yaGp8wlfque2nSwVVWf+eXKgTyr0Bq9FlEMl6/LvoHb7bxYiyl9Y4UwMNpjiwwkAFSSbfi03yR0cxtksn/CTiZUKCYsGu2b1QEI5HyYLzfLk3LSVOwKP+RxwNjYI3WZsLAklZmR11MTzZmVcGTlMQQnr/8ACQ4kaQ5/+3l8kTynQvgXE52jFHfW4TuB9fN8rFRDs8jyPY3DFQtv0FTjNhyB7iK/ixmFdAjeQfgsWlzohmAbSeKCagvLve/805iTIjD1y/atA6VbP2bLQTkIR2lf/mnAMkVJCk0hirON/A4H3J/3sAlcA5aCjCoGkL2wvgzps6DzIr6cpme1T80VAWH9r3RklIJfa1Taq6CCs8oj0l2VHs7+yHCaJ7S0Elm3lE9p/wA5p+2FlHlrTunAQNAOADgKiMuX+QStuWA/76VUuA3/AHXXNvFqMDsSxykYIHAWP/xHhsuQH8nT1eGLjkUeekzzDdvUfQaG5dJ6yq8wwGnyoVerHiNPv/ipQieUepQfReo//AJx5cuE689if3/+ak3W644OcD4H5f8ASw9UeR7wiDxndcV3f9kR0yHgF7oOcDwNv/B4IK+qMg0RB/t9n4s8osaMY9jyVJUGJOJ/QoEsjondK4qogB2rcynSZGIAZjuJpeio+0omUeWhD5rCL6ZR92IWRyK/gXYh4FPiVQrrWmfBOPupN0Mb1HIx4aGkAU+FQP4UOIRRIj2NUEtRFWIsPqbAlHqZooaYzj9NTT+JA+2D9UU0xK/SlVVTK8vn/wDIYMlHeg/tTDIgH4P/AM0C4Bq1IOqIxQDIDkzr/wAc1vmUwB7Vr2V+aMe40OmKziQ5+CntYfA+bx/2MWUXk8o4kj2tjAAIFKCO4fka1xTyaJxqx49teAsdzoZ8g+nuoCgLCF2274IPVjjf/wAKDR/Ynsz5M8MnqviRhIxwYDOBA6KIwZ+knI/dVHO34v8A2NQosoI+13/8yWDJHw5/opx/+YCFa1p1jgfLBVEGIJG+D+Cqik6K8r7/AOR09kJQYSfnCmLRT0Cf1M/QoFyC9CX28vt//COqVfhvtMCoZeVYLAPZ2vb1QIODAOADg/6jlYqjyoD81HmGm/DOwyyeVPsYpPXI3HjRVb6zIP2f+AuFVglejm+HGaBMbxhS2HqHBPpP3Rmc1kXoB/mxnw4hPtBP5KORb+kPgdj/APkcQJekxvRPKiEdn/5iaWCsscb0Z9T/APgBPKfH9hCnzWky+4xHs5//AIYMkBqviyDAZ+WiDwyiHgL2U7BioAgA8BRBBKoA+25JhZ5+RaOkyBH5X+lmHeQwD8H6vZDH4CMPxZeD+K+X/gFUizjAHla+ymuf7TPzTdLkD8qV/VN9Ro+fSPkppvYxAjgKS+6bRknCMH7GhS3AlzyGBM8Vb8OOHQsnIk8Um0KqSkMfsf1XOMUQjw//AI0BIShJy6XE55PHybRk/wDyzfHhIOEoQsl+/wA36fZ/w/YIvKQfzc1MOyUpfKF92eice6gvx/2OVmLwd0728AgpDSMUkqWw3Okr5s1AyCA+8pMWUzfhhVURV7efv/8AAtiYTJOQ8q5ZYlMruCqmxEAzoO/mqGBEQBhPkiwKMTbgQ+psgCqUyAHMT91kWc2H4hUpcxWW7Cg+5Iz8zVdxIPDyW5rCf9AJI1+RrnCIj+GkFdIzH8rP5/8AyHZEVCJNUmGC9XD8h+P/AMsj6CEANVfBYmEd8T5Skz5utgGW4x2XyMuAnQInlCDDTHgZxhf0ugU1/ULNDI/Ek/LKVwmE+6DKWdrkdKtIKl+W+/8AoYne43pz9KuQY8OhuZJkX0O4+eLzQCeAE/RtDKhkAHL5XuraumRpQMJ6snEiOBaLwWjf7CABB8scvdhfGE6J/GH1RxwuASq9wGe6bCCWL/h6sdokkLpX3j909JIT08H4rN3XGyZWea/Kp81HFwL8kftf/wAlyz8vXyfJyvNMoWbn2PhHH/8AJcBRk0Cq8BYBjFRvEEmPu/4b1nL9UjRhirBzxlmJDC3IpDBRa/UkELQ4z9E0Ijoxx47Vi8JX+cf/AMH+y8kSyKGySxTTL0px/wA1JcXnR+yD7oMvWAAOgoBiSqQ8ucfujnJXEVj5nuhxTwyako8IQE0QZtaPrHyVBNjaoeJiSn82Tc5RPwmNzMOnz4fRPxW2txkDKB5ykl50INMokmOf7QUJFXuQ5/WjZhL6VfpspBdCmCWRBNkBW+A19stEqO4yCJ/RB9n/AOQE4XjMSq/orqMSTzg66Pumn/4vZXow5VgLECNhL4kpT13XjgIyuNlTaMmOFaJkr0kb6Mu1VsXhzbKPzx+6ThKcfgG0qb0vhhn/AAyckPstIMZsEuo/h/VaA2nk4T0mlHdOj3lPsVSZz/BwT4dpcQukp8PdfwAQIjj6q7YhZB5HaQuJXDgeUOnxXBRGr+65CfMMfgZroWjkwtXSN5gWXJCfGzXxSsTyU++c8MpnjkXKkJYkaLsziBdD1w0S6yOID+1MPcykPwlWhlRiQXFPK+K+4y0oSq+f/wAENDsbAMz9FmohMAx8c1CHQWCfFOwdqzfeUuVIAgPgoUQcf/hjRqUA4T7VdJTGilDGnIZfuOKuSdt39QqZzMqpX7//AAnMPd4iRRGEiw0P3YoiCBkYAcsWEtyXvdN5rFWaPSbpHS6WTfiBw+YNYvP5P/qhM2FYS+4IfZWlkgTZY/jPqPFRKSvSyf6pLoDo+kofFNq3bf7scQeEZKhhJA58TlJI1/nQDIdSuA9tn+KZhueBMb7sUXEnuJgeHM9U0YgT83lAvzmFPpUwk9KcC/EqWFdRX7db6zlGf0qlXpKpSIMB5+r0oMtPSm91kj6qKflf+hmPhSfoqBBXAx8tAANDAUfRQHXpHkiXEJ5ZogvCwokQc0IA8f8A5LR8XshTA/8AqVZQ8+P/AMgju8xQCen/AAfNjQfn3zj5g+6jUtWyzTOk8eEDFIkIM95fwKfVi+kNmOATwuLHng+KPbYe/wCDI2YE1Hc7eeD7KtCMQh8uA+a0qwCgiSKIkTuzNE0AwzMJA+6OLAs+N9fU0KFFBAwOT+Jo8lmAA6TquaHIyHy0qKrTSdi3EnR5romKGVXlfdw2XkIMh5RLlSo+z/MtICDC6+6IgJXiL4iyI/Ngp/MgnD4OLH20K4N4OqhJIEiASJUQ2DB8zyFuEJLP/cqT9Qs7Op582Z6XeHKtezn0yz/+SzKR5HhL0vz81J66vDn/AOSkr+a5Aif1ocIAuiEJ+LHssgoZkOY91O7EocdDt8BQciEcj/KmvtqcfYu9RiJSjh3dsSkEcQeAWB+VhiP1tDyXZ+TJKPN1HCXk9NY3iHJ6aKB8MgHSuqtYjpJgFPgjql8E8DH4JRVfK6D/AIV6GxVlX/gSxckxAR+eLA6wP4RtCDaL8pJdvsEgf3UNL4EB9H/ENvj24/ophwJfQsJ+BP1UZlnnwB+v+gy7OVqT+AG02IrQAEPUux/+UkUXgE5PCcjWwsfMefwD/wDImXf/AAIP5LhcedAQ+po3bZSIU4Qh+a2m6RcfgYV4b0lE/Foei4AkiVOwU+50IwQLG0xezVMZM8vUVqtxto5UGT+0UNowHx8tleCBFH2bWivVSVXtf+4NWEG/Br6vVj5k/wALHb3lfqkQmHoSnccUmxHH8wYSd9C09LY4gEg6FmKAcf8A4IroSd5J9L+dATJ/8o/xxonvmgoCVwDmqP8Ahg/HZvLDQ+0gkx2uV9v/AOW2OWXDlIYZ8uB4qOnm+ThPKNHx/wDkDHq7vf8ABD6qbm164/Efy/4axUq0kiRIwOTqbwthqGg/n/iYKCCWYPH/AE0x8Cp+it9Al/XfwWRSa4n6D9U4hwy/wY/SiUyAT+ij/wAAKUIHRgvnl6KvwDD40EDyTDx7L/8AiWU/zwl8AsnxSgHn0MA86+v+PQWInIjNJHAroiPwgfP/AOaoDJsbRA8dSv7H/wDIk04SzpAHlPxQ/wCY1ICBOiHf/ZeP+GsHL1WhDG3zYF9gkED4gT90GFhfnOn9tORdGs+VLQ0ADxYPH/eKCAWyeMHJE8rlcGyLTmKdcMOrzkUqwAAEAH/4VkFpOnSJ9l8WUPiQR2Pwz7VynUnxX8Jfa/8ARxC1YCSPvPkP/wA1gFy6xMY+pB/H/wCW4VoxfyEH5vhCRMfv/kphRyJ+Xf2KCWi/3pbpLRQ4OAYl7h+KvxhDt5Rm+V9XfpIJB75H2f8A4TdfMkn45P0VUU2czIzmdS+m6TOZZaQbkuGIOgutYVIcqBLB0WWdjAZyuLhV1Wqa6PgCby/FCP8AigK4VTULOX5fwRPgvdMRwodkLheD1Pi4Yf8AHrPACVXwHNW9Ld2AfQdgUEkMUzBhsep//M5m0fDP9XQ1L8qf/wAQKwd0E3YP/FKpRrsAw/b9K4sq4hY1CVYPBWO5JNTuHD8UJxsCA+rB/wDgPhkBfusjSIm7BrTfDem8QKOtoYgHiz/l4utV5sf4eKo8oFh8ihICkkPlPI/a0cDgGQfB/wAN0ZRojiNUye5Oxp3KXxZ+UQsWMGwilHXh0SNhIPiHy/8ADRiE8aMeDzw1pCnztWB2SAeI81d3HNJmD4OfLL/xpxqBUsThCmw83nnocj5nh9RQAQHAf/m+z1/L/a8f9PFRgEr8FlxcGO84/qlio4EDmVAsBe6pSY9H5r/+ShkBX5LC4I5CvIS8CvGNMqQD86dSKfYyzUGB8Mdeh+n/APGoCuRWoP3B3XCnqw/FgvqomI+AaquAVwK9kKj3pgfX/JCHlwxNDk8RsRZd9O/SFACu6EFMvxRiHkfJTJNAL801+6OwpTWfONy98FUFWdDgfU+EZTKkZcZBIzo6Lvj/AKzsNciX+9/+eI5g/c/rjZGo5R91H7V5Vciifg/dhRkKZf1/ZfGeQPsUtMAA6CpabxAisfVUSSvbv/JjTqt/F8lwZx/VcllmvIVbKPGmE4mm0C84/c5868PJ3Z//AARw0yLkTiaK3ssyxlR5DKmfbPxX0z5Z8iakktg/838mYYgQY8TPENdJk4AOnHoNf1UrUGPFIcwe6bQ4gyI8In/Y1oQg1o+AnxVY3VMp1Fwv29XuaiAUwOCDGMD3ZN8SkeAcr/8ABILIT7gH7CqdOHj/APOGEQTdAw5lCHfAAfqgGT/8BGYK+/8A7rDPH/WBPETEThH1T7hejEiTwnX5+bJUMyB2P2W5yd0S5jnrg9jvp9U2JRRIjwif9BOjEMUKPrHsXkRzz6qNNUdMg0E8ce7F2oRnjw/nv/jkZY4dAHeP78WfC8ds5wJiyO5exYMAG7dmiksvtYejP+HhGqIAO1bv1Xqo+h6/KkHskCaj9r8U9IKgLkHt+XxW4LlOqvl/4DdPh3IC5Jeau034kPzFcgQIJhnADeHYCdwIP/0RXki5YhfBjuomlWf4xpM/4RE/FonswBhZGMxX/DGa2YQElnK3gO/0lEAaduJhxJ7CPTzYJhlPfITHwOdlLEHWH8PxUw+qIY8giI8IlhgEUKUBYa+NpYPcWDQhkM6NeGgzCYj8EH/cj1EBh4louSQ5B5f8nZef93CFE+oj1RiDVEAHKr1eECBA/tE8xL6rtuCE/S0GOl+CnCUngNjjD2geizltzDYMCQ6Z5X/8HT3/AOldIPMafS/wn/UnmsMcVYGZ6SeEawCITlcLyvufxdRLHW9AX4GY8WDsM9ofCCPKUVJwlOdsh9SXhduIheqSxc6DPkYliwvKv4o2FelTjwos+Ca3o3wIP4dWWOL6dkD6loJzx3zs4pPSU2jdleFP0ET4qgkoCNkjC/f4XNsmoPPSHoIvF6n/AJ8erwCFj/8ASmaNhJ7BfqhTZwMn4goiLUDH/KD90audgBHwYf8ArQKnY/IMP3SAcCND2hb81gUkhif4UwU3nJ8RRJmjSASEj4YX8VZndP6KaM9gSPzFxmWpCnySsvNMoR0x6qtgMNKdv7MNGraIxD4AL8Y/da7csR+BYPr/APA/h0hQEzmf1UxkHwj9l+lQYf4tHqcKSqhkz/8ApRyEzAYhQGGKUARhln0Xgw+LKuQx73fAH/4SDyURKR9XFTw/omkwb6qfrXTUOgnL+7WoSlfdM4vH/ZoVzwHKuB90D492jM/Lf/qAR0ld6s+pWg5DFEI/DRZFQWyPSP5rj86ACVUCeMGKYg7YXhDyJD/+UoIALwod9P5DcDIBxwRKNvtU90gTkn0YlX2KFYNQ8jFUJQBieKEf/qFo7dtceNPkaHooCQ6AgsFyj6ilGfUYXmHu/wB1wpwdH29r6S3JZZwYdcx5vlNiYz7HwvHIE5vP1ZPyBzAdf8HbllauoDlHwF7EBhU/sZB8XM+7p7s7Hb1QhdQ3levGDy+v+QWCZj/9SnBcCRGH7OR804M4PNlcRjENWYSk9+CB8+V7Xf8Ah0r31CtTs65NsPaKhx5zju/DmhKRlwg6r0OB0f8ACthQEiPSNc6Xc1wEIlBcSSJtAmAYHg//AFTB/wDgXKg8Vzz5InY//b3/2Q==;" vertex="1" parent="1">
          <mxGeometry x="624.11" y="248.5" width="171.77" height="143" as="geometry" />
        </mxCell>
        <mxCell id="b8CE8_dELRV-wutxg66u-55" value="Student geslaagd!" style="text;html=1;align=center;verticalAlign=middle;resizable=0;points=[];autosize=1;strokeColor=none;fillColor=none;fontSize=14;" vertex="1" parent="1">
          <mxGeometry x="640" y="220" width="140" height="30" as="geometry" />
        </mxCell>
        <mxCell id="b8CE8_dELRV-wutxg66u-56" value="Student niet geslaagd!" style="text;html=1;align=center;verticalAlign=middle;resizable=0;points=[];autosize=1;strokeColor=none;fillColor=none;fontSize=14;" vertex="1" parent="1">
          <mxGeometry x="630" y="650" width="160" height="30" as="geometry" />
        </mxCell>
        <mxCell id="b8CE8_dELRV-wutxg66u-57" value="" style="shape=image;verticalLabelPosition=bottom;labelBackgroundColor=default;verticalAlign=top;aspect=fixed;imageAspect=0;image=data:image/jpeg,/9j/4AAQSkZJRgABAQAASABIAAD/4QCuRXhpZgAATU0AKgAAAAgABQEaAAUAAAABAAAASgEbAAUAAAABAAAAUgEoAAMAAAABAAIAAIKYAAIAAAAhAAAAWodpAAQAAAABAAAAfAAAAAAAAABIAAAAAQAAAEgAAAABSXVsaWFuIERyYWdvbWlyIHwgRHJlYW1zdGltZS5jb20AAAADoAEAAwAAAAEAAQAAoAIABAAAAAEAAAGPoAMABAAAAAEAAAGQAAAAAP/tAGxQaG90b3Nob3AgMy4wADhCSU0EBAAAAAAANBwBWgADGyVHHAIAAAIAAhwCdAAgSXVsaWFuIERyYWdvbWlyIHwgRHJlYW1zdGltZS5jb204QklNBCUAAAAAABC92cXUIuqQyHDh/udne7qg/8IAEQgBkAGPAwEiAAIRAQMRAf/EAB8AAAEFAQEBAQEBAAAAAAAAAAMCBAEFAAYHCAkKC//EAMMQAAEDAwIEAwQGBAcGBAgGcwECAAMRBBIhBTETIhAGQVEyFGFxIweBIJFCFaFSM7EkYjAWwXLRQ5I0ggjhU0AlYxc18JNzolBEsoPxJlQ2ZJR0wmDShKMYcOInRTdls1V1pJXDhfLTRnaA40dWZrQJChkaKCkqODk6SElKV1hZWmdoaWp3eHl6hoeIiYqQlpeYmZqgpaanqKmqsLW2t7i5usDExcbHyMnK0NTV1tfY2drg5OXm5+jp6vP09fb3+Pn6/8QAHwEAAwEBAQEBAQEBAQAAAAAAAQIAAwQFBgcICQoL/8QAwxEAAgIBAwMDAgMFAgUCBASHAQACEQMQEiEEIDFBEwUwIjJRFEAGMyNhQhVxUjSBUCSRoUOxFgdiNVPw0SVgwUThcvEXgmM2cCZFVJInotIICQoYGRooKSo3ODk6RkdISUpVVldYWVpkZWZnaGlqc3R1dnd4eXqAg4SFhoeIiYqQk5SVlpeYmZqgo6SlpqeoqaqwsrO0tba3uLm6wMLDxMXGx8jJytDT1NXW19jZ2uDi4+Tl5ufo6ery8/T19vf4+fr/2wBDAAICAgICAgMCAgMFAwMDBQYFBQUFBggGBgYGBggKCAgICAgICgoKCgoKCgoMDAwMDAwODg4ODg8PDw8PDw8PDw//2wBDAQICAgQEBAcEBAcQCwkLEBAQEBAQEBAQEBAQEBAQEBAQEBAQEBAQEBAQEBAQEBAQEBAQEBAQEBAQEBAQEBAQEBD/2gAMAwEAAhEDEQAAAfv7bVttW21bbVttW21bbVttW21bbVttW21bbVttW21bbVttW21bbVttW21bbVttW21bbVttW21bbVttW21bbVttW21bbVttW21bbVttW21bbVttW21bbVttW21bbVttW21bbVttW21bbVttW21bbVttW21bbVttW0c0H6beD+fcn0n1zvhPn+f2/wBDN+doF6P0Z3579U3L9vb5S7zp8P3HUd51fO7bFdtq22rbattq22rbattq22rbattq22rbattq22rbatmPzxj6n0J4f8psvH/T+84T0aeT6fzC+9u63XzfC5976Lo8P5la/W6H5vk8P1Lz2fX8o0n1zynL9B89elqpM/R+lfbvzC6vu+S/R3fPXvvsflrjba+fttW21bbVttW21bbVttW21bbVttW21baKnzDzr5a8r9E6KsvPS/L/AELm+29B9q9b848Y9M6Hd3x6VfOPp69Pf6usd/IzPmPmHl+g+oew+KPqMa9pE7r+Z5Txz6OaYet8a8f98+Ief9t8d9z3vlvmfoH27335i/cHr/l3rW29P4Tbattq22rbattq22rbattq22rbRSPjtfhHh/rpvUJ9vx9Tl/oyx4b2vyjutyV1v5Vl5L63C6/mx6h23XeH+t+6Zm8978bj4a+4qbn9/wCM/ubk+vDZk8r+r5/51Z+SNvn/ANq/QuPOPSPd/G+e+b/rFGXo/Cvn30/5F4n676J9S/mN9M9Pzv1Hon2vyvbattq22rbattq22rbattq3zF6p8GeT+jPfWOb+heL6yw9m29/8Zj43+qvBOX6Pwb9BvjP6U5/Z9F2bet+brN4n4fxfVfbfPfANVx/U/fRfhmV2+/b38xrM5/pPW/Hfu/b8n6b5V7EXp8PbbTi22reAe/xn3/C/kX1t4Z89+3fQvv35o/S/f8X9LUvxr5ZX2Q/+FvWOb3vvLbe/+MbbVttW21bbVq+w+X8PW8DnlvcPmv3vrvqap5r6P8L7reCe06cNmlW14OY6Zl8n8/ueo/Krb2/xv1Lzi1+hfU+v5n527L2LdvynjivYccvGuH+ncu/w7y3335dw/W/Kn1p4J5Zy/R/pNvlH332fyvsd85+Y5el9leUfGNb5/wBt9CeFW/r3N73h4ftT07q+d+OfRvpeO74/5A+fvv8A/P8A8r9I/Sy28V9q9/8AF9tteDbattq22qs/PX6Y+SPC/Ye/+jfJvsPo8c3hXuvjXb8h8RfUDb6H83724Q++NPS+DpuZL9NeL+qUnvbze7+Qbba+fttW2ip3O+RZel7+2+LvOOD7D7G+WeRN5v3NXHtPsg0+cnH2ze+l8H8v+u9/5n1eF6YT5z9718yx223mbbUn86/0V+NvM+/32V+bX6PBz7b1Pz3battq0TyY0+NmfCem/Lf0N7t7zRXv0v4Nttr5yQOWcfIPkknr3zv7f3P0Mzee7+P7ag04b/eEeT8f0/2R5/8ACzLh+z+kfI+N9W4vpfN2/wBcep9Xg/DvrX1iLs+W8y9KoeY6/m/TG3zrwGPrfV/yZ9nfnth63Sch9VeX8f1XmXu3bfMJ5v0Cwi+/+ObbVHintlZl3/mh+gX5/fUXg/sn0/tvo/wzbattq3gfvnyFx/UeJ/QXiH0d5X6T9Ebb6H8O22reNen/ABJxfWMfqn4qJ5H6b9y+b/I7zTi9A879f9Pz7PkXuPtzsur5z5D9f9b53u+Qt3vmjPbzPVvEvbfgvn9rp/R/Nva+X6X5T+2Pz/8At7Ls+eqWo9F5/d+ufjb3mn9T89tuU+X/AG7k+ltuHovcU6PWu2+e/oT2fy7bbbytExXwpvVvlP5n98/UGaK9+l/Bdtiu21b4s+0/gjzfurb3D5i6ri+w+4+I+OeP38P6b8g8z9X4vrfLG31Z6u/J8SepfZE9/wAd4r6zvnfp8L6ZZeXfKufZ9p/KXoPA8f03tnzInqOf3vofxa88m28v9Bvm36K4z1Pzry/3T4F6vzvuua69sHi+p7UfU8D1fPWH0z8I/of0+L8Ifd/wN9JZ9nz39D+RcLz+x6F9f/C/3R3/ACG23ofE6JiuI/O39Mvzp8L9d+uvdPjL7N9D4zZr+frY/cPlXxqvyf0n3bxDu/dc+35Tuftj0bq+e+O/ZPZeU7/kH94y+On4/sYHypb5eiDj/LvW/K/RvZvm307kOjx+R9H+geXfg8oM14vn9u56Xv8Az7Ti8b6YvLcH2P2/3vzL9J/R/hvwp9Q+P+p8P13gHnfvNxyfRcp5W+tcvTeP+v57byed88+zu/28z5m6L6ZY9vyvPdh475OV+ueG+Iue4vrPqfyDzj0Lj+m8zbfV3rrYfGv6CqV7P5bvgX76+X8fU8K+8fzi/Srm9+323s/lW21J/Ov9Fvj3zPvfTPnFz1nD9g440jbPvcfScfHXT4H6M/JPo/u/o/F/Ev1v8y8d5/147IHR8/u+zfPPrHhO/kW/odd6wcfnH7p/Oz7+14OB8p+pvGd/HkHvBd/J8V6Hv/NA3oVl8oeSc3u/bvkfyHvP+19u8y6P2Zen5fv/ALa77q+e+E+Z+kvnzl9+z+9fiz7T9L4Xbb0vg9tq3nnoaV6Py7+2/kr1b5z9y+ytt9L+C7bVvGvZavPu/Nb2jztx8x/QFV6/w3pW/keh9n86bu+R8t+o3Pi+Pqe4/PHJvcPX7+w6zlt/I8z577uqTnVtvbken+fcj0vO+Grt9Qc58Zcbx/VfUnj/AJB2PB9nylZ9M+uHP4XsPr/5Sz7u4+weB9g9r8n227vktExXzb8v+1eKfM/vv0l9ReQev+5+RbbdXz+21bbV8b+d/UXxN85+6/qCrz70H6H8R22bDbaviSp9f5jwf2Xnl3Pn2fYw9Kt/f+nxPhD2T3HuNPP885L37g+z5ns3fzL5Lh6f215N8fNuH7H3Pz0fuuXf4LTfZ3qHR4nxj6x9Dbt+V5Hrtu35XV7/AOc8+7gfOKn7F8P9f9cOIv0P4dttUcl1vz5j6niHnfVdF83+7/adxt9T/O22xXbattqqfzb/AE6+C/I/TPVfp/4C+/dvJ229H4nbauL8i+kYw9fzzsue8kTp+jqz4r8n4vq/tjx/xQPF9daUXefTydHxJ7T9h23o/D+F+i9fvQ+IidtvN22rbatDf5+y9G1+Yyeh+F+un+wmrf2vyzj/ADvgfA/L/QvvT03zX0r1/wAzbfHPqXzz5v3fE/YXyx+iOXpvdt7n5BttW21bbVvm36S4jn9j8+f0g/Nn6v8AH/UvpTfPPJ+p+efUvmnzJxXH9T7l5BVes8P13hqfsz1rfyfiL1j6k3d8b5j8z/cydeH85/Zur+cvJ/SPtD0X4P6nv+O+yN4LfdfzPrm8fUV9e3jVGunvvmPzvynF9X6Z4oj604vrfI/sN3z/ALX5V0O26fB5Dyn6CnH1fO+pu/lTPr5TxPrX/wA9+3e+fRjV19L+CbbbeZttW21bbVonV+cfI/YsfOfunx53/wBxdR1fP/Lnzr+lvyXDiPoP4v8AWub3Pt7eT+se/wDjW2z8u21ar899Tz6/nzw/7vPyfTfnWL9E+I5vf+OD/Va06Pjms+9unbD4X919+R1fOtHsx3/I+a/N31t+dvjfqX2N618xfWnb8nMbxDo8Wt8Kc+UfPfttn91+d/Rfo/D7bep+e7bVttW21bbVttW21bbVgm1fE3kP6WfF3g/sU+5fEfreff8AdW+a/ob3PyF95N6zD835x95Y9N8/+0fTj4Rfo/w4dJffBXL9F9xWfx79htzRU28b+N5DyPidP4f6/wDojHmvpft/k/O1/ZRXnPo1Z88Yep0fizXzTxv1VPv0/WW/jkXt7f5NttW21bbVttW21bbVttW21bbVgm1fKnzX+n3j/kfpfyr6J5QLzfvPs71T5H3s/lv1Fb+I+v8AX80/idr5/l/yf+gHnfB9l82/WN6428yKW73R4Xk3E/R4cPbNqfx5+L3bxjivMOH63qPP+G7Tyf0vkfq/ufUfV/O0L29T8722rbattq22rbattq22rbattq22rbattqqPmj6u3P7H5y0f6NeA+T+meU9/5oyx9H2598udM2X1L0fyA56PE+yN8cvdOL6m5f5uXn2+2UPj/B8v0Pqlf5x3nP7vE9X9Ee+dvyHzt9Hv97P5httt5W21bbVttW21bbVttW21bbVttW21bbVttW21bbVttSeH7rLt84cB9nbj+n+BKP8ARfYez+ayf0rydP5zX333n5vjP0D6M3R4vD9vO6/mdtmx22rbattq22rbattq22rbattq22rbattq22rbattq22rbattq22rbattq22rbattq22rbattq22rbattq22rbattq22rbattq22rbattq22rbattq22rbattq22rbattq22rbattq22rbattq22rbattq22r/2gAIAQEAAQUC/wCnDbzdts293fj/AGWF3H1jXRcvjnxDI1+KfEEjTv2+KY8Qb6GnxT4gjdv428QJaPrGUDa+PdjndruFlfJ/3x3FzBax7n492+1e4+Ld73EQoXcFUeLtto3G6afCe7U/o7ymNnsI3+hbBTPh1UjPhTfKXO27hadubKFbf4y3yxe2+PNru3FLFPH/AKunnit4948eQoF5uN/uU0VtNM7bY74RIi8NWireHxDMf6M+JLtUX1fbWHH4I8PIf9EfDof9EPDjl8E+H1s+ALBDPhzxXZG6j3eEG38Obiu88OblaRPbt53Da3s/jyzuWhaZE/6r3zxNYbKndd83DepYoIpVfoSK2i2qS5lWnwf7wqz2yw29NfuzTIt4tl3JO7WHe+2ba9yE/gu6sV31Eqn8PSqiMagrZvEm47IvZfEG373H/qnxD41RCqk91Nt+zXF6mxU9u8G2qFoQlCe2476dn8WXXiXZLMQTc+F7xLusEG7eMb6/s/Dni2LY7PZ93/S9v3XNFGqaGK4jvvB/IN6m0vFX23XG1C1mlgm2PfZZYv8AUylJQnxT4vVemGS6DsNotbOO02G/8QSW1rb2kfffpvFMQ3CXcLm78G2NlNuvffBNvXiPw7api8QAABzxqlij8Z3e13ewbrc774k7bhttnukF7tO4eG0foyxCZrya4HhXxga8f9ScH4u8UG9MaBWG1tdhGxeG5VSOLfbRW47nu1ntMNrMqe37X2zL33xVP4KtUTQ83lNQyTaWNrYx320Wl/J2uLiK1h3/AHVW9bhtG1bnuEmyW3iC2T2UAobt4budsuLzb7XdrXPE+EfFRz/1H408Tct29yYExBW0ReH/AAymwk7eOJ9uk3G3uI590hlimj7BCE95tz263J8SbCljxFsRcW5bfOe1xa292gW1uIfDm1y7buP3fEPh6eGXcbOLdIKmng7xJ+kIu13fWdkm98d7Pbp8M+Jjv6/5zxLvB2nblkLl2u2h2618L7LMVdr+0N7b7n4Es4bLwp4ah3qLavD8ezlySRxI3LxvtNk77x1vNw/0juN5LHbXtyxsO9EfoDeQ5re6hdpuu42RsPHu7QHbvGmy37SpKx9/xFs8213W8WNvJDDNJFcq8eZ2W5eLN3u7iSQL7eC733Pfv5u4uIrWHe91l3jcNm25N9cbDt58Q7j9wio2vbYtrtnv3jKx2sX28blus0uybpeSW227OqS12PfcR4d3WYf0Pty/6IQhq8PbzG7rZN5Dn2bZlKn2jd9qRtviPddqXsfivb95+7PcQW6b7xxsVo77x9ezo50/L5VY7cSc4eFN13R2P1dWyR4z8PWW12kMq4JrOdF1bfzXj/eSlKY1rPuC1rtLSGxtl+IdqiuvFviGGG2tTlb9pporePf/ABpLcOw2m83JW17QiOS28KW6lRRRwo+9PbwXMc3hZNsvcdutzLe2d1tt34b8ayZ3O+7TaO++sC0Q7zxhu18gzSXMho7TaL6/RaeAt1uV2vgnZ4E2tnaWaO3iay9/2TmHDwLei52T+ZurmK0t943GXcL/AGNAtY/Bu1qt7R+OdusZtsSoPZNx8ZKTEZTHNNFbxeI/E9xu0m27SiSHbdjuN2jhijgj/mZJI4k7nv8AsEiZd3AaMsowuWSTal2NvaeFN8vhYfV2hJs/C+x2TAAH3TqN4iNjf/V7e8rcv5nx1ulvDamFYUmw973FKUoS958PXW/XniPwlFt9ltJy2t+M/EK9wn2eyRytk2ieeT+Yu9z2+xTe+P8AbIhe+Od7u3ezXq1e9ykWlle3q7HwHvUrsfAm027tdvsbHsohKbvxbslsEfWHZKmtrmG7h+79YNlydy2e8/R+6JII/mPE93Hfbr4eSDfeCLZclt3IBEcaIkeMN8Rttltdgdzu9h21G5zfdWtMabrxTstqb/6xJK3fije75qhlNknmyqtfDG+Xzsfq6kLsvCGw2TQhEaWJYyvdL1W32E/jjeLt+Hd3uP07ewHa90Tt262kHgPcpFK+746svetkCk8vwze+/wCyff3q8/R+1SpQlojMXh/b7VNjZfcmmjgi3e/l3nc9v2aQxRRRwRdrzcbGxTeePdohN3473m5d3uF7eqExQi3tLq7VZ+Bd7unZ+BLBEdns+2bf2UpKEw7rttzceJ92u9nstp3Pcd+2vwxemz8QzRpmiuE29hdbX4I2e1fjm0Vbbp4dk/THhnZ7w7Vu4UCPuXdui7tZolQy/V1fVj+/4/uuRtNpz5ZYLTneKPu+ML5cFhs0cd3e+GrOSK2vPE+x2Lv/AB7bxR33i3er5U8okNHY7DvO4Cx+ru7kdl4L2GzcMMMCO19452m0lufrA3WSTxt/HNg8P3ydv3Xe7ePcdn8Ibh7tu+8le3b1azJubfxzZe771sO/7eNj8SXljvuyfV/fATeLbX3DfPD97+kNp+74u21cPiDwnL+j98+/9YF0DuGzxm+3rwhW73P7lzd2tonxduyNx3SK/mt7K43W/vEpVRUMMss0fgve7o2n1f2gdnsW0WHYmgi3Xbp7jxJvUuyW3hXe5t7sn4us/c9923wcvdrXdtsNv4TjQX4R3SPctp3W3Xs+8eNU5q8E3wutl8eWnM29SPoPByZLxOy3g27f/H1qk2/gGatl936xLLO1SVQr2+5TeWf3vECoLjxPss9yjcvAcWOyu98QbPt7vfrDtki98Zb/AHgklmmVwdltO5X7svq93GV2XgXY7V29tb2qHJPDEd93iLZbGfxnv8r8P+IUeI7azuJth3HfBFvvhnwHeph3N/WDYIkt/q/vuZa3Yimh2y195vPB24rsN68fWeN5HjvHgzwDeIh3Hd7NO4bbs9zTfAlKU+K7I2e/Xi4t58H+FMIN9+74gsf0hs78BXvvGz/e3yeKDftt3COzt9v8XXu12F14i3aVSori6WmJa5Nv8J7rci2+r6Na7Pw1sli+Ha4uIbSC88dSqh8P+KbfenvKZNt3/wAbXXP2zYPD1xvlvt91Nsm6+NLTk7t4G3IEIB2TxAhaZEeI7P3/AGeymlsVeHbmW23u6MG2794os/0Zu+8yI33wh4JuESXG2yr2ffUqCh4ltfcN8/prssFr4ruYt72xN7exbZ4KVcnffu3N5aWaNyTbpv8AwBdpt9173e9bVYPcPHthbvcPF+9XNnLNJMo05dtYbjuCts8CbqpcPgzbs7SwsrJLlmigTb3Vvdxbl4xuZ902vxlu9jc+LblE/h/YbGbc1JTcbBuni+JEtwpX6R8G/V/fYX/jW1VZb5vSF7l4YglmtD4imjvpfDV6LvZapUnfUpt942jw7s8MHjSPk77c8+4m8E3ccosJjtO+eM7RFrvE/jTeUWu9qk3PaVJyRsOz7jd7Pa+Ait7Xsths8fa98RbNt7vfrBt0pv8Axjvt8qWaWdb2Cx3Y7gOEufL3DxBvt1Ixkp2fhjf9wafAFrKiy8J7DYtKUoS7zedq29xyomh3Pxnv3vG/TTbn4Z8AXtbaC3XNfeKfDp2pWyGfdfDfhW/Rte53ewbTuF34p26OTZPB5pcbdOds3rxxYm7s/DiTdbfskUc95Kie1PgK+UseXji0933Dwfem62nx9Fhc+HNg2fdNt/jGy7x4rgB3HcoZ948O2XgveLqLb/CNpa7fZ7Xt23hzzwW6L3xtsNo7rx/e3C7vet33ImJcSEhMptPCXiC/VZfV1AHZeGtksPueMLT3PfPD0FldbxabVtu3/dIqN7tfdd28C7mLzbPE9qqHfPC/8f2XwpfCz33xHZq2nfNm32w8QQJRp4u2JVhL4e8ST7VImS33Kzt7xW3b74tt0Wu8Wqlb34W8Nye5bxvNrJtW+eLduTPD4bu17fvdC/GVl7zs3gbcP4945teZt/gb3pNjvHhGLddwh8N7XHBbxiJLvN72nbnffWFYRC88b73cxRDcdym65jZbZc3rv9l3jaLDedv/AEbP4LTl4h+99YtjWKGVUE1ncpu7X7v1gWnIvvCW4jbd48e2yk7x4Ru/dd+3+1Xtu7bntkPirZVw321XfhnxfHfmSNEqPFXhRW3vwxvsm0X3jKz933rfP9cPDn1f3/Mg8QQe4b34xgTLF4ZVDufh7crObZ9w2u6F7YXVui6t9l8E2+1XRSlXaWWOFF74w2Kyd19YN1Mq88RbtfjFWQBJsvC2/Xz2/wAAKjdl4Y2WxASEjx4ebF4nk5m8+ALdR3r73iWz9/2QHF+Bb33rZPu+N7Q3GykEDfbw7hsUkt0iTxcgXQ8CXpuNp3zw/Z75Bum2XGzXO2+KaeHfDnif9PzeMdqi2vdN4VJuHhbwgEbptdrZbtYbreiea83PZprvw34U2Lc9mN7sW1bhcQwxW8bvNz26wd94/wBqt3feOt8uHc3t3eKcVtcTJlsZraDwjslvvF7Z7Xt23/d35QvPF17Kbm8+rq3p98io3jb17fuP1fXvK3L7t3bou7a1t0R3wul29rMjnbFYf67eE/BF4i23X+mG8w7z4z9yuNi8GBF4tfv+xX+93c24z7Ntsl74M8IbHvlluW5eH9v3OTbvCe07dKyQAd621331h0M/iverpKpr2N5rElj4c3rcVWX1dzFVl4O2GyfidYUje71N3uHgzbzZbP8AdlvBLuEUC5I/BVqq32L7/j+w5e57Vf2+23wII+74tt12e8+JrXNGx2/v3hrwRcJ9+RKraN48bbThLAnn2HgCyWu93/wvZb47TwLbITFGiGN3V7Z2YvfHmzW7u/HW83KTu+4Ty3t6hEsMU92u08F75dpsPq/sIDZ7JtW397m4htINwvpBa+HtrVu+5oQEJ+5vV8Nv2vcMLLYIjNOuygTa2v3/ABxZC52Ra8j4ZvPftj+79YdnnabBF+mvDPgKQfpCRa9q8ReI/DG47ju232S0bXF4U2KFdvbw2sRNHfeJNlsBd/WJDW98U+I74ruJ1Ay5natn3e7m2zwduKHZ+CditXBbwWyPu75uMG7TbjfL3O78IbH+irAqSn7vjGeS8n8QXUV1f+CLQ3W+fzF5bou7VcQgm+rq+rH93frH9JbT4P2HdtruLTw7Y2e6ptrdMznura1Re+ONitHffWFuErvd53XcWVBTiilmXtnhDdb1Fh4OjhTb7FtFqf5je95kvZN23KKVPgrw4q7lfigqTsOy+NrFW3bL4g/TkrmlRDF79lJEOYvwNtXuVh/M+M7L3PffCF77lv3373fto293n1iWCHuHjjerwTTz3C4jt6UyywLdrsSRcW3grYEO2s7W0R/MyyRwo3PfZt1TuW7RyReGPCX6SgiijhjujdCHxEfGS0fRlXhebbpdofjTcZCjxDcISvZra5v9xghRbxfzP1hbfzLWBaYl7fdpvbLtNNFAi98Y7HZi++sK6U7vf953FnlhoTmq18Kb5fux+rpLg8IeH7ePxF4RutpVY7rPt72ncZ4XYeJLC7HH76lBIu/FFik71ekL3HdLncVeG/Bk1+YYo4I+2/Jz2fwv4UtI9vsPDtltl3uF9Bt1oi7mSkvwFs3It/5rxBZ+/wC0KkUoeEfEFhbbHe/WDtkLT4yv76Ped0nu7NSLVMRkn3B2ngLd7kWfgHZ4HabbYWA7kVG/+B4Lxr2m9sljxEbh2u52kJt998RJH9LIIox438PFp8a7Ao/0uErud88RO/3TbpDNv12u32/adw3WXYfBdnt3a8v4LFfZSQoMveb/APpHuW7bkb+72PaJd73WKNEMf83v1n+j93dCXZeGd9vneeEt4uNtuYjbTWKkbtaeGN+VeD79zaW15HuHgGylF34U8QWAg2+USp37e4CPFviEP+lPiJaFbzvN65413dzZeC9+vHtvgPbrZMEENtG7/wAU7Vtk3irxLFul1B462QxWl0m8g7eJ96lmk3OaG2gtV3L8N7KjZrH+c8TeErretxsvq+2uJ2e0bZt47eNfDRiVzNLef9Op8PeIot2T9293r3LfqiiJESJakIWJvDWwzn+hvhysfg/w9CpOw7KhUcUcSXUV7bnt1juVtJEDN4D27bLiTt4l8SKtVXdwjYoAqj8HeHVQJ/1EtCZE+LPDB2qX6S2Vb3A39WweJxeL777vW67Yjd94ut5uvD1nuHiS5ghitomo4psdwttxhuLu3tE9ryWaC3s/Gmx3I2TeJd78Sdtztpb2y2vZLDaLe28P29huj3vxPIZbi5j2WKWDGPwl4SVOoCn+pJoo54/E/hWTaloUUGPcNv3ePb/El7sq4ZormLte7LJvviuz8O7x4Y3JKgpPa63OfY9/8MLufEHiDv4nk279M7Yve47nZJvEUie91dW1lDuG9XviF3m6Wm2QYko8M+EpL1SUhI/1KtCZE+IfBnJawQqw3ua2j233y0XtXiuw3FbtrS3tfub5s25bsPEHhubYHtnhHxAlG2r3BVu722Vd28HgzYIEeFdruNq3zsohI3PxhZ2yr1Ga9w3aW+CElcvh3wcLVYFP9U794TtN0TuO2Xu1rtrnlTy7um4t7GbfrBFh4322YwXEFyjv4g2dO8woQmNP3ME5XN5aWUd143tDJuE084/TaLWEqVKrbNmvd2uNj8L2Gzf6su7O2vod48CTICBuG2TBc1quHe7i/XJZ7XtsUdz45sEp8dy2zg8deH5nH4p8PytO/bKtnftlS1eKvD6HP482GJnxtfXbu73xfOJVeHoVr8S3SEKWtRtrWa6O1eAwpdvbwWsX+rrzb7PcEbj9X8Zd3s+9WD3q7N1NHHchEHiPfrdI8RSyBG77QzfeHH+lfD8Kv01taSfE90l3HiTfrtKiVF7d4d3rcDtfgCCJ21nbWaP98RFXd+HNmvBdfV5ZrEngDdYnP4V363P6J3SNHuO4BSrG9UpGybrI7fwl4gmdv4A3aQWv1d7eh2Xh7ZrD/pw7/9oACAEDEQE/Af8ATePFKZ2wFl6X9zfksvjFX+Hj/auL/cNuuP4pRH+v/vJ/4Fp1P+7sf9i5v9w562IsSif9f/eT1P7o/I4hZwn/ADc/7RnCUTtkKP7D8Z8N1HWS24I3/tH4z/cPOnxDf1s7/p4H+83B1nS4YnH0kP8AiUX/AK58f65eq/e72xUpQj/ns/60f95uX9+8f+7pP+CH/GUkfv1iH+zJ/wDEsHD+/mP/AHd/4mh/xjJ6T97oz/CYy/wGj/rSA/2rlz9D1NYeqhR/KQ/2h/3k/L/7hxil9/Ryr+h8f7zfkfiuo6SezPGvrfu3+45zfz+t+2H5fn/vJ6r5DD02P2elFbf80R/v8f8AeC/LfvTCQ2D+Yf8AWh/mj5P/AAUf8z1XynUZhtnPj8vA/wBYOf4LqYjGYxJ3ixSRRp+F/dzP1pBx1V88ix/mf3h/dzN0mWcttY74OnQfN9V0/wBuOf2/keR/rPxH75gfb+A/68P95x/zcOPrMHWw9jqY+fT8/wCsT/vBf3q/c/8ARn3OnNxPp6j/AHmP94P1P3P/AHQjjiOs6wc+g/3yX94P3ghDGZRNRP5fil/g/p/ub/Wet6/qOs4A+2PoPT+v+8ynBMQGQjgvRdT7OQTMRL+h8PyX709MelHTE7DKPp4F+n+8BIfgPmx0Ep5hG5VQ/J/eL5sdfKGaqNcj0v8Ap/hYXYp/23emj0ks04jHOUaP5C/9o9VgGOZgJCX9Q/F/N5em+zzD8v8AeX5H+ofhfmsOSsspboniz5j/AEl/xl4Pq/vh+5/nq+kj/hH++R9L9w/3djnn+rzj7Y+B+Z/34/vL8phxiU/7Pj+sj/ij+g/tf635vXdfl6nJ7mU8v7ndV0uDqRmz5CD4r/D+b+/ebpcmQY4z+/HxVcf7BAfjf3M6/qaIhtH5n/eLcX+4bAfx89f5n/bF+N/4if8AaOb/AHDS47sGe/8AN/vkPyP7o/IdJ9xhY/OPP+/XD12SGPJi9Jef8x1+O+RydNk9yH+cehH5F/dr5rHkxxAP2Hx/Q/4h/wB8H1H9X96P3Nye+MnRx4l5H5F+O/3DnLOj1E6/oP8AftD/AGr8r+4fS4ehySwgmYF2f6c/7Tu+E+Kl1vUx6ePr5/wPyGaHS4I9PhO3j/iWI8n/AHl/UvyfV5euzfyYnbHwPyH+8cl6j47JiwwzTHErr/Np8Z8R1PyOY7P85cHSfHfERqI35PU/l/n9P83P+F63996Ax4zdfl9o/wCMj/rxc37xdRM7hQ/zA/7GVn/Yv9/9X/u49P8AvHngbIB/zUf9eNF+N/fo/hyn/NLkf6/4h/n3PWfEdB8rHgbMnoR6/wCtxL/a/wCB+S/d7qulzezOF/lXNvR/uT1+WjKO0f1/3l5eg/3DbBE/6pmZf4OGE/ivjAYgiP8AsTx/Ty9V/uI2CIMcUDL/AGAeq/ffr5x2Y5bR/Tz/AK5sv7i/KS6rojDKdxB9fyL8p0R6bqcmA+h7f9w7+Jjjxnq8nmXj/A/vl8xujsj5yc/8ED8I/wA/4n93uoji6uGac9ojz/vz/O/vN+8vT5+lhlxYxKyR93kPwPwmTr+oGKPA9T+Qfkvk8HxmD9P0/AHr6k/kP6/mfT/C/IfJZOoP3cD0Hp/wH+p7Oh+G6rqf4GMn/ePz8PRf7h31Eq9+Yj/Tyf8AeX+xfiv3YwdFA+5Lj+p4v8/R+R/fT4/BdT3H+n+8V/sWf+4hZxftx5/M/wC8h/vMuX5j5Tr5Vukf6Dx/sH5D4bqulr9RCr1/3DzqxHrDhl/aH+xH+8F/3EfoPb6wZh/aH+0/3gdmHEckxCPkvU9OMHRw6eJ81H/N6/7AEvy3WfqOpnlHgnj/AAemgs8B6HpofE9AIXWSXJP5fn/rD/Y/4X5L5A9Rk3enoP8AePX82GOUjtiLL0X7mfIZv7G0f14/369J/uGYAvPkv/B/vNHxvw/xw+8RB/ryf95vV/7iF02MEYo7z6eg/wB5/wCweu/3ELr8vGOof4P9+so9Z1eeOLKSZHxu/wB+sP3TybcwlL7sfp/mvy/uN0vS5hkGXHumP9p/g/34/G/vB0mf5H2umHEo1+Xj/flufPL5LD1XTZIATh/vF6/Fdaen6nHnHoX/AHEHoBl6D3of2Tf+Y8f7y7P3N6X3fkcX9Of9b/fr+9uc4hKf5Q/2MjX+89f3O+Hl1XWRNfbHn+j85+7fUdaTGMhGP+vwP95n/aB6f/cPeiw0cpMv8PA/3j/OX/bh+I6GI9sj/BH/AHj/AGr8h/uJZPHT4v8AX/3kP95vWfvR8l1V3M1/uXj/AGj/AHT1B6Y9bX2XT+53xPTdZ1JxdR+Vh6/N8bh6vpv0YqUZUX9/+jMZ4+vxf2fP++Hbj/XYs0fw5Y1/nHP+0f3ekeg+Y9k/mY/7y/3w9Z+7eHojL5HHI2JXX9L5H+t/VyD9N83GY/Dlj/vH++H5zpBg6zJij4vX4KX94fExxyl6bf8AW4/3kzgYyMZeRr+4WEy6jJXnbx/sP9Z/eD4PqOohPHgj6x/pwAf98l6D/cO+d3V5KH9P94/3wj4X4j48Cc4i/wDcx/3nx/sHq/8AcQehwisQ3f4PH+8f5nrf9xE6yf8ABAj/ALH/AGvH+wceL5H5OV2Zf4Tx/vJ+J/dLJn6ifTZjslEX+dv7ufG9F0/Q/q+siPPrz61Xh6H4zF0/WT6aI/lZhY/Lj0/1noPitmLq/ipf7/R/3j/Wf3e639P1uLL/AF/34/P/ALqe5ny9XjnXqB/WnNOPVX00xxlhx/hH+8A/5no5T/usE/jwS/2h/wB5F/fvp/Z63H1WP+0Af84/3gP73fG5Oqj0/UdLAncPA/109Dk6vpOlkTWTHKv9b/eA/v7hMOtAJ/sjX/cMc8tuXCRx5/3x/vJ/fTovZ+RyV4lz/r/79f3d/drJ8jKQhIDa9H/uG/SY+c0jL/YD/ef+xR8p8T8X/LFc3+Hk/wCf1et/3EiA46bHf9T/AL8/3m9X+9HyPWZPtPP+5R/vBfiPgup+QySEDyPNly/umYdDPqt33RNEflzTP4v4vpzDopQH3j/Yj1v/AHjw/GQn0nR9V02LmcDx/vg/7x6uL97cWfq+nntqf4Zflz+X+1c/TieLrOhA/wBzD/P/AL9D0nye/oOn6n+1iPP+D8P+0RKMuq3f24/7GJ/3kX94uiPT9bkx/wBb/wBd+c6jJk+LwZ8UiB4P+0/2v+1eg/eDH03xmDqcgvjbx/vH9HDDH+smP7GeP+x/36OXpes6I9LjHyNXjJjz5448f5gx/frp+mgcWGO4AmvQV/vz/A5/3v6yeSZw/buN8c/7W3B+7PyfWS92UDz6y4ei/wBw3HH6rL/mH+8z/vJw/B/E9CN+SIH+/wB/v3/fD1v+4h9BhG3ADL/BwP8AeP8AM/vJ+8MvkcgnKAjT+4HXe18gIHxLh/3EyGWM8cxI7TxXpev+4edbs604v8Yf7Ef7wXouj/R/OTEfw5Ikj/fLLBE9V1HRy8ZY7h/h8H/fD02DD8x0gw5Jbc+Pj/eP98/1eny9V8P1n82P+/Q/K/CYPksP94dAfu9R/vHr/tXEYe50nVx8TG0/4fI/2Nvw3QV1XV/GngHkf5/+AvWfITx9N03X+sftl/tD/tH/AHEHpYn2esh4kK/3y/GfK9N/dubpepPP9l/vo/oP0Rj63bg6n5HqYxwYTIiPinov3A67LzlqP+xP+8f53of9w56PHzmkZ/7Af7x/nc3yXxPx0DHEYiX9Of8AXp67/cSI/h6fH/r8f7T/AHm/ux8nm6n28k/XcTX9KAf9xEyiXXgD0iP9869J1EsOWOWPkG398umj1fxZzY/Spf7x/m1+M6v2Oox5vyL1kBly4pwHMDf+Y8F+Rz7JYuqqtkjE/wCA8f7Wnr/3e6o/J5cvRnaR9w/z/wC8y9R1EPk/jB1PUw5xnn/fL8T8COl68Z+lP8mY8f7x/r/67m67D+i6nBvEZY5kx/17H++Q4P3/AMFe/OP31Xj1/wAP5P8Afuf9PPpf7Mjb0XxHX9Z/KhEkR/PwP9d6T/cO8h/j5AP8H+8f74en/db4roo78oH+GR/3nQep/f347pxsw/d/gHH++H4P5/N19HZtHn/N4H5eT/tH97/msnUdXOEZfYOK9ONf3YwezAbv7MYj/OfuP+1D+9XVe98hll/Wv9bjs/dCY634yOKfpcT/ALx/gL1XTyxZZYpeQa1+L+T29F0/Xf4p2y/weP8AjEuaJzZes6L8wJD/AFv95gPyP7zYsZ6brsUrlVSjfNf7458Pzf77QzYMmDDE/d+f+xeh+X+ROMdN08iR+Q5/369F+4vX5jeT7P8ACX4//cOOnjz1EjL/AAcD/eb1c/ivjwYAR/3z/vmTm/f/AKbDHb02MyP5nh6799uvzWBLaP6f7z8uXNPId2Q2X4v489Rk2+nr/vH5nwH5Tqh8V8ef93J8Afl/+yP9j/h1+F6MZ+qhCXjyf8A5Liy/pvj5dTkHPMuf6+P98BlIk2ez/cNetrNk6Yn8Qv8A1n9/+g9n5AzHiYv/AHxr03zWbF0s+jFbZOD4v5LriJRhKXFX/T/C/H/7hp1E+eomI/4Of9+Px37kdBhPOMy/qf8AeX+/H5H96Pj+gAhGPHptHH+8n5T/AHEbNlG3p8e3+vkvVfMdTmJM5/74/wBp2fHfGZOol9vA9T/vH+0HL0PR9N8V046jqeAPA9SfzP8AX8h4iP8AO/OfM5PkOo92fA9B+Qfgf3QwZ+i2Z5CXN3E3X9H5aEI9ROGOG0Dij5/zv7m/DExBl/sz/wBAHn/iY8f67/uI3yZhCPSR/tcn/B/wH/adv7v9f+m63Fm/r/teH/cQ/i55sEM0I3IH/YH/AH64v3P+QlHfLHtH9f8AeXn/AGD8T+4WMxE+pkTz4DDpPivjYg5Yxgf9c/5vJeu/3EjpYcYIGX+w/wB4/wBZ639/+vy8YyID+n+8y/E/vd1nS5vcMtwPkFh1Xx/yeLdjNSPmJ/3l/vkc/wBXr/3KnHmIMf8Ai4f64+7/AFx/nZ/A9SDUQJf4CD/sPKfgOu/3Yl/rFx/u91JNSqP+Ej/aef8AYPx37jSlUp2f8P2j/jI/6w/wvU9X0HxER7h3ZB4A9P8AAPA/wnkvzHzfU/JZrn/mA06f5jNi6aXT4zVm34zpcnX592eX2x/Ef6f7zPgPRCPSYZdRn+3j/WA8D/ePV+Y+Tn1nUT6ifr/tO7o/376KHSY5Zp/fXIH+8U9f/uJsjx02L/X/AN5D/eb+5/71mef9P1JAB8egv8n94/gYzxnf+D8/8U/n/v6fX8vL1nRZOnyHFlFHXN0uTCITPryH479+OuwfbM7x/X/ebg/f/DMn9Xgv/WP+1Zfvf8LX29L/AMWx/wB5p/3EHBjN9P09f7D/AGj8n+/HX9TwJbR/T/eflJJ5L+4XRdFlkc2074/n45f3p6PpOm6g9P00Tx5J/wB8Px/x+TqcoxYh/vz+pf3c+Cjjxx2fhHI/3Mf8Y/0/xR/nf33/AHijnmemwfhHn+p/359L90P3vGcDpOrP3eh/P+n+H/av7wfu1CcNu24eleYf7zj/AE9PR+S+Jy9Kfv5ifBHgvR5oY8glkhuH5f8AAHrvlulHSRwYTGGTbcQfS/S/zT55f3f+APyHuY4GpgWPy/wPznxH6LIMEpXKuf6f0YmjZcH7pdN+llmxfaZx/t+j1XTHFMwJB/wGwjq8gx+yD9r0vR9R10t+Q/aODI/7xyX4L93oY4Abah/XzL/f78h+Uf8AXf3u/fExiek6aXPqf98D6n7tfv2cdYet5H5/7zes+PxZsZy9PVS/zxP+b8/6jl6n91xK5Q+z/CbH/E3p/glRfkPjupwS/wBURI/3j89P3Y/erL0mWGOZ/l+vAfm/3hy9cf5wH9OOf8DCRidwY/vD1Jx5cWWW4THr6PQ/E9R1P8GFj8/T/Xfhf3VjP75Df/sIf8TeT/gj/rsPjsPSx93PL8P+aMf8A/3yef6v7z/vsc/8npOI+p/P/eX1vifnep6KV4Zcfl6PxP7+dLll/qqOwn/OD/vH+8Fn0OPPOEemnUDf4eR/rcx559HP+6WPJ5hCR/pcP9pY/wBg5/3Fx/7tz/zSgf8Aa0y/ciPpDJ/xZ/xk4v3Fj/u1I/4ZRH+0t6H90IQ8Y4R/15/+hUP9g5+g6XDDf1crr/GPH+twP9g/M/7iB00Ps6WO7/YD/eb8p831PWSvPL/N6D9hwdTkxndjkR/gem/ff5HGK33/AIf94tx/7iP1NVPGEf7iZk/3ZH+v/vxyf7iT1VfZjj/tXqf32+Syce5X+Bz9TkyndlkSf6/6c//aAAgBAhEBPwH/AE2ZAeWfX4h6p+Wx+gf72h+SPlcf5MOtxH+0g34/Yc2eEPxFy/KSPGMJhOXMyw6G/F/7x/hY/Gn/ABf9i/3afyH+xT8af8X/AGLLoSPPH+8f0RHJDmBcHyp8TcWaMxcT9bqvka+3H5YYpSO6bg6M+fH+1YYYx8Bj1EeefGnUdVHH5em6uMwOedMnTwlyQ5+g/wA/+1TjljO6Jei6/fxL6nXddf2Qem6Yk/1ceOON3C6ckNwq3F0c9+/zWnU9P7lD0el6f2wY6fqp7xEchhKxdObpxPn1c/TkcPQdf/Yn9L5LqjEbIvSYZHhx4xEVF6+E5R2xD8bGYF1wdMvX4o+rL5X/ABYv945f8Rj8v/jRcXXYp8WnGLB/LXLiExRer6cg/wBf945ej68bayOX5UD8IcPyM5ZBfju6jMIQMnEDOW6ThxjHH7mOUGRiPTTNmhijymeXP/QMPj/U/wC8f74R0sX9LD8mXSRLl+N/Jx58mH+ocPVQnHcCz+QxjwXJ8tL+yGs+Zh8VL1NMPjsY5It+RwiGSw4cm6Al2/KZiZbA9Bg9fy/2r1MSYGIFvSdJKMyCaep6gYo2XFilllum48Qj2ZM8IfiLP5SI/CHN1ksh4Di+PyS9EfFx9WODDjcXUQn+E6/KQ+zcH4rJePb+XZI0LYS3TMi4Me2AGuSZz5P6BxY9ob/Nydfij6s/l/8AFD7ufL4YfFzPnhx/F4x55QYQjYf1w+3jgvyM5iqPDm6WUcVzYx9qUJg8HXNj3QMX4zJtybT2dfPbiL0Ubof1/wBpr12cQg9P1UcfkMvlMh8P6XPkPLj+I/xyw6PDD0fejv8Ab9Xr888cLi4xllCW/wBQ/GZODjLZ9sx/J6r+Zgtx9XLJWIj0R9/Tkfk9PPdjB16n+VmtGvyUqiHpepjEgy/q5Plf8QPv58vAcfxeSX4uHH8XAfi5TLFh/o5utEYiceXqsuSWTZAuTMZYxL1i5c1yhmepx78ZD03W1GMCGIMPuHoWde9/SQfjpbsZgXocwgZRmX3BjnL8i/HSvHr8xHxJ6DJuxB6rqxiHLk+Wmfw8Ps5s3Lj+JP8AaLDo8UA5uohiHKOtvIIUjNlleQHw5qnOEz4LLojGEx6InRhkZ4aySh+aQdn9Hpcm7GC9NEDNKMnJ0pnllEMr9sfnFnjybz7fqn46czukx6HGAN3oy6vDDi3J8t/iBl1ObJwP9g4/i8kuZcPSdL7Qq35PHeK34iqI9dflMd47/JyZPc6cf0RL7I5B6MpSwT3D8JZRhnhw4s8sUvayeE3U4fk58v2QysMVynifi5figXNhl7sZwfY/me4yhij90mfyeMfh5cnysz+HhjizZT91uP4n1kXrMMYWA/Fj+XrONgxL0EjjzUdcsN0SHGdsSC4o2DD8+XF1UPZAn/gYROHNsgfLn6nfj2z/ABBjjl7kJV5DL4yX4R4R00dwm5M+LHyWfyg/shl1mbJwP9gw+Nyy5k9R00cfq9D04jAE+derluL0UNuKI7OuHt5jJhKwCNc2G8ksf+sxO2OPJ/mcXSE78Z8ej03x5jISl6OTBivfJyfI4x45cny0j+HhgM2Xlj8ZKXMy4/j8Q9ERA8OXLtDih72X+g16jJtgUjflER2/LY/tEn4zJux1+WssETMT9WWbFjcvy0R+AOT5DKfWnF0eTLy4fioj8RYYIR8Dsy5RDy5JyzS2xenwDFGg9T10ozuI/wBdw3tBJevz8/4P9q/FYrO/t6rHvxmL8XmEZGJZddiugXP8kfEEzzZvBtx/EzP4jTj+Mxjzy5+ixzFVSYZcJ58OP5AI6mL+px/4yeqj6OX5H8mEMmfxwHB08MUeNJYBKW4uWYxx+1n98hGLgwiEREd0/jchmaHDj+IH9svXdEBHdB6TqaPHn/asJiQsaiYlYcvx2OXjhl8ZID7JI6HP/jv91yP45OH47HD+unyU8g49C9FknKO6TlyiAsvVdRZ58/7xw/H9LtG+X0uu6Hb98HperP8An/2v+/XFmE/DOJIoFx4J790uRp1PU+1RL0+f3Bu9NJddLeIn0/JhKxbsF7mc44+A9T1JJ88/7R6Hob/mTH1Or+Ov7sbDKYmpMOs/Plx5Yy/Dp1nRCYJHl6fpY4/w6fpY2COKcmaMPxFz9bXA4/2r70p8RD0fx237p+frZ+mhk/E5vjZj8JtGUxB3jlj1pHqf9qx+SP5j/Yo+RP8AT/Y/7yT8j/VydcfzP+0Y5ZyNQDg+MmeZ8OHp4Q/CP2GUQeCy+OxH0T8TD0L/AHSP8ZHxMPUsfj8Q9GMQOB/pz//aAAgBAQAGPwL/AKcN/jlyiI+hOv4cXS3TJcH4DEf71R/xW0Qj+2oq/go+mVEf9lA/rq9b6QfKg/gD/wBqEuvqsvS/m/w2Mb+Q/wBoA/wh1kniUP5af+SWBLZhY8ylWP6j/dYE/Mtz/KTUfimrC7SZMoP7J/3yGa4kEaB5qNHy7CM3KvX2U/3Xiqbko/Zi6f8AR/W1IzSmutVnj9r9oH5av6G1lX8Qg0dbiNNtXhzJED+t/S7lZR/8KVP6gXRW622v9r/kl9O7Wv4rH9TrFuVlJ8OdT+EPKGETp9Y1oV/W/wCNW0kXxUk0dWlZUqqeGpFPkwkze8IHlLr+vixHeg2knx1R+P8AdYlhUFoVwI1H+rzNOsRoTxJ0DVDs4C1f6Yvh9g83zryZUyvjwHyHAPJI0rxfPuY0WUNNF3CgPwHGrpnPuc3pEOWj/kosL2raYbJJ/OtPX+Mmv6n/AK4buQn0RU/8kh1nnmlPzA/qf7hSvmtX9109zH+Er+6/8RT+Kv7r0iUj+yssqsrueAn4g/1V/W67fu3NA8pK/wBeQZO97JHd01ziTQ/4SP7j+iuJrKc6YT9aa/2hqHz0o95h/wBMh60/q1/V2ytJ1op+X8n2gsQboPdpf2/yH+4wtBySeBH+rClX0s/7Cf6/R5XktIxwQPZH2NAhrUmlCOPy/wCGdd9l9zTXpTXOU/BKR5H1LNr4asTbwEgKul6rp666fY67vfS3iK1wOg/uvGygTF8hr+P3lzSGiUCpcd4NMq6fL7n8dtkSH1pr+PFm58O3q4FfsKOn4/3Q+X4q24xLP/AiAUPz/ZUzdbTKL+3Hmj20/wBpHF4mgpx1YTCvmwecauH2ejytlYyD2o1e0P8AVRstq61ahUg8v7LV+ZZqeo6/rZkoLe3R7c0nsj5fH5M2PhSIyS8FXCxr8+FE/Dzfve8SKvrk6nI1TX+thCBQDyHfCU/xaVCAv4fF9dylR9EdZ/3lpmxKMtaK49udtcaJlJ4oVWp+Wrm26W2TAtWijka/gWbWWEygqy0PD8WLlFtJCg/t0+4hC1UVJoPizFOgSIPEKFQ1Xfh6U2lx5JyOP2MbfvcBsr+mSrhKAElX8r1HxDKLmFMiZv3cwJKf8kjT8WmaCXkrRqFCv9Thtt5pDeS1wGvWB5/D/U5Uo0Aatv2xWNvwUscV/L4PlQyKTl5JP9zVi831dAsZRQ1Ikk+foHHcbkrkbfH+6gSMdPl/XxfJto0xo9Ein3CdoiiXH+Mn4HRrk3Mq94HHMUP4MC9UDJGM0IpxP3JkbXBzCjp0GlR5kuKw3iGqtelfDJ0HZSELMaiNFDyatv32LMx6Zo0PzoxcS/u40yFKf2QaDuba9jzQfxHyLKEj9I7XIeqJY9n7fI/Fr3bbq3NokVw/vkSvIL+HxeU2q+AVUiiR+UAaNG27sv4IlP8AAr+7/qZW3WC6W4NFqH5/h8v4WDlrXTprVxTXMfvG5SAcuD9iv5lfH0D/AEvvyjNeL1xPBPz+PaTap/obhPsg/nHwfNulan2UjVSvkHHMtOBWK4+le8iFp/i8FOYr+ppu9pmXaTINQPaT/d/W08+nMprThXsU8Kvl2yMa6n1J9SXDcLGE8CgpCxx/4buqedWCECpJa7uGH6NKaCgqaeqmU7UvrioSoKwpVhG7XMc6R6A5fjp/B3IOoL/THhzoI/eQjgR8B/U17ptUZROnWaD0/lJ9QwoKVkRq07TuUmXlFJ/yCf6v9SK2ixPUf3qh5fBqWgp5h0FUZHX0q4bu9ym3K5pyUK6+WP26evoGdyv1+8Xshrkr8tf6+6FW0mdwhOKqflPlqPNwSbtcrlQCjJRqeliWBQWhXAjh3JSKV7lM91FGR+0sB638X+E/8eh/ww6QXMcn9lYPfl3MYlTxorUM24jSIyKYgUD3BKxRFUiM/wAjy+9+nNhrFdI1WlP5/s/26tW8WqTHNGPp4BxT/KT/ACX/AF+b/Rt6r+MxcCfzj+73zu5kQj+UaM+753J/k6D/AHqjuELiEJioQK10P86tcNOeodPw+LKpVk5alXGp/U/07fpy1pbxH86/X5B/p3d/pLybVOX5Qf4O5gEy4AriY9FOe4tppVzIBUmtNT9gc1xcqVGlBATjTj9oL/i11KUeaFY4n9XYySqCUjzOjpbg3Sv5OifxLpbqTbD+SKn8S/4xer9arWaOsMMklf2UKP8AA6psZ/8AcZdVWUyf+E1f1P8AjES4/wC0kj+F/wAXupYx6BRp+B0YTeBFwjz0xV+r+48VrNsv0k0H+FwYUk1B/mP6RbRoR++R5EfL0Pn+LTvW3f4tOepH+lL80n+ppu7VZQuM1Bp/cYVawhVxUJKVHz9QnzDkiFwq1iHBKE0VX09f1tRlzXMfzLVXtCknpuKxn7dR/B/OLuJjiiMVJcl4v2eCB6JZXcHC1gGcqv5I/uv9L3MeFjbdMEflpw/0fu0L92i4ZKV/hHsq3tKXFyNKflT8z/U0y36zIiuiK4ofvd6UW0P+mSKxQB6D1+x42kV1vUg/YTyov8Li621pZbYP7PNk/E5Me+b1Of8AdQEYfXuF6r/hcv6PcbxH/Czra73NT9mVKVh/xvbrPcU+sf0Mn4jFlMq5tol/YuBmk/JQ1Zuo+qE/36FWSSPmNXlbSlUfmheqf9BpiJ5Nz+wrz/snz+7lcSJjHqo0ZES1XKvSMafiaBkWsMcKVaUPWr+41ozxjWdQNAT8nVCxoCeNGBbx85XknHL9QaJIbH3Go6uYqg+xOpeW43KpD6R9I/Hi7a42+LlpyKF6k1rwrVonj9qMhQ+YcVyj2ZEhQ+3+bRtEJ9rqk+XkGlKRUq0DtvCdl7SiJLtY9fT/ACXHaW4pHGKBqsrmb3eZPlJ01+IPBpsbSccy44qGtEfZ6uJXqkfwd1TTKCEJ1JLktbBOMBFMq0Ufj8GpaKIjRquSTRIHzLMe2WhlmSn/ABqdNIwr+Sl+87xKrcZ/5fsD5JYjiSEJHkNB9/lXEaZEHyUKhm42KY2ch4o9qJXzS+TusH6Luz7MyRW2k+f7LpdpKT7QI4K+KSPJiz3g1T+WX0/tf3XSe6QCdaA1P4BlG3W6pz+0rpT/AHWeXcCzH7KBqft1aprmQyKAr1lSqvR/xK3lmJPEJ6P8IsS30qLf+zqr9WjHvOd0R+2aD8E0eFpCmFP8kAd7mECqgnMfNOrwAFPM01/FphJ6rZRR9nEfq/ml3EysUIFSS5J1L5gBISfg59+uRkLbSOv5pTw/Bq3S61ub05VPHH/R7G9mUIpofYP7X8ljp4ONKLdM0NBrKMKD5in9bSZwEr8wDUf1NU0ysEIFSS1R2/TZj2R+18Vf1P8ASO5qMNkk+XtSH0QP63Gvco/dduj/AHVoNK/FbEMKQhCeAH81lIoJHx0a7Gb+O/tIQnID5q4D8XPt8CebY1+jTMQox/2VPAH4fCjwSnNS+ApX9TR71OlM59mFHXJQ/ChfRbmJPrL0V/r/AFML3G5yp+SPT/ei8o7VK1ftSdZ/W6D71C7jb15GOBZwTXSnq5bI8J01HzT/ADSNtXkVTa9Jpw9ftaYynrVSn2uw8Mx/urT6Sf8AtnVX9xhCBQDsj3u45VnD7KE6lR9T5OO72lJ/i+qxUlRHq7Q/7CR/B2O22Z/i8ftEfnI/qDVud8SiziNNNFSq/YT/AFtG7bqnEgfQQfkiR5aev8yVXdwiLH1Ov4P+JxruD/gJ/W8bUC2SrQY6q/EtJ3Cczr/ZMmf400DKQQI/JHl+H91gWdqqYj9kEivz4MLuFItR88lfq/uvK5Uu5X8ekf7y/wCKQIi/sjX8exUo0AZxm94UK6Ra8P1MJVayJiP5qiv4f6LRc26s41ioI+9Fep4XCNf7SP8AQdtd+UaxX5HQsEfzNxOZf3auWgDXRP8AA5L+clUNmDMqvmR7P63Nu9wkc26WrXzIr9yhYjjGKU8AzZxyFNxODTHyH9TEazjEjqlX+ygcS49xkRht9t02sR+H5z97JZoB6vDn81f7MfV/oMosLTGnnKf+QR/dZTPdKSg/lj6P4NWLyVXSV4J/rLTBD5cKmmjHItFpSfzSdA/W8txusf5MYr+s/wBxgi25qvWXr/0GEIASB5DsYgoZjWnm5ryOPnGIVxrRqSgpt0f7DFVU+anDJezqmTPWNWaifac0Kk6RrIHyarmWxKreTTJaK/aPMfNz7dKdE0UMjrXz+8Z0+1bqC/sOhZQR9rtZz7WOKvmnT+YubvzjQafPyacV5qPtfNohRpLuc3D+Qj0+ZcNon+9JA+6qaU0SgVJct1xzNED+T5ODY0dMlzSa7VppH5IaYYhihAoB8B3yu50Rf2i8LNK7pXwGKfxU8LRKLevoMj+J/uPK8nXN/aUf4ODKUaFXFXm+XawrmV6JSSwqUJth/LOv4CrQi/nXc4cE+wnX5a/rf8TtkRH1A1/Hj2yUaAM2cFwiSZOpSk1abm0QldTQlXl/A7+1vitMyRmjAYKKfRLit1VxWOUa/tcWuJeqVgg/a5dvXDiUrxMhNVAeejRcrUu4WKEEnEf7y03KNBcI9PMaMW8+qsTET8R5uNRTRaJMV+XTwLqPP7sttJ7MqSn8WuGT2kEg/Y7nb1H2SJE/bx/mEW4NDOv9SdXEiNCD1BIzApU+pLsrD2kbfGK/2hqf1/e9zt1ATXHCoBqBxGvrwZuLyNIjs/pV0ASKJ8qcNS5dzvae8Xqsya1onyFXSa6SVfso6z+poVaW5UVH85pQfZVkKuTBGfyxdNPt4sFNa+aidVfN/NhNvbLx/aIwH4lhW4XKYh6I6j+vR1VCbhXrIa/q4PlwIEaR5JFB3NvElc8iTTQYivzUxyI0QIB1/Mr8T/ccF4jhklX+E4LmRWCEnWmtR6OYDq6M08PLXzaESqJFxVB10q1woQI028uaSB9rjuEGqZEg/i+dj0XACtPwLt5b24REpKcSFK16dODVuG3/AE3uclOoEcdPg7iwphUBaeOrXMEFKJOqo0rV21yfaKdfmPvTCMUTP9IKmg146/N261Sowm+j46nLhp8/X+YgtiMuWjL/AAj/AKDtkzGuUgJr6DV7nuSvNZSn8f8AQ+7ndSpiT/KNGv3ZQXClISCPPzcllGkJExSVK/N08B8mEXU61oSKBNaJ/DgwpJx+TEVukymvkMv1B4GNESQfbV06fIML3G4VMR+VACE/3WDa2iEKHnSp/E9ql+5w3CFzfspNS03EcXMyqNfJrluaCVC6HHQU8u0xRomSix9rRuKLgUlPD0+blsCvmGFGh+TrlRP5vk0x/nt/oyD+prw6TDLkn5VqHabtCfo7uPX5j/QaIyeqAlH9xxXgH7hdD8lPIHga0PGhd7YToUYrmPjQ41Hx4OFVCgJkwoTWiTp8Hb7j+wTGr5K4Oa2AolC6ip1146fetr9P97UUH5K/4ZolSeoahwXSOEqAr8fv3Kbiq0JRiEj9oJqOHDU8XcXS1GQRwrWVHWvT6hmY8ZZCfw07fxm6QFfsg5K/AMp2+2VIf2pDgP7r0nFuk+UWn6+L5silrUrTJRJf0bT7raSTfGnT+J0YVfTItx6DrP8AcdZkquVf7EOn4Cj5dvGmNPokU7JTKsJKtBU0q1XcgyPBKfUtFzHKIxWhSlIp+urlsL1IRcYmvooHzcq0fvIV4/ZVrnt+qqeYn5hm0/09P6x2gv60Ug4fj8XPYnjCrIU9C5LZRBK0HRqtFpI52cY00y8n7rN/wIOCvmODhuwP3yaE/FLxOstgv9X2fNzWNdJU1HzT6O4tD/fEGnz8naR7j9MP3aguikj0oPKjxToA5+WAkL+kB+bVOrWsWX+UlowKEDlJjVj+ZZFfU+n3rq2HtY1HzTqO3uxPVbKKf8k6j79xdwrrImY6H4fJ30a65XEOCPmWjbreBKeWD1HjUn00ZF7JmojQZdIr/JHT+LMqjXyyOvDyaYkpKieGIqSxW1KAr80tEU+zVT5m5XalfyIxQD7S6w2qSv8AaV1H9bp2XcXCsI0CpLXPtsCSmJQrnUnE+elKav3eRHJuKVp5K+TkzkUtUS8ga1Pr5vb7lCumTXQfB3ClXJjKKY+fU4zJoqCSivl5v3pH7q5SFhy7TOocuT2QT5ni+o092l/VVhaeCtXcQUqcch9jk92kXEqROvVjo4J1HRZxXkquh+LEaZF5IuMjXRAck0KsRcfSII+Ov8LRuNMlxUUfgeBdztMnsXcR/FxKXpyJcVfLgXUebnjj6evmJPz1DhMshVKpIJQkcP6na73AgoCVqiUDxHpwfIXKtKUjpjScUmvqPNx8pNQquaqeXz+9ndyoiT/KIDuBaKzhzOBHo1WpX/jKOHxT9yl3dIjPpXX8GU7fEq6p+b2Uf3Wm4tz7qknFWNPspXX5vKVWR4k/NkpIpX/LYFrbruaeYBp/haMSXvKjT+yqq/1J/usS365LtadBU4IHySilHjZwIhH8kAds5lBCfUmj51vIJEcKh+42KuTb1Mef5ieFa/N438puYQaLC/aHyL5kByinKPwLnsLVNRIg5KVpSns/rafeAY5bc10VX/bDtd3j/d3SBU0rQ/YzT29vk4fyXLZKP75NftDVcR9InGYPx83ZXxVnJbHGQ1YvLYewdFUPF2+7R/8AAlHX8Fp4u3kyyUkYn5h0V5uaNXTgrzHl8KOK4ji5lQFAr1aynpCkhQo6zz51TWqlVoPT/QdzsdyRhcoqgfZq45PZ5EtD8uBa5U+zdJCw4YbfGNOCeulVfr/uOw3g9cvVDKf5SeFXGlFF+XDU/wBbvtsnt1QpkouNSxiM/t/uMncbnU8REkf1jT8HhZopXiTqT3pc3SAr9kHJX4B/xC2UsVpnIcR+AqXjHN7ulX5Y6D9fF8yZRWo+ZJP8Pa2vbK1kkEawa0omnnqdOyuUaLpo1RXd0sYkpKEdA008uwSNWCi2UlPrL0D9ert+evklCKSCPqyV65K/uMFFsJFD80nWf16PFIoB2/jlyiM+ldfwGrTNCckrFQfm5LaJccGKlI6RroacVVdhuokPMjVhJQ0+Du9u8x1j+AtFtXFapMdfm/f4l5olPX5EK+Hzd5txSaxax8aetK/N0k0jlGKuP8H+g07hcx81YTTj0vG3j/xcgpSn+p3G3XVSLpBFD6hokXUcqXH7K083BdR8Y1Uy9Eq+Lv8AaFqy5ick616h6FybZOdLlJQD6K8nLYTDFUa/wPq7mzNaDqFTV1cN+nhMnE/MNMSzVVuoo/uO1uPIpUD9jivbuIySq6dVcKaeTPHmW0mtPP8A2w/eok/R3SRKDSnHj+t2F5aRm4uEfRnCp+3T5NJvEoiIJ/eGpor+z/dZ2+7lVcxqXn+xr8Ka/rdLO3RF8hr+PbmTyJjT6qNAyESquFekYr+s6Pl7fbphB4FfUf6gym6uZF5flBxT+CXQ8Fiuno444EKzr5VVX7GF+78gesnT+rj+phW43Sl/yYxT9Z1dYLVGX7Sus/r+5OlKaJl+kH+Vx/W7e23BOcMpxpWmvk/4lboi+IGv48fu0dzbCKiY1E6eh1Zs5D9JbGn+SeDu0J4ZZfiKvctlWKmnMQHbk9IlPLV/lf6Lk6ahSuagk+vy+LTBcBPvFKqjUONPMPECgDXeQIrbS6mmuCj/AFNMMlZbdXFH7PxFf4ODJt1iSOQU01cfNP7iSnCn9xrWjRMwEgYx1WuOn+Ul26zICdRInhjVyrj0EawsfwuHfoE1EoGdPjwLtgs/RqOHw6nRlfnAQty2KsRmnSnni45uHKXx+bkRNGtKM6pKk41BYvecYkkUUEjUkedXDDJD7x7uCEGXqOr5aEhCRwA07EXd0hBHlWqvwGrpYwLnPqroH939TIiSmBPmpAPnw1L5hKriT9qRVfj+bT7H6n0Af8VtpZzXigdIH2in63LeXgQgTkIoTkv/AEHHFkVVjSrWnEj0dr8Mj/vP37bcEj2SY1fbqGiZGikEKH2OK6RwlSFfj96K7SnpnTQkeqXGpSqRy9CvtaJkjSWMfqcQIqJug0+LlFAgJkzSRTgdfm4LhOk+IWg/HzDMcmVtNH5/3Gnb9y6LnglXAL/uFmOQZJVoQWdx2wHk/mSPyf6DTkr+LTGi0/1tcsXszgLB+b27dk6rh+jW57GRXVXMD4F3CEEACTIUdhuw/v8AHia/J+5Sq5gRWJWlGq2VoqE1B9fQuC6H98QC5LeThIkhovZLlckqOAAxT/dfUK9jJKoISPMmjKefzlekYr+vg+XtlqE8dV9R/ANQuLuQ1/Kg4J/Vq8fzPEJqSxjaqQg+chwH69f1MKvLsg+kQ9eOqv7j+jt8z+1J1n9bxToA7CyTxll/0P63c/7DIR/gijMxGiIj+sj791DxUE5J+adXwB+bTCo9Vsoo+ziPvKmT7VuQv7PN5efwe2bjUKkiJiX56083FLU8AoY8P1Pb97QKi5jCVemX+3VqtlGqrZdPsPB4TDGVPsSDiP8AQYt7gESjXL8p9Ckv9IzoM8luRGumlfQ6ueGWARYiqda1Hm/4v0xTjPH0dhuIPVD9Et3+xTH2upPwcdnbnkXdTQgtfNUVyrPzJJcVjEnOeJKSkH1Dm98WnCWlEpJ0LTdXkAlkQKCvD8GIoECNCeAGg7fxy4RF8CdfwZTaIXcq/wAFP4n+46QY2qT+yKn8VPO7mXMf5SieylwxKWlGpIBoPtcNxMP8YFUDLqp60cpvklcUQqRWnUf1ulnboi+Q1/H7u3Wn5bcZq/4N/cc0515qlH9bvLgmuoR/X9+hdzblNEIkIT8uI/U5bInSdFR/aT/ofelt1+zIkj8WqyudOowq/gq7zaZElGvD+Uk6/qdrcojSnlyKiV/wYNduqipLBeQqB7PH4fFmyR/fkHU/tDXg0ovpAIIZKLQhNBTh56v3orGhSqI+vyd5tMtcbmI/iGUxy8qa3VTT+56OK6WVScxAP93QOW3KeqXJSP6mi9ltzFCQQrPQ0+TTPMDHMjhJGcVNNwlKppUeyqQ1p/V2qXII5hKqL2gjqZRY2vDzk/uD+61c6XpXwSKxgf4NC+VMmgVrRXn+LJ0BPwDC0WsmB4qV0af5TzvroIH7KBkfxP8Acdfd+cr1lOX6uDtvD1nRBuz1U0xiTxLWuDSGLoj/ALKdA0Sy/vbk8w1+PD729byD+6SYkH+10ijkk5alBKeKeA+dHEtftTEr+zy/V/MQ3Y0TOnEn4p/0HbzoqcFipA8vPU6/wOo+9MmNWKJ6SUoP9viHa7yj2btAz/3YOL3S1pkUUkT8w5bCX2buMp+0MKqTLbzdXxAP9xjd7dNbe4pkR5K9T83PDUycoiRI+HAuW+5ZQiNOIPqT82JFHk3CfzgeXxDjTe3BmTGTQJGOh8jxaYohihOgHbK6mREP5SgGU2ud0ofsiifxUybREdrH6nqP6/7jWLm4kuCsU1PD1oODULRKU1pqNT+P+gyLeJUshGgRU0f0iPd0nzkVr+AqxJezrnV8Okf3XW0tkIV+1SqvxOvddxOrGOMVJdzvcppc7h0Qp80Qev2uO1pWP2l/2QwhOgH3bi7/AGU6fM6O2gQarvlmdWlDiNEtNvFxkojTSrhtkcI0hP4fzBmpU2ygv7OB/U+lISB6O1l/ME4H5o0+9b36eMSsT8lf6Lu9r/vturOP7dQ7mzWnEGPh8QWERxBHu02gQNSK/idH7xtsKRHIAoyE46/7fwcVjuGMykowX5pP4tS0W1MxQippQ/BiC2QI408ANA6v+MXSa+ieo/qeG3WxJ8lSnEfqZSJyhPpAKD8Rr+tkXCir4Kr+P/DsqVxaJba0XIkeak9P+9aNSrm4TAFmtEDJQ+15yxm5X6ymv6uD5dvGmNPokU+9JbGTHbbHquFD++K8kBquFdI4IQPJPkAxLMmlxcdSvgPIPqNPu2mw2h65lVXTyH+3VrRFQR2/0aPknRxqPsQDmH58B/My2snsypKT9rkhuK5RkpoPUGjutvV+U8xP26H71xaJFVLT0/McGq4u0JjRImhGXV+A0cu6xKXzZa6V6RVqnTGkSK4qpqft7cy5kTEn1UaOkS1XKv8AYY0/E0DKbGBEA9VdZ/uP+OXS5B+zWifwGj6tKDR4QoUtXokVP6mV3iFxfsiQ6faK1Y99m5g/YQgJSP63nBaRpV+1jU/zK9o2mTHEfxi4/LEn5+rRt23AosoOHqtXmtTTut6n6GP92D+Y+vyHa7Wg0UkAj7FB/wCu0nLuItDpXP4ijkNtbKRax6cxfEq+A7LllOKUCpPwd/4nUo9f0MFR5njTX8oYHtEkfP8ArartdCu4VoR+yOH81MR7M9JB9vF25Psy/Rn/ACv9H+YIurpCVD8taq/AavGxt1y/yldI/uvCFQtU/wAjj+JfMnkVIr1UST+t1mTLIv0SUoH49R/geMMAj+OSlH9ZcKd3m91t5xVEqetCvhkNAxMYzPp5q6fwDwtYkxJ9EgD+aMsqglKeJLkj29fum3o0lu1aV+CPVjbttRybJH+FIf2ltN7eSFMC9cB+YD1LTFEMUJFAAz7mEql8syQP1Nf6QSU2nnyKYU+Pn+L1OKfgKuFO26IRoQfar517RbFZdVxeEVp+y4tptzWGyGNf2pPzFxWVuoo5poop06Q0QRiiUCg/mra+RxiVir5K/wBFiQ1yTqKacHBdj++oCu/MmWEJHmTQM0lNwR/pQy/Xw/WyLC3TD8ZDkfwDPvV4rH0BxH4JenUwmhVXyTxYMVmYEftSnH+HX9Ty3G6r/JiH9Z/uMxi1C8hSq+otVxagzWnr5o+f91qtJki4tVe3Cv2fs9C6+HJ/eIvOynPWn+wfN43H8TnBoY5uk1/mCpRoAzb7bW/ueGEWv63/AMSSfmkaos7c0T/lqaQvohR+7iTohA+TTebmDFb8Qjgpf9wNMMKQhCNAB5d7wf7CU+fucAkln1orXEeX2tV1t6lwhXtIyqhX4uS8uTREY/2w5/E14aXN2THbA+Xqr5DgGcvaqzu0yaLn0R/Z9ft/m7m2pUlBKfmNQ8eA9Bo+TuFwmIwLIGR1xOug4siyhXcK9T0J/Xr+p0E8FkuulUrP+EqhDRZ3qubcxykiRJqlSGOusoFdBpWvr5uC1SgZ1onEAFRLyuVJth6E5H9TBulLuVD16U/gP7rpZwIh/sj7lC1XW1UgmOpR+RX9x8q8SbeSulf6iGLfdLdF7AgU69F6eefF47Rusljj/erj6SL7Faups4dxQPzWso/ged9Y3Vt846/wPWZSf7Uah/U8Y5FrPwjU6WG2Xdwf914j9bquK22tB87iQFX4D+467lfT7qr/AEuP6GFqhsECyg80w6VHxV7RfLsoTIfM/lHzLTc338Yuf94T8h2t0TGnvC8E/PvirUHubGOTDbLPqmk8jT/b0dUDGCLpiSPyoDEC6hCTlIaU0aYoxRKRQfzl1a8AFkp+StR2oHWG0UlJ/MvoH69WBdTRSTQjTFPUoDyK/h8mY8AKflqF0aNnuOi6h/xaT4/sE/HyZ2rcOm9t9NdM6f1/zHJuo0yo9FCrUvbZDCpX5VdSf7rUBb81B0Ji6v8ARaskyRFGvAilPXgXSO+mFP5eX8NX/jhPzSg/1PovF18wlCdPwDTbqupllR/bI/gfKsY1yBOgpVZPqXVUPu6fWU0/VxYN+o3SvT2U/wB1iG3QI0J4BIoO3u97zUL/AN1mh+RdqvbicLbq1FOtp5hkzAGXQeLTcIStCVcMxifw7jw9s5KrqXRZH5R6V/hadh21WSUazLH98X/cDNtbKOU1Bike18GEK1uJOqQ/H0+z+djurVaI04YrKvgwq9mXcK9B0J/Vr+t/xO2REfUDX8ePc7xYp6D+9SPL+V/dZoaKFKV4inxccsC+VvNvqFcOcB/yEP1s2s/0d5FopJ0rTzH3oLSZWMC4zX+0To6vKNQUPh2osVDrJZR/YMf4HX3T/elf3Xmi16h/LX/deYsosv7AeMSQkfDTtT17qiv0ZoGvxHxBcggBxST8aD4uWeZPNuYCKV9kA+YHr3/RO0/S38unTrh/ouSxtl8zcJ/8Ym44/wAhJ/hfBo3e/T9KU/Rp/ZT6/P8A1GULFUl++2aa2iz/AIB/uMLiVgtPodXHJHJ7vvEPsmuKZqfwK/hf6N3VPu1+nSh0C/8AR+4pVttxmT+3Wo/BOrF3c4pUBQBHDR8m8uZF20VM6rOo9AGmCFOCEaADsVcaPnWq8hwPqD6FhVwsIyNB8T8O65rePnLTrjWlWebIbZaeKZBT9fBrn1ECIyIx3ktYV8oyjHL0B4v3e0j9r2lHUq+b/SG3/RJkBEkfkfiOw2rYBz7temSdQlyItJEzbjLXnXHkivFKP7rRLzApUmpTrkPm4903EDk6KjR+18S6D/UioZkhaFChB82by1yktD9pj/0Hkk0IaINykVDeJ0juv+S2jbvEQKwfYnGoI8tfzNM0CgtCuBHDvd29t9HEgjNVNBp/C03tp/G7bgsJ9rH+z/cYUPPvdS7VMCgrPxQfm/f7+TP3cZAeQPwH3Jl7fw/MfLPzoxNtCF81Q/ImtR/Ax+mII4x6hXV+Go/X9wz3UgjjT5lqttpX7rZJB5s6tNPn5V9OLXt+yVBVpJMR1L9afsh83zpU/wC35OPct2H0FAUI/a+fwYSnQD/UxQsZJPk13e0gmI6qiGpH9l4J8mLK9QLqzJ/dqOqfik/lL978K3XvMHGS2k9tPzT5/MPkLygmGlFigNPQ9pOSnEyqyUfMn7hii3D3eA8UBHH5mriK5RKmWuoFODh3SxmjiWRkOohX26MDco0onHHA1Sfj2VbplVDnoVJ9pkcnmKV+ZZqXe2k1SkJySfUE8e5J0Afu22oN7ccOj2Afn5/Y0X3i67OR1FrH7Sf7n8LFtHSCzR7EaOkfb6l4YlalaBPE1L983QBSyKcv2k/M6Og/1Sua3pBdK/N5K+Y/rZgvo+WpPsqpUK+1pWhaojTRf5gfxeG6xKnj4e8QEEj+0nz/AAfN2O7TulqNeUfbA/snqH2MQ36VWc3AhXCv9X2vmW8iZE+qTX7kEP8ApciVH+z5sIToE/dzp1er5l3MmFPqo0fu20RLvJTpWhx/D2i5VeI7lNtAr2IRUqp64A+f8qtGuDYYvdYU+3Kogzqr5iv9TUuRZNeNTqWkWUeUemRV7I+Z/wBssSpHNuP2z5fL/Vht7uMSRq8i1L2decfHlK4/Yf7rKJkSW+YUimJFdPsqwUSYLQdCk/1tFruNqnc8tBp9L9i0se63q9suvRasqFXlVPowQI9yipWooTT/AHkvDdtslgPqP+XqPqkXF/bQf6qvovo/t0/hel/D/hh630P+GHreoPyqf4H0GSX+yj/kqjx2naZZfia/8g/3XW+uYdpjPqpKVf8AISnzby5n3af4dCP8JXUzBtsSLCI+UIooj4r9pqK1ElXGvmxDZQLkn4KT/DXQafN+9byQK68mLRP2lpgt0CNCeAH+r+XdxCQfF8zbZafyJP6i4oZ4VoQF1zHUP1aB+8R6CQAdOmWPmfi13SZcDFQfvKL+zWroi8WpPoui/wDg1X/GbC0uPiYaH/eaOsmzRFR/YkWn+66HZpP8m4Vx/BiZG0EqGlFzqP6nW32eFJ/lrWt0trS1tz/IiH9dWEyXagmlOno/go6qNT8ewXbWxCD+dfSn9b5m6TGY/sI0T+PH+B4W0YjHw8/98dCzzbVIJ809J/UybO5VGT5LAUP6izgpE3yVj/CH02S1fFJSr+BnO0mSr05Sv4WmMW8mXl0q4ugt5iTx+jVx/B9NnMf+E1f3H/iikf2qD+Euk0kcQ+ZJ/AaOt5cyTH0TRA/rLBtrRAUPzHqV+J/6cO//xAAzEAEAAwACAgICAgMBAQAAAgsBEQAhMUFRYXGBkaGxwfDREOHxIDBAUGBwgJCgsMDQ4P/aAAgBAQABPyH/APgNF82h/q/pZQk7NftfwvsdoGSDVf5Sf0UPuxij3dn8u/zfpw/yRNhTfwy/q0s65VPwD+6/y0o0rub8D+uf/wBSc3bSA/N4wLvD+dfj7qp7eQ/bNpyLQArwKVbPh1QrQfcUM3//AEER+6GOP9g86ssqcjGaj2SJovfMlKHd7/kWQQwgEv4Kq/zY2JUXhuj/ACiP3YzVIkTuQPbr6vp21OPx/ds9c753x4+hd1KLE+E//Tw8FKwD2tEhM2P5/wAmD5rIxnlh/iQUffk9D58WcyRCN7U+KmZM81/jo+K/dJD59zfhQopvuussrPfKyv2f3dt+bv4FDIjeZ1tbaTV+HcfSpWBWiTH8wpJH3vZ4j+tTKGHy2Vy9AfgW8OG+fxYJtNcz3l9iu6ZFdnmCYs+VP1D7rJadP/t9890q4Z0Cen/9MfrxtxPC+n79XdoTPPrcvtsgtikfOE68Bw7bm/dAELyYB9m0Fqk86WXP41FwfIEJ/Kn9qWLnez55P5oFQdP/AMJVlWfBTLJxDqX/AOBAIu8D8GP2vmZtz9QN+75r4fYM75R/u9XeZzh+ofU3UpDgIfnzfLgFP+78Z6uBLnB/tPZ/+kqBLWlh5YI61rPfHiW7RUv9pVe2GQEzlPlz6VEAmIfE1Ew/b6UHzCIfg/yz1QwGgCA/7KfGXS6+vdnD7idl4Il+7xVuKCPkF/5yoZHB7g31cbASAHJ7PmxDtEzXNTKKgxTHZDo+f/wG0RD2jacyYET5GkAxn7CconwyfFKaInMbCP7SjcIUiGygU9g+qnSVqBDjDz+PN6BsAfGxEvnev/0cwxpVwArbQnG8guv5/HLpoRIF9eyzBqDA9kc/Jrcb2dL07x7WuqHEugJ85/8AghWDkn6of5XpqLx3Bg/izcwPHy+uY/68U56JJyweN9thyiAJHIYcf4pI4Dr/AIxwRyF07Z/KVHhwuLPqPirsQmeQA/R9s/8ATIfUTyGjXG5kQfOvqgeYsyJ6fB0EM+rk7pQIIHBECBD6vrCd/Dfx+VEAmj/+iKBXAuz4i5HIjr/iOWBhCafMZD8WQHTnHwGP2f8AQ3ABpk4hxDwYf8aKXpxCRf8AXN8eJrXgP/lgS/tLBMPv/jxYlJxJ3M138Umonc56cHx9L6kP3kTH/NwYEkxJ8VYEqTl3Y1fm9TYB46fK8P8A0fynBAXXopyD4Jj74sZrLFFzOP4oSI7H8f8Ab5/6JcCEeyt3ZTo7/kH/AM3BhPT5jEyck54sO/gn650rAq5Lz7H9vr/9EI4vCuD1Tt79VtzMLoSggnVLcoGZDi+f/LJz1ROHo8eXjg/6DhEZoDPqNykcK4OhjmYPig5KVij0n/WAU5YIl9/8WLyoAFvws16Pwb/FQg2oATvX8E/9KBri0PTlU85AgfRZNZ1xAv4jH/4tqDxwO3ovk/lQasmknEXUuTr11hgCGYdq5YrzB/p3+f8AvtzJy+JdsaRcQH+5PwNelRaT5ljs8f8A5rCYE+JZP4/myu0wJrq69qKHt0t3P82up0p66zDy8Bwf95JII+hRiiDLvaQwv7r16Lm7epl3N+ak8wGH2R7n/m6B1YHyt3JeHq/m+hp86z477/0Fi2cTjMHiYnxBVWW5YlfolHJT5H+bCRgTqT6w2NIb1/4lORv/AOsP0sv5knB85po/yNBP5JRLCkTRP/xvFB71jJRy+fQqWMi8j+EFC4T0SdxJ+efa2A3JkVHCJlzkTxZNeHyEPtRw19RD+19r9f8AMgi+QP5P2/8AzCZqO6CzIifRuD57b8GPn0HvgXb4kfjxR4OfJz/oz/wG4nKneX+aMfRn/JAGkHT93w272/lfGBn277sm9AgAcdsDwT3VyA390v7VgEHF/Pskbuz4Nk3muf4dWCTR2N/ks2p/9FH9UV70nL/g6aOLxhU9fmF4uNawH4QfcWRts7lec/pFMlLluX+Dz6//AAy6Pon92AV5/gZ6bOYKSw8bkfsblYEshPTxNgIUyMnjOOZ8znFk484lOd1ULIT1fqT5KG8AX7Er9WHu6AQlJPhqqQ0e2SqjPwoB/wDy4GzvP8EutaukDyuZZYx9wGSdD92LjQfHfy90M/Q0B4Tofm44syZ3hnvC+1H+n/TJjJQAeW6wXPp+AyPBj5yxQBNT3byfBrZ5jzxQm/lFo3l2Xr4LI+fxcI5ggfAf/jZcxCfiboP5F9FJz4sNi+SPpsn190ZNXT3JBEuo4ppbZ2+np/8AXmxQKhk4nseK6TphTLwavwVeGC4vETEfkvMu8HrEyp55C4z2Pw0ZwMhA9wE2QuooD8UD+aUBJewdeBfWBP40/wCt/q5lfJJeG3INPE8o9ZZX3uP/AKX/AOUA5rgCLKT8uNdDOeLBkceuH/d6s/Ki4CZPy38f8+TsbL9p/VBKC9Nlen6sHIhgn+TFYiN2ifSkvxTTKYwB5s1XVByxFsejUOenT/cfwLyqg1Xg/Kvv9djoGBwB6D/8r2jNA/dL7J0U7SIvKIsW7raDJyj8uWfnHonkdjjJvVMg7PAP4s9Hr+BsjmYU/O1nN2c1J77U4/uGH8n4CoH2iPnn+qaOA6//ABEQJEqVgOYpkUROR792Xv7d/wCn/wDK3o9hAOO9TwInzenYhz4SeW9YIU7DR9GKaA4AcAf8Qi438ojjwc1SWS5g69Z3BxYR7/j1Y1qB1WbJyuP/AKUErwG9L8n4U+UYOf8A1HePnj/8gXhyh/Rv6q86+pJ7nX6uiKwzP2b9FlDqV6PsfgmbC++g35ji+5WVDBPvB/2RX/YqD9ZoM7aV+qD+VuJMcoi+eT9v/ByHVXADtuPoWT+zH7V2bc2+X/lUufXMn/4Xixm4i+A/kV5OEP8AM8N4Enf/AMkHS+TzCrgOe1asNeXzw9qoAERHsmXvcPR/+BEEjyUe4IDgPBStvRS+RfLgbFQj80IvfReFIW5lxvKu/wD4kh+cqA+2z+X4Gb9n9rrHxufy1vnnCP4w+7P0jCsyEwWTEohh7jUP7rHoEfwp+iwYT3KfjioJj7v4P9KRc4AgD4P+JxCKZAeGL7oK4d7DxXgkT9o5N3qL4qIUccWOQ4rhtYwQxM/HikIDFieVeHpWwQ9kJwPB3B/+IgknPP8A6VxBehE/cy/ERZaSR+b/AMf/AJEAMMfOR+1m0fXGEunv201QwOz008T+L2hr9v8A+ElDiOgqkkYhwcI5/wDaYjEhkW80nvOXbGIDxsD/AKkGhOI/jmqOrf6I/RZHaI4P1gvxUnP7AfH+ikB+EPB4P3f8mAmDPukMnnYf4uYoqOaHLyyiNinV/fP7f8eC3KsBRdhoAfWXx8b33iZfE0BKF7o6JmI75sQhL9xifeRxPmjVAryCG+QpopMMPJEe1qGTTY8iEP2tTfBwM7iXjIoPIe1cJ/Bp3pajsig58/XdJcWj/wDCa0p/pFDCBr2ob0LY9Z/YPz/+QaeOYDIS/gug19AyDPls6xz/ADjNHUo//FoR0PAIx8h3SII+DRFEoSvg2GA6/wAA+qSh/wDoYnH3U9KkND2jgrwMPbWeWxwHhBPPdGiAhJbzpvMIXpFiU+mtfif5vpAH+2A/dhinwv4x+lFcWiB9H/HipLg8EdMH6GjQ9hDEOnBRHeUQ5ArbdCZJlCNFxiVEI4beVvVKQkIWesjNoMtaCODnn4sHoF8goglpPIw+ZsAs6Br12fxYkgyhIMmGXYliPBLCjFhXqL2lhnzwTjxx82RwjO/U8f8A4XigQKMRHKqCNUJ1CwcPJjCB05//ACCjCNzjrw9lvc5GumPiPqiY0XPEPX6HH/4fcbjP7bykn4difLY1Q1ZGgfbnzTj9PGjjP9LoBNnEfFVIeDfbSyWW010gp32VwsD8JYS/JenCH/PH9/8AARIC4V5YpBzxQFzSKBRmdz8lMlsA0eEv/DIfmrlH3TrJAzB3KGX0H3etRZEyn3Y7jdFz+G2PMBiTAazyUzEoPpJCMI913qHy5A/0/FJhLAnDkb6uhD+l947CzsgRMFhIRxPtsRxMeoERS6Qeq+V18hUL4MdUwPgCiEy44RbOh6TmR2ge+/8A8UetZ/Yfv9qcIUjRRNOOLC2/iSf/AMfOeZZd/wBHJ8qwGaR8B0c8E5WAx+DDt8f8nQ1/9AthgpgGPgJX6qzQiIf5T+9WaYJXyS8/F6KVhmP3kYWYeNmDvmn8WTA84v8AH7NDDzv+lvzNhTXQH6/42HYSk8E83ydfRPWJMkvGhhae7H8MDjogeuyzlHS9NH2XLacHPafVbWHeQcvl/wCALwdiefSKUbwPDv8A3dBhNJSPF5XUZ5eXEiWFeN6/96SnO+kgDDXlyM2wIkF4xh0YgP1QJ5OkW37DdAkHwb+xYecW2mCCAozqkhAYGBUDY5+ePh8WECDPiNX+IoWjqyT7Mal/j/8AC8WNEp/5xsR/w/8AHUb7j6//ABrefJxEQ5XEnrqpVIEbEKyvUTdTSJ1yJlDviqMNg+eVkx7RVxlkLqOiPHovDAxFJ6CZopBUsImc0P1HpuAj4A8RrHwFhOfId/mcfVAAMD/hhEldBQNcy6AkeA7ea7OLmYHK+c8NjwC1xTDY/j900cdnJr84qjCfJSJ3cI8UncTEPAP83GjpPVNzm7BEkTBgPDZprGP0fhu45A+HaP8APgbvNkESHIJIZfVSOoSed8mWep+rxl2AFcyZXeWz3wzOJSj6dNFUWAdG8OGxM6SHn01X5/kH/tQe4JLlx9IAZiDqiKfjVJ2sD82Bchjpy0dN52fQBTMH6PW3l0lCwTeGSp3/APheLPqu538tLjO8JbJZRBlB85qRwv8A+BlNe5fxS0hnOziX26+iz7bga8nPqyMMJsmzqjleS+WwouJPpz8Xyo9PwcPy0Q/KUPagMeG4bQggHgwHq9eg5z5Ql/41LukP3XgovKJOatPNgCmd0gHD4pGMAjBhijTw5e9EAxvQhr1QwZQvh1NS4oCA7OR2KXIb6gdcuT01Dh7zk/AePik0OGf8eLIyQD6UL/5yPL5s5uLpOnLSSAIB6Jf5pWE3/TV6CBCNTmBEJCOOTrzdfCyoeZDA/FnEIoQrG6bWEWAvx9TD4FFwV0ZYecLjXEIg1lJc2dUx5xKIXln5nKmnEE3Idkc1J+IAapqHnanKGEN7gw6dc18lNSB8a4o4eEAHHEMEPUvdSOUZ+Ly/6/48WQCP/ql/NlE7EUoT3P6vghQqfef2Kw5pKX5Uv/GhGy+hwtC92SJxpZBIkkgxmU12hI1KOP7vtoQalwJWXwXw01sPj+Iq0s8XK6GfH53/AAXhP6CmDYAMD/kiD+8/3P0ppBfOBJUAnrFNrsWVlToFeTEdw0HuJ38n+i9tvMgsZ/Nnu1USR+jn4sboTaR5HMD90RKkhKOIfg/K57IbkHChzc6AldcRDawZUN9bDI/u850BZORurACTGA7EuD3XUyFI+2HmqrlInyH0l6KwvTiJ8lmRIMvq82HkiwCkCR2/6svFD45/SuJkJRPbmmQZSz0sR+6jc6S5R5nuGvhCVBw/lQHJuQ6YQ4e3E2KGrLzHC5GWEc0ZGGOAkeENAvbTl88n/ioz5J+ZsMj8N+r9qu52J+eBD90e52H6ISK0EQT1h5UyLLkYMUwQkpnlSKoC7M5z75WnQOxH8T+hYdIdP7Zx9UAIP+iax22X/wADXkooLc7kd0gF+Icvnk/P/wCEEXDlgziyUvMX7vC0Q75vw4/FmMXD45AfuvvDrzx/IUgJ4euhnVMptkBCmNHErH9YORdF5O/JTBAUBEEfFbIuQSVMfPncmoyfJPOdzR7H7VPi5KExxjiVRn53UsI8v5uvFeMV54NrI5Hz/k8XpaFOmEcDnxQVXTDATXo7D5GvrpuoccER3JDu+A0QslkTg7ZccM4n2fLHdk9IM+AYoD6lqA6kK1SmU4gJZmcNhoMgApTc/WXq4MAPgK8X/MLom/Sz2OYQ/Dv6qXy5JT2DFgAExBSDDcmD/SjFecwGfRAVOFWveB3PoFQHwacy46cIdqB/cOTAOPqiaP8AXR/f/wCPsMR6H8h+6k8mPCpLw+e+g/8A4hgCXidxPX/y+Eeljefhhmyc+E5Vp8+L0dCcmcXnLtWdZywgHgzzYy9JxCNXwufuycp5DJpI5HpMqoTaT0fl/D1Q/mQJEemym89v2I3+l7s3GYX+tMIpk4+Fae50k+t+6UpHjjoePfqyRezyTux/F5FQcZOpmZnxX7ToUo6x2hRjucTP/wAKls/ko390AJYz7KwVVC06TV+aQAQZ3z/zkxkIH21pFz/+a/auJ6QXj2ZQ49tMP4AfjMvuvBzKI7m9U2AFZ9BRHs35hFAgyETcCMTzNRI1idCPw/BS4HADCs5JTCxxFFPJAR34H4uirR6kh/f/AOONT+FvHzFNT9FN1k9ml/u/X/4hVn0R4S+m61AZgkfMnXi7JEuOqD3g1AI9Ly+MTJtOgsIUciYqQ3v7aPXNyI2Df+/IsirPAT5B90ElXMS4VhAnP3Wx7E8IFYF04LBDlhwp2PU1rkip2cE3jYPnP/t8hiFTw8kZwlFMNzPQPzRow0DzEuWQGSUI8r1+G8iuBx7DD93CZAwPgP8AhmuEwz6cv1Vi1wh/efipXorhfs/IF93J/EiwfX/AwYqwnbCD7aGMIt8KDYeqWLKlNuFGXHkoh0+TF88n8/8A4V5+tRMv1WoT8rK85gONCJUPGyf/AIybicrYXI4K4PMI4rxdGPOv9v8A8Rlyh+l5gPzCx5SQw3lSCECZiw5o+LHVfG0EVnufzSdMij4JDnkWRWZwpOTlwfl/FWXyYYMvo02xc2QvNeIayVdVPHJJieOaFAhKA73LlEc5Tfwi8kYTAh8WcNDo3Oh7iyYmMMvHO/wb6hXs+bk4MD6ACXuP+OkgK5HydY8GZNJXlIvxHvpPWBIIeRafbUIemRHtyl9stYA8dl8AY/BXtnHGe0MZ/DYCHwKD2MT9rBZ//wBl/Si1w3Bsy4vBxDMjcPnmzcyu1H+j/wDC3BY6e/2AKRZQiWFher/Jy+5xk6z9R/8AkZXmxx7/ALfq72FiBlEtZHQH5oJZHZP/AMUEOBgXveZg4qjsT0GPyiwFI8/gf3hRRbFpIdCT4m5WCTMwERx/6rR2EGMcw4H7sYMMZmHDzGPipHBpns6UPGWXUkBmfBuT912k8DeeRUT4SjhKAwA/531r/cNix/gUH6G9CFfiRwvxYQhaAC+gY9U56YYBHeBfPlRoqgL8gHn3cvQn+l3B4yjQOwT+/wDaxhR/gT+3/RHMO8FLkXknAfTEe7lYMvjk/PFD2CAej/8AA8VUcuR54n83mdAdIP8AOaUZEARayXvfzT4I91wD/wDI610ef/SoG8CH+zKvzTZZ/wAaPU//AIl5C0P8OllHfiL5HsfzYHEJg8AZnamM3mTLeZFfgZXy7LPAcV6L4FMjG5dDw2/kNRcPMjgoBWBdMHxv/U6xMWDfaJf2XznmfwTREvOrKfJ7ftW1cCDr5ji8GoCDPk1PFp7B0ZI/NQ7Gwp+EfpSIHwA/gD/8LxZy8OiOX3v+cNOWSCMLBHgpZkpf8k790mQChua//hYDCkpJhMdRKLCaZHOnw+xfuikLpQf9mWfr/wDJ/RoYIpqS9BquTwZ4/wB0HXAXr+3H5/8AxJJ2w+79ry6Xj5HP9lvIuKLzIAn3reBOeT5uT/z1P1n8rZQ66/wZ7vhQf/g/o2UEv+JH6UNkognFHOfCPxSbDy4/so+sHzY2SiPgAs/aRpcN8H5WW8f/AI3inaLM3uh5OP18JwDn/eC9eKjyf1n/AODy/wDGAMw5FA31/E0eglvmtzsoDwhnjvf+SZVd0Dblz4YhxB4HPmrPxSEeXPWDvG6NV0HNkxjz9/8A5USoH5WP2LJeHf1z+H/5HgSx/KqmGHp+s1fq/Bie/wAkfVVOf++k0n4SL+wn4oCBeX5CD9XFBbCHyFPmvZQjme8Bn3N9W+b+j/8AKEw0qgD2tl9t+yT5T6347TsyYc887fB1SawAIkzk4+tKCUrEAOCsfTH2NC0/6Rk9kFjQb7DsRPhfG83LH40O6Pbz/wAxcEeRLB+X9F1M0HZ4/eWMTCGNFYjj+bEQYjwf/lRSBDKGWT9D83WKks0pldc9fksLcZXSmn0/9Tc7jB9t42ohRP42DFOmfrAftsAkv6nhP3Ym1PnA/wB1hHcAlfHP8X/IAgn8FDhflAPxz+lmOwmdfC8PxFTongT6idf/AFZi80SnyuvyUgYWxfm6x8P1ZTORXxp5ogk4f/xlyNKrAUWJQMhPbxg7ia1R109K38TNdEDHwAB/Lt5LdX5Hf7GjwIGgB0f9+UH8E3AO4/piePL8XPpPxpk0T03RAnteh7aLDpjXA8BpXO0/ZPnbhwNuj/b+o/8AyxOjw/zNLwx4yH35+7HjraMPY5TCx7bCgJM1wj9gz90GBGbk+ON4/wDK1ykQHIklmOoWrpysBEPB1/jS4/HQ/MY+pp3OJKT8LXgvsRfl5f8A8AMEj01aQUj9HM/1WReeaWO8EexqkJvCDwHH7szH0J58BA+r2bGwvuSv6LtQmIX+Zr8N0gt16Z/VfXGf56rT0269NzSeZp4n10v0Xg94xM42m+7pZOOPlcP5uPCh01/Ynl/V4ILLAD8wX+v+pwMCOjQAAuBWyxzTZ2Ge/H51NCY3nFiO3v3RCkixPUGC8B808RwHQcf/AJaSQ93Fv8cV5j/ggCV4CmH+DFivoocqhY4psZ0O3LSO/EmLjU5bGxtViH/mO6oru8w5vw788/8A5DFI8B83QS2vwDw/dXEPCmfH+tdyVkKgmeALlehekh/BQIf8KbfJTUCh81zZJ3p9IyoMqhe7EF1rAJ/IfjP6U97Zxr4zR8v1eHzCB9FeK5gXGoeYIT4vFXxdSeYfEFVjRQaO3zvi7K1Dw+Zaff8Ax4r9F61efA/oe7J0UeqfMRvLBxk2SVU9DnJeO/Fhf4r5fT10/wDzUODSTKxAGcf1RQtzQBKKf/Tz+3/ZDyyDl4Hh/wBvNNnJHSLoVRs4P4ufFQ57RvaD+Tr4/wDxQ6a6dMc1CRy+7QoT9f8AIlPEk1dJv+LNzkkfH+LIxOBp891Kn831asg/X/Eg0Hgef+m1Ey4/SGunscMNiWfzxS2diuAQdsl+v+jZ08XJ/j45bElCE4vPkef+AJWSkSrn4bk6wx9w6R+vv/8AQyrFhHRGpU6XY3SBy6aM1QM400iIvPAZwGsT/F+BCNIZh4nj076//AITxBzdqSI90GR8wAT5VmoZ5C6DiZ+4omhGMAf8xDBYOWLBqKhwLEOmlNAm5TgHK/H/AGPCe1ByD5osLOsk5ASvzdCOPAJ1jy/91mg5eEPMVODEF+2/riu2DVOZk8MeOPEf8aGtjDx08SdvBWbgASXk+Z81J4xB+7A30tVmhyEnQfB47oAwD/8ARFoCGkD00dEuvoP8H83wWJ7+qJNQhE5xHroeTlb+cxdlDh7NO6cV5XKPr/pNEexDCfSlrSDPGt+VynOmzIQJ3Hf+KArxU3YQMV6BjDZejN3RgcIf9eK02Ohz8Hx5vEe5ID5OnyFyznS+5/hf/g5x2PB/99VZ5kOJ0nqHT5RQ43BEnBqPoNe7LNFIDcmJYO/n+LmRo+fBPXp38UuOAHg//RgphhRIjekAtyZYxL8TnU8VeEjWCc+Z7O7MSVgefbD8VuY7zBd/+n+bBhRkeyeD6YfJREkqKFLnL7X/APBB1kS78Ur8VqCYIg+UzS8KFEHoTN8XBnq+Euz4/wCRO1gwO4WQ/FZ7Ii/fs4B+Cq8PVpkfLp/6pYCVcCsXNgaRxJ5ZxXB3u2HJBgxq/lTQRUUJ08pu1n1Sx5ImIyI5oEkeGTlk5SYHHmgDAP8A9JgTDpsfu6htckhQXweL9/iwyAQuDlIkHo/HVFxQKW5E8Eo7HixDtyftx9iPV4l7FQPLE/QWRx9Afk//AAICDUVA2EAeA/8AwvCsRjY8TfWJH+E060YD7gP0B82MrIDq+reR9Ck6UIHsaIPjj6sspy3V9zKvurnaS8o6/fX4XXU53fQ9H7//AEzn/YM/Z4fd3Ym2Cn1P7e2v93EPge+yZljmpX1OEfR3v4uOGCw+IR/M0oTDlPeSx7M1YUAla4c/haidvcH4P82wA2+h+YKoGjyf4i8xf8/N5hfD/wANmP6K/Cgfm0H7pz6uDR+AlpA1MRD0clSd/aZ8KSPiwQKPiA2n2JeXp9K/Jdfu45dhkewEH1IjzS8qQyPXJ9H5bij8cB9f/p/iv8NPhNK889PMeYEn8z81SFdmDyyoDWMmo+llACIzs0CavYPEwPxcQ9sZ+lLNTk35VR5zgIu/cLMjIwkHpRq34bPhQn5rtQcDT8KFmZV5az5l0afKDCnc2XsblUr9v/OITA83ZhfobCJPPyWvf1Uw1ZYavK8r7f8A9RgHQbBl6R83uN4RMfkg/mbjEeP5lmTJScA+HWLef9mA0kgmYHC42M/VKdwnyONfNRCdInh/I/zuwrBc3/E0B8Ks/wCDmwvcQf4T3fAkz/Iv/wDAd//aAAwDAQACEQMRAAAQAAAAAAAAAAAAAAAAAAAAAAAAAAAAAAAAAAAAAAAAAAAAAAAAAAAAAAAAAAAJMNILKJAAAAAAAAAAAAAAAAC+Qs5yDustNAAAAAAAAAAAAEfrbjpAGBQzLInAAAAAAAAAAAb0ZNlgC0rYwaXSTIAAAAAAAADjipdFjafQKCAAVdhj0AAAAACZOzBe8OhgyXYCPV5lnOiAAAAlMG55GDAAEJbL6CovAAcmAAARTAAENpHDouj3PplRmAA3CAAAEMAARRBeDTrP5/oGBrhAUfjAARQ+FfzAAq9FvAanJ7eCAQ6ID5mrlo9oQRhmCoqam1YaKcsu5EtAAz5wHYbMwIJPpLXOWlBBAAQhAAAN/NXRO2njSgv8rAUFjAAApBAAkWd+lFa5yQhQEBA9WCAAABhAAWyD9mojgAAFLxEhAQAAAAD+OdZxTAbFBKJreXAF+zCAAAAABBQHKAAXicV+HEOmdn6AAAAAAAABHuCWXggxjFZlWUiiAAAAAAAAAA75pDQG4yALXqoiAAAAAAAAAAAAybLxrq3JCnBAAAAAAAAAAAAAAAAhCATBwzAAAAAAAAAAAAAAAAAAAAAAAAAAAAAAAAAAAAAAAAAAAAAAAAAAAAAAAAAAA//EADMRAQEBAAMAAQIFBQEBAAEBCQEAESExEEFRYSBx8JGBobHRweHxMEBQYHCAkKCwwNDg/9oACAEDEQE/EP8A9bLtToBX9iwVx9Wf0of6Qu/yif0/OGU5P0+l/GmOprMPyf0Jf3J2oOxMf2f/AMHa/Hb0Pzev7v0GHbvyN0+m9v3Pyiv8fSG/Ywp84xaM+dzfmLn5UiiT7Yfuj+/c4vL+j5ncDP5T99D+CyzT+u1koNOsX+pfun84lU/zP4PT+dtx38Pw/knD/wDYcZ7BcI+78P6p9OLOEcEEC/PJn1znPOHY9d+5oPHOnw/Q3kwxl2fhn9AP5zYUqORe+xzeT5/eZF2WgYg6BvKpHrngR+tvvpGTk1w737deFbFd8yfdaftln6+06n8O/wA5+oY2FeqxB+UE+eMB8db+fnPzHPofU5D+X/01C93FD6cDz9B67eeDkC4EAp8PsPSuPjS7H9LULgfKDt+U1+WeuMg/VO8+ufOQgsfDq/M0sH/vHcWnDUE440D2bYOW1DwLg3tc5euDjfqQUQY04a3fs1+enO8MER13g71/L5ueBiuqMUN7biad4dKlzD6mP7hcq5nV7m/VGJfCDdOQHcfBcBvwPojc0szjs/6hn7n8nz/8lmxPqYfKfJ8A7eJeAhVmAzs7O5fxiDf0+gB0AcAfQuhAAHHpq+n2Pz+MmigfmuPGMHrfj7yLhB6j8uf05/lmfedcwBuL5+65/SS41v5/2xsL83D9x/oSiwvmQftg/kIEOiGvsI/nxn8+ml0eE5R2HyP9Oy0GcO+/5j8+boXBpdrz9B/NgD2fR44MhRS5w64/VwffOE0gQTn5ODDkO8f2/FxWi5fQcr+3X3SDoNc/Qfu5gPkuM2RKgwxcflzXV5Pq82d5cERzHP5K8flvSQ2WNV1ejfq/L9jmYgA5OOhz8D9DTOj4K5AZn97z/F+R82RG+uz9r9+P1X7H9stfL64/UXzdnY/+Hz8wZ+h3EHUNwP8ADofccdOttpE8oIH1MP33E+T65Dt8rn9m/uC5qn0Gfy11T8svrsI+XkfJZ8LaqXe8y/g1/Yv3RM/uv2EPtPMWFXLyGry9p+QF8wEfwPD/ACfhADuNZ07T9kft+c2p0L7J/BvV+YWmHaTlQ7Bzr054zdj6fAFU+wiKYiP9suBF5+L/ACPR/jZyZx0fmNBP5oU+QRvo7juN7eeVfKKvf4EsF+uYfuz+qT1r8P8AMfmeB8z+jweIA5+gPxxqCmu2IDLo7z9d4gkGp3D+h0fPfZIj9aKD8zB/L/LbJT0XMftppv2ferTi/dPy47Wf+P63D+34BzagH5rhJGzIoGfKGacA97ju5h8GRj6DgfwZ4PuXxKgB1c9NX1+IHRYfRN1weOzDfn6p5TyrE1J8Ar+xZ6/eM/o/whyV9Dh+7VPyNgyC+Wa/UHf2H8TSNHoCLx32zvhusAuH2a/vr+gWTM+RO+n6B+P6ShOWoNE7DX0343SEblTecXDycceeE/aUIGLTKtTA5OWtDjCbkXGfZ45P2Rfojnx78DEv5byfyaQYtQ/aL+F1+DPJo1fw4/siPht19ld+cPt9WL7CmpOj6PPxvJxIdKH1YbwGBq6KfN1BY5y6EP4zPhgBA46NX7qGL+fT6bCub6L/APCH5RNQYD79s/NlE1hredd+O/j5+1su5gHBRNH56fhIuLLQenB1eVHjle7vwQY+OdX76c72XHQvHwdD7ctz8p91v5jX+5I3B2gAQ+48nn6OoiiYu+3Pz5VPqNbqELPyeQ/ZPW7AbMN0Id+5r+X6x5YiP5nvM/lMfCuOfyd/H1i+6jvAVF+/Q5rvQ5YAOP0u/ku/1/hfPwhBfzNGvy19m0nf0Gfk1zg+yLUDX+f7wfIohuAXo5wfwS/8QZ+w6GbnPPfXDbTlQpQAuLXzyvDFy4J3pmj7K6+nHOTp1A5Pkev2TUrjgAfyeX94AwZxOUaedM1OM3l+9ukaNj2HJvzj9yYXTl/UC3+Nj8z9md9A/k8/sQ2D0i58HDgOc+Ojmwgct3R4pxvaLd4EebVM9n5ac/zvfuunUOOb2N666XBHJn+7+6PG43dXncwDnrnUDjmcMr2P+qOcSroAOwRv2D9/iaUrnFz+mn+i5ZiMDJz5xN5fPPPzsG7sTcbvfa9fSaG1nPhpz+ycdMx45mnL9h0XXHTplmBqjveBwO3Bz4xaTYKdI4ZpXhwbxq7aJDdz+fH2G/eLXMR9XLX9Q/RzYIeB+v0f9H+M4ObF2HB+XI/vGWACPfCt+eBncbWDkAum/VOJyluzvjBi/wAp/BtouYYp7De/wc95s4VN9ZVDnk5J04D5zGjOsGtwOELnBc+ZZ8oW/dzy/wADDVyvw/6ICVHy9f4Ei/kPytEE6x/Uc4/JWJwoYq5935/YhacL/LNP6mfzZKmrTwO9bnI8cfHuk/MHPyb9T44feHiX0Q0RH7i/kkZvA+ho4j55F/WwGF7c8cbnaOHDk+VmvzDeNuEf7POOidkvwE3DlTnEOh8PXyddVf3F4+h3gfzA35PB8BMN+w6zk+kK1UQN5Pk+HnRbN3mD5zg/yL+z1FaHfAvLz30AnOvzp1CYqcGuudwM+u6789RmEwF44TlOelNXrjqZ1H517PnDT9w2W8+Tf6A7GVz4C/y0390LkrT4V/Zyz6cPvsTnMgGCLv68c8r9p49yf1X9k9UfhD8x25NOA/bjf6nfueqb8T/G8n8m2/AgehN+9xu8fQhCww/13T/BfzvMG8BsoprgAdwTHh0Hu4kn+Zppx6wR6+EPpEdE8FeQM70d+W7MP5AIOnC+VHD9ogX3gHOl3a8uOM454lWYoXGuqPD8cnxz39YI+FCwHnpGfwSX8Qjn64vyfPT75An8PlfsfweF+1zUx0ZD+XH7bIGH1Gq5Tk4dnx0vqSOdcBfuOGHLvx1noG4H7ifovj75c77n9B/hv8/geNQ8jjPj79B9sfrdy6X5jnvP3H8yxL9cTk/L7zyPrM4U89/UOfdiUffIc458AoedTiHGM84MMMYKa5+6scadBo0ThBBy9OG2YQPO837Gv75O/oo+/wDURobnRzvfnjgz5c/KLZxmvLr816+0MO3wc/q3+qctb5VX+sP5B5Qbh0B9UwPlfzulTgH2YB9QO/lb3HXl84gC6fB2D8cGfzB1dT5b0fmH7ATt9V1/n8B58APzXP7j/OWJOB/Lt/PGv5+gan10dHDrkzo7Hq4AgCMMdGsMPzsA59Bv9+B/W5L58pn9Rx/KQ1oXBrOEHhfRxcZQD7z+x0H9eJIfPYcH8zB+DFcHNOjeutVfgFfBGZs5DcHwb14+gN1St+kacf5HtflmrTjEtAKc+c5M/Lmfk/Gjw+dfL2/H04ja51v2Qfh8IfqHaVn4AfR1vHGjj8JNDAA/lyf0WU9hYa8HwB9B+8Zf9Xt+aNyfL0khigHhPh3FxOeh/m5lB7+J7T/QM+vMKu/q4fz+X+iKftA1/qP8zRvcK7+S7j9E/kZMXNkHX6vz/PAdjElnQc9P9UH5Ln1XeAZzn7HH5IMLVw+vF++ZBB0+mf6lv2FZB0zo/wBXPygZiyThBy+hovzp9Z6inIG/CDNfzcOV/oceMmBJFHg4DOjeX8g4N3WZAV5QcBvb0Hb8dRFAwpxxjP8AI4fq1+b5CHB9BwH8H+fxL4ccCunDrxyzeWDSH3e/2M/dNVC8QBfZgD8cbu8mwKMSp235fzPB+X50yhv9T4R+R7E4T3gmzoafKd8cmf1IHB9A6/sR/dZuyoZ8P14B3+cTXJ8bn+T9F8CR40Gvygd44OsN+sAk+mcf7tffZxTVs4I46F5TTgdTTHc75hkVcjjk3gBxmcr9s+bTAva8A+U+A+Vlgc2ic9eX0fwducTMrTmZx8BvyYOfl66H/wCIo6QCcGJ8fhbx/L+rvngHYa3fB39fm9uHAVx9wi+o/wBxxPkhil2lB/lDv7/lNzZ5Di3HQQ8anOOdTVK1+bgDLTtzin4esfs8J0HFGc9J6H1w5X53iIA0Pj6/biFucZrhvLznG9a65ZNT5BPySarE6hxr8b9c+N6g2ETSwDo3N+ADV4Llok4GOdP+CcaHkNk60PMDXmM5Ol+Pz3/5ijpJoeg7p/c4fPfHz2a4AVM/No/qQJzuZbTHuBsv2Ji+gRyTH5eR/LkP8PhBTbgB670BXc5XbXcNdGAb8js/M76hK8nJ+chMg5LodE3r5MM7tJUO+g/NYf1gdSE6ezO+wdYbvwIWPA5wfaZYPwaJ3eTa7uOJw/kPh/V+x3/9eGfWq5X8fD9zH7ywEGPHA3NezhTkfyRutx1ybxqwxrMvHLb+UcUPvfO2cznEBUJ+hH9L/eC8zev+9x3X8l385f8AWW3A+zfwof5ccw+mR/E4v0zf3u4E+ef4ekft9mAbQ6HH5B1/Lq/K/wD4OnT9Un9m1nP7B/qZ/VCCbxyadfvARNvzR6AP33+jSNeC/QH9eX+t9yxJX93/APXP/9oACAECEQE/EP8A9bI1YXZ7/LmJ2P8AH/b73+k5xR+3+ZfD93H94Bq0/wDwRdyn3B9+2cP3jn9O/wCki0L8jD9/8JR0/n/AnP8A2Qvf7F/suoP5jT9/8La2H1Hf6d/0j8O/c7uXL/7H86bY3f5X7H6yFy/R9Xo/jn7yW8n1+f3ZfLGs5vjSETe5xx3/ADE3w8nnzS+pw/uSppw/b/B/nH73UEfP0/M7P6n3kOOP1+P/AKOl+Pl/0RkTR8PQff7/AG/fLsnl+X5/X0uhebsA+53GRML57fv+mGUq5rX6ydwbo/P8zwKtsgk8fV/zISR+d9CfV/k6T7NrkxOc+H7n+PiRx/yf8/8Ay3Vy9/lZvy7/ACPq/d+D+bP2XKQd7+X0+9pfyN3nx3OT9v1kqdn6+0f+ZsHM/wAn/Tcaw/R/WT8vP+3v9SH0mK8Dv7/Z/v6XJXJ8/W1jb8+I5YJ6/EifiY83PX1Xo/XwXJhr2/V/XB9r6SD+vgjp9CYNdej9d/m8Rr0/ny/4fsxzFX+c/oZH6T/mCzU/nf6O3yH9uH9uv2yb5eXk54/fkf6fncEB9+Li9H7f56lnGfnzKBdf7f6lYl/UyXIffr9jiIDgnF9yj8JjoO/zjHX/AKdv8GH727I/rf4n7cB4+Zb3fH3u9y/HwH1ft9D5j+O/l/XX5HH4CtEu+H79RQ5uejnPpYa4Pv8ArZaL4+h/ljdQPz/7aOTnqJ+B/o2wvl/T8AouiUV1z/Px/XLSe85/Pt8PrIXN4g+v/rz+W/SPP5+X9fTr8pBysvqh+3Mq5ifV/wCTxtJ9uD/RMi8fPy/4uT3+br9iTmYfT/k64+5/5dW1/f8AO0tyO/XuD9YHPpMfJN9UE/k/Bq974/eJ/V/yf49Ym8vEMKL/ALeP7f3m8Ob1nL/WeAv5r+v6WfP8J/mzMH8/9swHpsA+vzfHfg6/1E/Lcn+7n3b/AKLkDL9n9u4DgnH15+L7gd9+z0Cg+dPy/WyEE+feZ9b/AKZsej7uV/5cGbv3h2j/AB/z/Mlqx9+/2Lsj/R/aK6PydxkYXPyt7jjeOPje5svNn79f1sT/ACf9/wBLM/p/5c23xu3IXPN/P6f3joH/AFHH9b6Y9P4sBmPz+vysX2Wn8/puYPr4Q7tz0/W5j2cP8RZC7cED+p/X8Xab/PBO5z+x/wB/xc2OPvGEcPWEfQE0f42HQ5f0ft9pcMhz/u17vY+vEybnw/x/y+ix0/Ps/rAw9v6JflV/biNo3snr53ZhPk/p8f1gLvCPH+YQmKG/Lv6+92AxnMLkcfBzJz+6/wCC5NX9PpNafy5YHOttL6Of9Sajg9/P649APrf34tE9sP8AU3zjx/uSIt/T/Fs1/wAfv/iND9j9Pvcg7Wn+/wCmW3bThic+eT8+z+858sbHHHzPz/jMnXAX6xf/AALjwf1P6/iHIR9+D9fwzf6f+buFmBv5K/2mN/VfQ6wmQH5tH9fnnv3nJOiPH8nJMk7gH5nN3n39P6ZIOAOP9f1kxOT9f4u0AA/2/wAW7Ttvf+oPzAy5ABfp3/SL3P5z+r+Q/T/Wf6Pzdbd7PX8/P7EDHL9/eUPlX+DgvyQ/AgHzj+v2h60m+8b9m/m/W32wVfv/AI2xzmtWcbJCfk/pcMg/VuH3+QisH9zNCVP6f6J7AH0LlXT94jBhFt8vX6+3zMR+d9//AF/pZ5oDvo/OVHxwf5/3AAB+DcPw5+9mrvh66dxF4ofP8/xcMj+fETofyd/7llP7vP8AmV3b7dF/6h+A76vg/X9+p++r39M+n5f3+TMu+z8v1taDjMHf3mtgvMJ+jl1+1qs66/n8P3SJqME/tC5B+3+eregfz/bJrGH7EgIf1fr97k9fm/wWJBHSFiRo6T/P+kSZwo/0f2eP2ZZzp+Yn9ev630B+9j3T+Q/36iOFn5cv+D92eca9r8/n9f6H5X9ZF8KnuGWWPL0ff/Hy/S3zP/a9v6+l8DX4iPudxudfy/zZG1O+d4mB5D4+j6fmfH24j78e5Rzjjc8NfbiIGT/J/a148PzYDmv7/wC2S1NfeCPyn9TiDuc/Twu7vZx+R/t9f2mDsevsf9/+SNPj5+33/L+0N3f5df4fd19Y74J2PZ+v2mGB+sxg64v1/j5g4uBNFxtkGa4+/wB5NMk8wL4dwkBPzMZXY5hsOXoP1x/a+dPs6/J9/v8AtCjgfB/tl/8Ame+B+n+Ivvx/Cfz/AKdJDAfw7P4/wsfzP19vA6fp5YHk8988SCIyJ+vo+b44/v8AtNyP7v4Hx+bKPnd/K/m/6MIM8v0fBL/9QMH8/ML1D9/1+1zYD68P78P9brgPvn92P9b/ADIH9tvkMnTqfkL/AHyUdn7f2b/e4ovyOf37/rOaf3P/ACBz+T5//BFx0vpT8pjqH7Tlmv2InZ/Sb3l+cPjh9v8A9c//2gAIAQEAAT8Q/wD4DHiogocoHqZfVamvH2QiPhXPnIT8Swz8n7aOr081J9y1LJ8QKmCgjFbE8EA6nz1ZbC8/hCZrCaAUEPjQPbFegIkIR6H6CjWAEw8iw9fZYMp7Q34WPaF4K8Jc5mUI7k//AFIGr/3BQ/BddVM+1CYzdhESHlNkgtLpHoUvhh6sJdoNHACj0PtqYXlAvCIP0t3jiirAwmZLw4sIxEi5fB+mD6rwwGHnoB8TVsygKSnkCPAnuaYBSxBEvlZr0EsCnAVU5d0T5j+NU0c2YP8A881CIEzEbPz4j7oeJAyTiFEfShkQjiTwX8lh0UBaf01+qPNMPEDHzIE//Tm+zvJYsBZEIsQPkz4vhBREEiJhbBAR4H7vA0nuqmwlEoTHLBNWMcW8ZZzSSgk4AGxDVF4dyCB+Xgs/oxpGCx2O6yU2WAQciNHWNbH6Njcqk33u6Yc17PGT6i9bIEHyHVQkCeDPwWLLgQRg8x+mVDT+cHUI3wH3Ve3AoDsXo5rESp9nSbjRVvNbO4HZgDQOePFb4CYDSJUfZAPNAEDIiWZ87txIoE4ShBydH6NiWgEy72zM3zoGiTA5ohiP/wCltcOobyx2Y3UyulRrGYQ+oky8rPCFAiUTzwQNrAfBTrOaCwnSsSiEvgxGfzNAHiIAgyUMGlm5uK4rA8sYAAe6NaIQgPMkzdyqGR5QdJ8//hYkqAAMvNlandhT+If+vDRcFED6xKfH2WIT0w6D4Kumv6spkb3p/GOWUVDsDk+dB8F4V0CREEUxDuFj82QLssxus9f2nKpeBiwqSWBSfiY+HP8A9JRJAEq9FnLyBEEiBBAWQ3Bh3j49iZFQcrLEAsFRrgWUCTJHwAM8u4CoUOCQLcsRW9oFYRnJ0xwWEE/EeKDPwgB0AAHx/wAdIrxqWGoYiY9nij4ZHgEBFehFccpgGgIgMbE534rdaxA8nGQ8hnpnKJxIAW40Z9JeStW4qY8IQ1JIYoFNKReEq9ACf9ah5K9AlAeDl4PssLAxF8AR/FMNxhgFVyC4kcwATZokOCBAJSJy2+JQWy6aUfFJBDgc2Tl6wyYSHpCS9JoHwheCc3oOEHHB/wDoyJhPgCVVwArUoSMHBGfI42QSuAOicbeBw/FRCItJQhFexwSDqhROI54ThZ1uiAZNCK8ZIUAlY1d/68NL0ZgCe5T/AEL1YPJOA+DGA6MR3YC1qe48JOM71/3kppugosqg7kpx214uXces1SRBfVDAcAYAcAHH/IbwA58IIw9JDxQlkqSchYjDL5UD85hSLODopyIeivDT1Aw6h4AHrHsbNc7MAvVS6UvYlWyUqCwB0RHDB1LCZ7KQ0lKTk5Oa5Iq6QvCTz0nPCmFaM0D5/wD0RywCq4AWXu2ydCdDcvYQmVOxYMjFRBSDGtZiObD76QeZTlsMCmJJmkvBOx+RmCgEWQukAQWLt4MHk8Cui4kMSbRsYUaD7SX2sDtK1VHXAhIMCT7mP+clUo3h3mFSS7IAbE7W4mTLxkozhIIqI8wTKgagULumcf8ADeJOuBErpOms/ovuzLP7Uv1lfgMIHcvimPyEP/HhrD/EjsH+izLnM6sDALswBqY2rIOpZRIyzDOWEMkZXOTFQMZR5/6CugBIhCJ2JSX0CmNL53lxyzgOS8jQ4dbQoF4whCT2niKphYLwSqSddLGgjKH0MK9IbyZhRkn/APQ+rHVJpHM5n0o5cP0SQQBFTMuZEiNLz+jPSPE9Do7izSTQhhycnVGFONANrw3cf/uMljQckUULuXeU2Kw6DCHl5Wkoh0hTgT/szzWC8yOX2/8ACCrFWG8CdOmlvZ9fsSKAB6KB+Vi8SY0b9O/qiJJXigGqBvwLsjqSrxExDhIA4o9RaEHAWdI47Hv/APC8VgqSaD4BoJnI5GCZHwnAiJCoOCdkaoEszQEgQSMwRJmK7tSEF4eHLMPGGN+0V4bkWJMO8AV8DYI30yfMh7qk0oLTFBJOgGn/AObNBaJMoQg4kDyg7q7YGinBInCqeeLlVTPX77aswiN4RBZJlESkx9jCJc/4QTIhIkRDXmAeprI7zYEtER2OQqzY5d32FXAlDo7dpFHWVVw0B4lSH/AXyQ0XlABT2d5AkwzFhsbwsIQrjcr5+nZTsirvZzHAl3Kf6eao8zKfdFTCXBfBAmy1aCUjpy33B7qwKYAseCEfmpBs6yjgk5qjtohvukTY8qa3UyRCAwImvUj1SJKXEOETEfJ/+Pk+KE01h/7iDgdTA4YEmBQVBWGS6104cFI0Z9Dk1ggweE6Js3hIW6OlDlOEwisVk3cQawuhYR4eLvIDoR0Rl3cI4O3/ADnUn8aH9R/+Y4LSYDlatq5zi3LiR9jHVS8nxDZNstgbs9VENZYJTsDi06ikGAgirGvFAScf8KyTUeRxriJ2eoH4ID0V4rkrF0YZRxCQr7RXlgCgB5cHzNJX0Rxs6eEkHttgNEUCnRMHkg9BTCqSAH0SnyfVghkZo8Io+Yn4q5d9lD+BV6HwfamWau0hBR8D0edV6BSoB5wTRkjcs7EIgeQg1oTkdKY6eF7h4NWxR07SDZT5ftNja4jgI14ByxhOf/wHimsLfKmsKMrDoyPoPaUgEy5sZSBPiQZ7oD11TShwvISZwPVH/wA6lREBEuICgpBXMAOjgVMhSfYO9FmE4Q5xVXsYknN5Sm9FJH2I/MLMI1IMXgUT57rJj6xANnspGl1yw2fz/wDlsdCIRl5x6IPBHdFj8hVkAcsuZWQRQSY4RMfGRjHLPGCtpgauJSVdrWfuHRYB45PMdEoD5NZRCiBBBGQl6om/7JP+u2eKOSqcVWLYYiZDFRUkx0hjEc7acdt6R8HLWPQLKws7ISvVcis+rNR8Qh8SPSg4uGh4AAf/AInin6XTHyCV8vMkojPHwZ4i9FPaFxGPIWAdIyqVc6NWmqQpyHpikCBIAE41JGACTy2odSg3cCZ/KYiKSKgipQqI/Qj5uYgcCRAkc7sRBN5oIGUilgJ04I7iuDaBSQ8mHXiyomFycXkzqQPPVhYQAI3jQZCM8jZT6M5GRNxemS8OkE4x5in5f+PDRftjEssT2APmgtigBroaR4CD2LZ30wvbJ8QH0/8A5SYPuAB3MVkIlVM6TYTcPUKHFiuFjgQaihZx0Mp+nG+zUeT6gYf8ZSQQyziYaOr22QmcMYkErmVHlJggwSO3iyf2AYE4DOJzNZAT5IoqHtPxXH0QDpVNiq5VV5KBJIiMXXEPAIPfTk4Ycm+GRvDQDI2AqilngUNlhk7ggAf/AJLWZigzw8agrCWudeUA/wCVJqoUcq+BlFnCA1qTUJjJmIrJJ7HGb1TT3TNKpRpFjIZ8TTkLmYyGXHgGiYDJFVQIaQTLyMBjpbP3AyPHSDH5Xuh0eszS7MD8CggOACADwH/4hsICJIiaRVwbQOxhTXqBHMSFDoOLxqg3lf8AHr/8oE+mYqwSIaIDwxYqHNKV5KYBEMYRjaDdcrTMBRXG9+adwjoAgA6AIK8WPsLI8cVVOAYSkLTyfJQ4rIY4DGaFH/zwD+qAUgNVqgjhOBtsubISJcKPJnIxRkUSSMHY8RNRfIQyRCgORWsQP/yDw0LRSYieARa9BJoRfkWZhATjuPvWpTItDgj/ABUN0FMJ8GPkHpBU4V4Y8ThfxM5mj05ZEfGp4h5FYq4nKTOTTI8KvyRGvAjzQzsp7acte+6ysU3lT/j2gvAEqOAGq2HPgUUZZg5zvsTFE/4IlOYSEGZkepymxkxKOPj2Oj/+GEpvfzp3I/n8FsqT8O5i/O/IXi7wPkf/AMhQJeq4UsC+gQGQyGEQxwKNpKJBEjlXqpSyNmwoqHJwDBKz/wBNMdEJEcRGxCOTBuA4A6DipQfIGIZBp2EmQyybJbDkvGOTlgshIsCHEiBLB7eeEf8A8I3MkQnuAPzYsIVqN0ZvGmkHMeQfYgflfFgarsPoWR5S7Pwh+cTcEjFdXzdgNc8yZYldjlweK7FQwI8opDxJVyrDJ/qEPpfNhyWZyX8f6s1RhBnAYB6rw0S2SbmCcg9KWaa4GMguKBVxwppQecoImEGRxdObp2nTDQELIMRtkfFkoMABSWSIYmYi4uGdbpqCSADkSxdmyYk4ypIAUGrE/wD4WYY5oUUpzIgPor8WARGQhM7MIBwe9ZsIc8dZtfay/wDyILWYxDAt8soUjTnKbC603ySVSDiVigyXVzjfWDcD/oB+4f8A8KP38gHKv1UYZTFehkZJqBybC5MQ8A5SQjqGODbhxwCA+A/7yBnHHqcvobL2UIlfcyPa02ZB3AMloPSRteDWk7eZAR1ApqVEmvs3Cd5LhYy+wopPmY+woGxmIKciUsdKpGZyj2ckl8v0pXVlB/Mp900F4IYB2rAfdjPLiRzLLHiZqUSQGNJIJuPY9HNQBXdwjByGGZAFarqfkwJVkjkRrE7SVppwoH2NxBLkFhckIDRETJuK7EEgCedUNfPDgHOaaVVl47G8t9CFTJiiA+QbiRS0XBTyMcxydS3ZQhPI8P8A+B4p1JMnA8vkmT3U6PNiO/cNeaJA54c9CH3/APkIxhKQQmUgnQFmCNkZ28B8kPsnjH5iy9ZFFmOVBHsdQMD/APiLxwjh50JzBIKDOQyrS4FkFpFOxIZNYUnJTkyQNheG5ZZCbs/kMnyLqV6TKHkJFgCAQK0GICVY6Ius85xUpdDHSuhPw/NWTSBi5XjEl+toW8wteRTY+PgVBFwr29Rs9heTLs+aj/U6oEED/mE+qL6hlFCgucmpOmAMbBDYJIPVm9yYcSzDDD5mu0LkrlCYB5VSImu7QTJNgyGSmTJtKFABApyYGUJKHqvKDhiyxsw5CcMTBkPCnIAEf3YsFy84KRJie+RhqxbSqhHKY61RNXEhyVBqOLEjxYRri6BhF7T90pePb22CIlUaOLLJxoPpDHfROP8A8PJSTT0ohSAMtngBUK0WiYBgJJH1QMbRn/8AHG7DT1VhGJkcWIdAwICQzonAHACHEFlRIlU5dEHlo3f/AMOLVWbI3Ip+pqHCVwlH0zAUiY8WCTJFrRAckCVk5XeCBEYnGwIOyHM7VcHq2SfFEg40+e6biQF2fBSA6pjJMWO1MMC5NZby9KOUxFkVB5IHlkbhaEIMfH1xSwCVVgA8rYDW3kgnYJ4Wbv5o48piNMinfslqCEnHc14ad6UlIh4IOBwDFid+qBzbSnFPNKxkN9RCFeC91iBo1EyFD0AzvJQMilEo0IBIevJyXb9iQuMiWASl14bGNPFA5nPKDHpxlbxQrG9o4w5fmoHEBqJSRIQwKG8nIrz8GTQQiUkDmd4rkcMsSKMBgNI5kXReZwYHlK5jw8cWdGQDimjghLylXDdmFDTiiRASkhk//CxDNgHikbHv6GP/AFVhBzhismQ+dpbAtGYgR8jn/wCOHYT8RydDxDgO5rW3+dNmYA2GEAOIJNrXOgTpdUu8zVgVph2LqEyIj+wp6oik8lfB18U3awGQO0LnkEtKw8hN5JkPt8zQeQGSWI0wYczPCyXUGAxPI4REzICdGpq7IX0oI/BxeG+Iawn8MPqgUXgQ8EGA6O/+CY2hl4FCnwbZ3GgAuAS8Byp1YZW5lUhd8r8KlWA0JJJUZfsMpMYjrabQcZyUS0CRhonMOh+Kc6zGlmg0epyTqa8XfJEmvybAVss3V+dQYQVVIYtCVYMIZM2UnnqsDHIwKiajgNgea+UqSudnBAYR9nHZ4i+AwkIacZQhQukOA+REEP5QnhwueTC2kMB5lz6oGwlPF/FWXKdBE2FyBIMpclpE2AQBwAQBYtnGGhM4MrAMfqEdKdcAdmMr7RUEuAyETnLwhIyJD/8ADpHqxBl+NYCPCtPd0hOca/mDBdkV+AQ//GZfwQIgHClOUDLRCJ22lqQqT2OXCWuVGSURngECUrzJS6aGC6dc0AeFibI8oMKVIVAMEAR5FbCsKKQk69JPVWokKbBOM5KkEnZRijAIHg/AFbw8eDuUiSfAPFMkAAGAHj/nFBO48r79FCxkJXF8PEOHUIlVIKXwonISfJGi7CiYp8omjDNR4oXQEmAxsDPy+G6P1NSRJ0YeVcu9FCc9AomJU9DYphVkw0wOONbGOPDSnmUdgGGx/QiWr6Xif1VUJk+Qg/hstgqHU54eYGjRHHJrB8h6ee6Llb+IJMFEJPhRoofPngWIWRHQ0lhVKTskDPMBE+LnyCBeOJ2FmHra1cU5EE8vTGZZAnz5E0vqH8LhMieR0rEJQEMAAJLMWXo2gM7HnU56e81LuqxiZHyIQvNxOcwDgiGJ1AexbBkFbXGK1lYDGcf/AIcJ9USN2BEOQin4JrE9OM/hkOBj6pr8VGG2BLqrx/8AgiR8O4+/9NPKYhcMI1PWvT3Q9TuK0YsnCKTkLVTLzl6Vdna7cJqIgBkwDuRMqMREqkUEBDEEqMX2HAxYzs5ZPHwXA8ImUIFosMwxvgo9qy2RhEpUHgPsX/mLMkB+0FZMWXwqYOKd+RZKBgewJdLDFhTBJbHiVHRUPHN7GFSYWV6hCR9iWWteqrAEB4ySoQUX5DUpaiFSQssy+hjFGAGJEVEmReBqKTyB1ZI8hPH0upkd8tvOvTl9RX8gMDOh1IhZxDkFAwzMwxiZ8FB/DJGDMpY7OfnxfQieDQRrw9UI6RSJwGd4ir+EIciQmxQVTO203oSQOXZXJpX1kEkBc8Kw0KFGASFx2oVyrLrInQuABw8RMI6ZjKZssAw4yLFX/wB3IhYS0vBxS/mNQigmBU8kaLsQRGmzKRVTYJJhOayIsxkcKAn0yK/2IuIQYQxwwpXPGahSwpEBOO9bARJWiJAIkkyp7VxRBXiiTCDoB6/4oT6pTWwxh8Jk/SoGDpItUDhoSSU2poCkAEmFkgNfoKLiAhSIlAX5/wCIwuipwa0JiskEhp4a1pc/Ck9ieS4z0lhmUwiaaqqiqyqyq9r2+7Cw4ZXQEqvoloSXiUHgIoiPL6pqYTpPUgAjABBkoljBI0ZvMTD8FAUwGAOgIA+K1yNWRa+JijwKaYnDzpVcZoWNGKEAyB9WXgQ6C540TRk5FlTczohEEZsuWduRHouTZUXk4dZM01x/UFXEwVKqpiUbE+h4ikCQSJBkOFSyLZUGCkMMgiZ5mL1mQoqMkSgr9WIFJuRMgkHTilMZaRzjjcRgerH9MXJKLghEmz5o7klIDqwJhVgbYK5+hgWYYGfdAkasTVakvC75qWox8kMHMWyEVpdVcOI+XMBFEng4iU/qua+oJCTuV27dqW2eLITsSyvJJqBsDDJGGi5jXaICKAJtnYOLGyYAgpZAUqAOZn3ZCMBlDkMSnByUCj5k4kTFcdWpJaopDg2SuVIamuIu2xkG+bAKIqTKZbII75gfua8N4XQnPlQs6acqX8H8K5/hkGbKAAVyId0J2AHnaxcghPiaJEUDxghCSSaygg2X7kkgAaSQAwMEgBhlchKnsN3f9KT5cI/Eq+qsxRxvTs3vpTGAcB/1DGDGHyVTwQCzpAAy9KoYiTs02KMMXtH7P/wiXkVfDlFMPPxaxUI5EB+6cllplPISqzmgrJVRBFzM9uu/my3I8iCC5mIbx5uqOGhnKRogsMdAQyLTnGYQokoEsSea9EHpwcp+4cRtFqQAAMgEARZJD6yYUGKokS6mVs8jLMpiCzthkjCKzkYFyLSIkxGtkeGIoMSGGZUPMtio5YUyxRlkSwPd6ET4g4CEEyOfNZoW9uZaUhyjbBVP4jvw4nBX1X1GUPgS4lQTpsN6TvROQiDXvizwCP1/r/OazwLtIgceou6RWchljFWqFsFixCdAwxPHE7VDIE8kpmEksZtGFuzUpA+bkijx6AtUgidBXQo2GR6Vggfi8l7o2ZsxwMIYYYlT7IZDux4GmC2NhA9E6hFR4sULyW4kGscrgPYTAySICk/U1oUYKIxgeyH7izNraQFJcEiameaHBQ6RxkAWJZKartJmyzjATGSbvYc8T/8AjPTgTmcr8MFMBPjp2/IWBYiJmM36lH4//C1NDkzFRnLkZ4l7WFNw3EAmCAnFBBzWRS2ApyA8Hh/FmGkRLCIEkMKzjzxFOqoQRhQzRiV4Yr6OyIPFDkVmMQkrQPhlzgksAkS7TaPlUL6wRX0OTlOUx8zD0IMiJdwFKKcMkJcTGVzJwWKkl/AEyFOuSc0qH8S0Q56mn1kmYxjQ9DmiIShEcSI6cQgsAlROKDCabwn3FEkdP0gMEQkAMtWGGYMlkOBxfFjpbCE9JzSOhY8dBmXil9Gl8MQk2J+naFwRHMSosc4HxRQJAAgOEnsrTpZPzhIBRA0JIw8JxWbRCKWgKgTgK9ZxZimImL4oekNnEm9wmI3ufNn8bzBuJKv00w9eQiD6biUEe6NciBEASEELFjBC7ZcapUikyjxBHVK2UCADoAApYkYEghykq4OWp2Uh40fU5HxYfA1hQgJ6PwT/APHGQ4AS8T7KH3Y0nmSA+CQ/I0JWQP8A4mGH/wCIIc/IkLGOyabjlcpAENKEuDnjmiY5UCE1IFG/tpHqSoyITtP2fdX1FTIi1ex24QTQSGbwPVBpzAcVpOpC9J83Z8kMNgtzFg2KMjQ6OZ2JnASCLskFayKOqQJBIJ4WAkiCFmvzSCxnEHHIHVYRQLeERsCGTFHAEsx0ZB8EWOrBURjoS5sgx2CaYY8Gsxozsc/FY/X0okig5RnxWvu0CgCMjGk2dzqUkpyIeoMU6hwMfAgK8VQ7IOnyT+lca+DJ9sz5KFr/AL344q0tN/JCJ8h9A/5yqhmpChHosCjuiBhSQ2S5jIrt1ATYQwhLpPJUJISOXsH7l/8AgeGuBwZ4QReMpHoC7Lt0czz1vu48mO63uhNj77//ABj5IqPIkU+EbSOKcYJ0HaVmK3UTD9v/AMWAtf8AIhYgIcVCWhhgpCO8VA4ktAeQFfIgqNNtlEdQfWqUZ0K1gqZEMdgMBMkbFCVBiIowYIQUJHqkry3DrIWnI0xU4G0YaEYCqw5y8UCfaoJNTKBdO+LJIqsk6BQtSFSEUz4gnQATCUwTUBDbhoLAieCDWxm07JxkZjxIXkVmJERBkKeAx1FJcskNqMNJYUjz/wABsaVUAPls0SMbmNLIkAvNBLGfIw9ZnyI7LnbBUtELeNT5vIfVHeQ7TJDibnhQ5p9Kn2FAyUAk6nEnCB9WVAFky4BiB2CnhpJDuxL5wP0aHq6GJmAASZgMR3VwhTAEgJYxLeWlgJLKcSzsxJnZn/8ADwbKYbWRR4mJvPHRWuiMdnZIZgXlR0mvbo5LnjEUginXH/5GrPpoVVUCkhwPKKbSAcwNxIvzjyMIcCSI6I+//wAUAglQvSIXglM6hAqMBGNn9gA3deT3cBN6BJ6I+UC47WILOR8jByGJZ2h+BbGcBMYGwLwILnsuAwDkmKEoAJdhngBmGVwjK6ngMzlRUhCIKRbkHQc6hRT8PkpjIJ0ZB0ws4lAHMVLoTs6mKMWZwNAAdFbi+kMiHgBfoogGTIze3zRLqaD2/wBGmjuiDps56YkJAhjxT8MSsRBMvsoutpSBIBmFnnpju7aqADTjIdDdd9VnDymF84yeY/BUmtkhZ7XZf+GsWCCIDryvAdqBZCIIzdCQSi8BKTtxNRZM8QPS4PcLHFKCM3AAB+P/AMCBLxFmkJkR0H4ZfVlMe6gUwdhlZ4QtJiyaaCEKYLsrmYpokbnDjD4//IKePnCmkMMav1SAYB2CO1EO1PqDKe0ZZlmmvtB9v/xEZJmcHi/AooVJyREw6CRg4qAncZEZbZGicSccUzkJSY0VkCJg4AL3VjESUUKIIH7pvggJkAUCMjJrQ5LGaE5MI8M/xSmpBweg7e3lrMgFVYAKLRpZURhAob5SvlsA58ih801CCYQ+ZnumhxzVMmVp9SR4scyBAyTJKeHTngqwDnwTAznqJjkooDLo+JsGtMMGUTJ8mJ2f59XiDM9+k/8Aw4SeKvAUbDsHE4Q5ZcChfJhDmsIfsZeWmkF2HL9Zn2PqnDoFAkgN7Xj/APA8M0Wle1EPdCqjAeyUh0ngwg4BkcqHH6ZAiFFJIhP/AMlKTARzLX801mM9KEzaSxKYBw1LLTMAcjwB/b/8QiVJIT3bnAsoPm7BCEghMkJjmnezIYCZVSnIhcpoMAKAgiMDy1vQSmZfhFcNtJ7L/ARVNM4l9Lkb6g91ho5ZD+P3yqOQHzh4V4O7zH3+fAfZF6lwCjtCD6PR+4qOMjk6nMh2tZwMinPMYPsaAIMD/wDHyfFUxoYA41h2gbONlpPDkOF5B5coeDEDNZqzjFwRTU+GhgTAEHFz0CcMh8iSUOwkhIcK0DOA+BLCGCXU9SAamZIRMxQiLQgaU/BQSyJRGklLiAw8gcrEEsKNSAJDeoYdhzwJzNsCTqWDOH/5SYu84h/NOvze0HzBA1+J/wD8bxRJNRHIdQl9liZ8ggPYvwk+Zdm4zkTkM0fV9t5ifpX2H0ZVZbn1LfZ6f2WUJpiPz9zBrKguA9d409Y0OaFhYaBBx8oMg33Ixj5in7//ACWr6cbO5cAHurXPYwDHRAgiXpUuGhAfI8yO8PyKpDb8QictZgycosBt7KB0AHAWBTjfPn6OAnyWJ/FBGJqgOdBPiz12jUQBcM6hmck6Nx4SXZAnXl2Mmf8AGu5BXSDiKXwi40Q7cNEVWUKmCZBnNRTtYtfdQxXkUfRMIAQM+v8A8qDKujqSY4IfIOaBTj8AhSBIGALTdks4Bv5g+v8Av7Xm0igfm6wEuE2Lh5KG7SNhcSqxoI+a6HnlcccD/EfdB9iWDs8Yr3Ieq7dolP4AKX0vhqDSjRIe0z+k9XF+4T82X18lyYI5RCrfmmOq6KiRM8CSngBHpygPjHCeedwCPeRp7Qgh3Q6C6k9ppc0FQvpsC9JE+KYcQkRkR/8Axr0AGAcqsAUXZmBCiMJ7qhY6ISSJMaY8yeAcXA36eCIwmOZF29VzbiQP0hJfnC4g1PaELNAGAf8AHiwKS/sP9LBR8XhbyDTLIZ8ApcRToHKZoMiHKcWXTbD0ydpAfniavQ8JMFPRyOWdGr5ILEkzqfn0zPNwRcZSvdacnw//ACwCO8RiPNJIygcHpp9CV8m9AzjNgJgdBEXSeQh47mTP8tKHERDMwO1niXMGUH84bHMwgMiAgbGKFChIEhY5AIgTy9HBUnVMhPEDAnVlWAVmU3aXB3EPCm02tdmc7+IVnM2FUiSffD+Zf/wHGMiAiPSNlJAvDMqxEr432HNm9hgRW7wclMspVA8Ssz4dV86IJOgw8JyUPxUh8AavKePijBgSORnXYB5Qk4uC2ZECOuW2XgMcG1VSQWaRuBJ4Y0HuLFM8kUudp9J07nhRd0lD+9OqFTMTcEuReXD4sQkgiY9xfgVXhqIo0Cg+Y+Jr2FAQEAZeaMuOHrPXD5T/AKEtkMA8iOJQzgOAyKhRACq5VnxiQ3AaEpF3onCujWokIPBBqiJUGkAqdrgXgB5HFE4pQA4AHg//ACwbYEP3VAiWiCfD0H4v+M2fAFVegJV9FiDUhkUzPEf4NWAS9SYbQXi4UgszloqGjD9OLAEQLlKvJBVwQIXxgCsAto0ziiBd65wzIqf/AI9vRpJDgTonSQlYsphcSysV5n4lfRt8Z53ILJfGK85B5IDJzEXDoAyfRJClY35j8rWKQ8Dzh83vMo0iwAGpiFAfrbEE4qHkI116i8+/yRetf0ijGM2C8g43iNo4HQInoAqBLwFN6UZdYElvKfDDY8IY8iw6xApzMVzcAAgEEPRyusUCvqsh5ID6/wCcnxemk7g2KZaoSQkUXMPPXZMMj4UjRAayfXAPNoSBccnUyQYGQIORwETQA98r/wDmmWwhEtbzVNTgTTRyMJ/USZ/ksK+8dZ7lPv8A4bw+Scv1v9B+SxiZATKEcTZR1992LCoEOwmeRPTmdiYwpDcbgcIkcrYkf/iRdQ6Hi84R6hrogSVXI+aeUlN6MSUkn/FLdyIfhmun87M/a2UzKA/eIrS0qrJPJ0hMThMbKflqI8ZBDjopMmc/FAD/AJJrKRBhzByx/wAeKWeU9YbyijkzzJlNsgJ8KDQAifJzOVRIzcSkQ4HREcJoQRXhoqiIgofxM0HDMGXz0uDHlJL5VxeqxOUk8Qohz4ZKeDM+oQKAhAAz2f8A9DLZUeAIRGREuABAhFhBOJFhYWIlVJGU1iFRJI7GCzYHVIuCBIPNAHB5pmZdWBJwnfzTED/jxUomGJxIYvgHzTro46AxvF2b0jU0WwgF5gA7mjnugxwAf4/8276YCYJ7b33Jcch0E4fkyz6/vrwJKPAaMg8TXikRTBOkSExwOLlZ5AmXaASQGl6rnk8pCC6k9ViDP+PDTX47kgPMUwFDd8WDThYqIVjTXoBgAsQRjDYcS1J4HoheGqSGAzGyQNUT5lc5lobJkEs8WdQpDFaoYdnWchwa0i5bMgSAzqXLXAkKCAAYAf8A6IPswAqEHESmGdJnLzvJ8bHEDUVOolIGeUcJyMj4s20iqGHis2DJYJuJ8x8bLPKakkkHUjB2Z5ocfPj/AI6JXqoBgygAwwddXBvLeQedVRwUjmDqi+DACAJ0dHyO/wDGZACq4R7qgzHPqsSSaMjw2bF4M5BUBlYPlf8AqBLwFZwDxNkIUFcJEngrNUp5CEjTPnJ1Fl5w2qnY9uwh8f8AXhojcUsoJgnVRgleAqHbcAICYNCWZBolK1bF5+ATQIIkd4JDC+EbEAZCcgkWTVw3cSkCE8tX5AlGDAAwAOA//RkmSNBIRHETq6NWMEJMwHxl0CBhkJG6eJmDJEnDs2eIiBnQ0clATtBM0JltUncpA6WftWUlJqkJ8JFlE4GbIiR4TuyPjowEUawABwB/14aZCYHI5jV6AeRq09gvkwFyPDdPCGlACQcpRObCaE5F8oSdox4Yrw07jzHPAqEyZeqM/qteW4zohDVPkuwoC4x9mf8AVzgQAHKrgFjXKxJqOQSieYSRrRQo+Dkw8EbJNTL0FSlCSkTZC5l7V/ChFYGRkMYeuhpTHRm5DAwOJ8qYA4IABgB/+kOkWJdCgvEYMQ4cRiUy60aAWaRAzMqSI1iGlxrHKoq92ns0RA46SGDClZqJRs7anI60+MAZRkMqtssVaEDUrBwueFPKKBzfEiT6/wDwOOirGHB7SCKcYFuAQH0f/h6P+M558kTsWcIjg2PYK+iWx5LvhjiUT0vSwPXwUHBMgfYQraH9LpqdbzQ6SjhY7PAsoyIbqQ7SaRGkkGGJ0uoJ5I5oUIoyh5cR1SAu3r/9MLm3GJ6TkOgidNU40gQDAsc8cIfFeGklQRDgRBIQThcM8nISzQhIg0z81ZUGwVyMyap8zNAaOmZE34GjAdhrhkP2YRvJwtgcXAonyfoLP9OEN8j+yhEvAa/FCYNJIRuemmISIkR3jEdsQUJyR2TWrp6JNs4iDD81BYr90fy0XQPoV4ApDoRvIigfmgvYe+LPAYgs9go7GpUCUemdqk+S1RviAyJaiZIHzYFqBSXonQeX5sBYoeb0P2//AKfEVhO17qOLpJ7rGzxwJLiwlgDjKf1R9KJBQUD25luauAA4mk5G6WIDYZLx0HYjDj1Rk9JYw6RiJxtnSloZfO19WBRTqUsQD9c1ZkDQS6PLcxXwU4G+DBKY8Y+BoNumBEpFi4/RVZtILucCPuU+KiD5P/0ZJxmnVU5aqu8qK/K/8PtE4aIEMGZHZCcXF8kJJOBc5yvsVtxRMnlUq7RXt/8A1GHABESRH1ZhCEZ7PJfkawmBBUchCT5UoSWMu4nkxz4Bfk5rT9xA8Ea72MnguDAZaMYQvk781x4yK6IQiO5x3X5JlMTjScu0f3URadkP8EZ7V+HinLjFEQ8cZ4oyczr5ywTQzjPd7dygnxhB8G5SakGTsYn4SgBB/wDwG//Z;" vertex="1" parent="1">
          <mxGeometry x="625.41" y="680" width="164.59" height="165" as="geometry" />
        </mxCell>
        <mxCell id="b8CE8_dELRV-wutxg66u-59" value="" style="shape=flexArrow;endArrow=classic;html=1;rounded=0;fontSize=12;fontColor=#38571a;labelBackgroundColor=#CC99FF;fillColor=#dae8fc;strokeColor=#6c8ebf;" edge="1" parent="1">
          <mxGeometry width="50" height="50" relative="1" as="geometry">
            <mxPoint x="280" y="314.5" as="sourcePoint" />
            <mxPoint x="330" y="314.5" as="targetPoint" />
          </mxGeometry>
        </mxCell>
        <mxCell id="b8CE8_dELRV-wutxg66u-60" value="" style="shape=flexArrow;endArrow=classic;html=1;rounded=0;fontSize=12;fontColor=#38571a;fillColor=#d5e8d4;strokeColor=#82b366;" edge="1" parent="1">
          <mxGeometry width="50" height="50" relative="1" as="geometry">
            <mxPoint x="550" y="314.5" as="sourcePoint" />
            <mxPoint x="600" y="314.5" as="targetPoint" />
          </mxGeometry>
        </mxCell>
        <mxCell id="b8CE8_dELRV-wutxg66u-61" value="" style="shape=flexArrow;endArrow=classic;html=1;rounded=0;fontSize=12;fontColor=#38571a;fillColor=#f8cecc;strokeColor=#b85450;" edge="1" parent="1">
          <mxGeometry width="50" height="50" relative="1" as="geometry">
            <mxPoint x="550" y="441.88" as="sourcePoint" />
            <mxPoint x="610" y="552.88" as="targetPoint" />
          </mxGeometry>
        </mxCell>
      </root>
    </mxGraphModel>
  </diagram>
</mxfile>
